<?xml version="1.0" encoding="UTF-8" standalone="no"?>
<!DOCTYPE svg PUBLIC "-//W3C//DTD SVG 1.1//EN" "http://www.w3.org/Graphics/SVG/1.1/DTD/svg11.dtd">
<svg width="100%" height="100%" viewBox="0 0 168 167" version="1.1" xmlns="http://www.w3.org/2000/svg"
     xml:space="preserve" xmlns:serif="http://www.serif.com/"
     style="fill-rule:evenodd;clip-rule:evenodd;stroke-linejoin:round;stroke-miterlimit:2;">
    <g transform="matrix(1,0,0,1,-7409,0)">
        <g transform="matrix(0.230714,0,0,0.232835,5868.02,-4198.05)">
            <rect id="plugin-icon" x="6682.06" y="18030.2" width="722.396" height="715.743" style="fill:none;"/>
            <g id="plugin-icon1" serif:id="plugin-icon">
                <g transform="matrix(2.86581,-0.642723,0.648631,2.83971,5603.58,17932.8)">
                    <g transform="matrix(0.0930454,0,0,0.0930454,268.709,81.1889)">
                        <path d="M3011.21,1603.63C2935.11,1641.7 2859.2,1685.63 2784.55,1734.7C2723.44,1774.84 2663.15,1818.46 2604.24,1865.09L2604.24,1865.14C2285.69,2117.24 2006.92,2458.87 1854.29,2829.72C1825.53,2899.42 1801.29,2970.19 1782.09,3041.56C1747.85,3168.66 1586.7,3208.12 1498.12,3110.73C1366.95,2966.56 1266.37,2773.47 1205.39,2550.14C1198.05,2523.43 1191.34,2496.32 1185.2,2468.76C1097.85,2077.84 1127.42,1606.17 1317.28,1145.02C1331.01,1111.62 1345.57,1078.2 1361.06,1044.93C1997.67,847.73 2528.56,1118.99 3011.21,1603.63Z" style="fill:rgb(255,193,0);fill-rule:nonzero;"/>
                    </g>
                    <g transform="matrix(0.0930454,0,0,0.0930454,268.709,81.1889)">
                        <path d="M1362.92,1047.06C1348.11,1078.94 1333.56,1112.23 1319.68,1146.01C1141.04,1579.91 1094.17,2049.47 1187.73,2468.19C1193.88,2495.8 1200.66,2523.14 1207.89,2549.45C1268.75,2772.33 1369.77,2965.81 1500.04,3108.99C1540.89,3153.9 1600.52,3172.18 1659.56,3157.89C1718.85,3143.54 1763.72,3099.8 1779.59,3040.89C1798.53,2970.47 1822.86,2899.09 1851.9,2828.74C1997.99,2473.76 2264.28,2131.11 2601.77,1863.79L2602.64,1863.06C2661.53,1816.43 2722.25,1772.52 2783.13,1732.54C2856.87,1684.07 2932.11,1640.47 3006.85,1602.92C2453.38,1048.23 1930.86,871.601 1362.92,1047.06ZM1619.99,3167.84C1573.29,3167.84 1528.91,3148.43 1496.21,3112.48C1365.39,2968.7 1263.96,2774.48 1202.89,2550.82C1195.64,2524.43 1188.84,2497.01 1182.67,2469.32C1088.89,2049.57 1135.85,1578.91 1314.88,1144.04C1328.95,1109.82 1343.69,1076.1 1358.71,1043.83L1359.19,1042.79L1360.29,1042.45C1665.26,947.985 1954.6,955.739 2244.79,1066.17C2499.23,1162.99 2750.52,1338.19 3013.05,1601.8L3015.58,1604.34L3012.37,1605.94C2936.77,1643.77 2860.6,1687.82 2785.97,1736.87C2725.52,1776.57 2665.22,1820.16 2606.72,1866.43L2605.85,1867.17C2268.63,2134.05 2002.58,2476.24 1856.69,2830.71C1827.73,2900.86 1803.48,2972.03 1784.59,3042.23C1768.22,3103 1721.93,3148.12 1660.78,3162.92C1647.14,3166.23 1633.47,3167.84 1619.99,3167.84Z" style="fill:rgb(108,0,0);fill-rule:nonzero;"/>
                    </g>
                    <g transform="matrix(0.0930454,0,0,0.0930454,268.709,81.1889)">
                        <path d="M1589.64,3141.23C1560.9,3134.97 1534.39,3119.82 1513.45,3096.79C1392.35,2963.71 1293.9,2780.22 1231.74,2563.61C1240.8,2567.53 1250.26,2570.95 1260.06,2573.81C1265.63,2575.43 1271.2,2576.84 1276.76,2578.04C1338.26,2792.62 1436.61,2978.24 1563.73,3117.94C1571.81,3126.83 1580.5,3134.59 1589.64,3141.23ZM1165.11,2188.83C1140.13,1868.35 1188.46,1507.68 1339.79,1144.59C1348.06,1144.42 1356.37,1144.33 1364.79,1144.33C1371.84,1144.33 1378.91,1144.39 1386.07,1144.51C1385,1147.09 1383.94,1149.66 1382.88,1152.23C1240.66,1497.67 1188.38,1848.96 1207.81,2167.83C1192.47,2173.14 1178.11,2180.2 1165.11,2188.83Z" style="fill:rgb(255,231,147);fill-rule:nonzero;"/>
                    </g>
                    <g transform="matrix(0.0930454,0,0,0.0930454,268.709,81.1889)">
                        <path d="M2674.51,1681.53C2667.09,1675.46 2659.93,1668.93 2653.04,1661.94C2577.71,1585.27 2485.83,1514.88 2384.08,1452.37C2382.14,1449.69 2378.68,1447.52 2374.46,1446.5C2268.77,1382.47 2152.74,1326.88 2033.66,1281.44C2034.51,1274.4 2034.84,1267.34 2034.69,1260.31C2037.66,1253.61 2040.2,1246.66 2042.29,1239.47C2046.6,1224.65 2048.74,1209.65 2048.87,1194.71C2285.64,1282.42 2515.4,1412.13 2676.69,1576.3C2697.04,1597.01 2720.17,1614.25 2745.17,1627.67C2722.33,1636.45 2707.73,1650.18 2698.42,1663.97C2697.65,1664.33 2696.92,1664.79 2696.23,1665.35C2690.6,1670.01 2685.59,1675.5 2681.32,1681.52L2674.51,1681.53ZM1610.43,1165.75C1532.41,1152.99 1456.87,1145.74 1386.07,1144.51C1397.06,1118.01 1408.59,1091.5 1420.68,1065.07C1485.7,1066.14 1556.16,1072.56 1629.9,1084.06C1624.58,1094.03 1620.23,1104.63 1616.98,1115.8C1612.17,1132.33 1610.07,1149.1 1610.43,1165.75Z" style="fill:rgb(214,134,0);fill-rule:nonzero;"/>
                    </g>
                    <g transform="matrix(0.0930454,0,0,0.0930454,268.709,81.1889)">
                        <path d="M1339.79,1144.59C1350.81,1118.14 1362.38,1091.7 1374.5,1065.24C1383.37,1065.02 1392.33,1064.92 1401.44,1064.92C1407.79,1064.92 1414.22,1064.97 1420.68,1065.07C1408.59,1091.5 1397.06,1118.01 1386.07,1144.51C1378.91,1144.39 1371.84,1144.33 1364.79,1144.33C1356.37,1144.33 1348.06,1144.42 1339.79,1144.59Z" style="fill:rgb(213,161,103);fill-rule:nonzero;"/>
                    </g>
                    <g transform="matrix(0.0930454,0,0,0.0930454,268.709,81.1889)">
                        <path d="M1851.94,2782.14C1848.55,2778.66 1845.26,2775.19 1842.12,2771.69C1835.27,2764.03 1829.1,2756.33 1824.21,2748.49C1819.23,2740.52 1815.28,2731.99 1812.61,2723.4C1807.21,2706.08 1807.83,2689.19 1815.7,2676.32C1819.72,2669.56 1826.14,2662.6 1833.76,2655.04C1841.35,2647.44 1850.15,2639.12 1858.25,2628.18C1862.26,2622.63 1865.95,2616.4 1868.88,2609.54C1871.72,2602.63 1873.48,2595.59 1874.54,2588.85C1876.57,2575.37 1876.11,2563.14 1875.94,2552.24L1875.88,2548.21L1875.86,2547.21C1875.86,2546.94 1875.85,2546.98 1875.89,2546.84C1875.94,2546.65 1875.97,2546.46 1875.98,2546.26C1875.96,2545.85 1875.99,2545.48 1876.15,2545.22C1876.21,2544.9 1876.21,2544.56 1876.42,2544.35C1876.85,2543.3 1877.62,2542.34 1878.93,2541.5C1880.19,2540.69 1881.9,2540.19 1883.42,2540.19L1883.5,2540.19C1885.07,2540.21 1886.32,2540.61 1887.48,2541.4C1887.77,2541.59 1888.12,2541.72 1888.36,2542.1C1888.51,2542.25 1888.66,2542.39 1888.82,2542.52C1888.94,2542.62 1888.92,2542.55 1889.15,2542.79L1889.92,2543.63C1891.97,2545.86 1894.01,2548.1 1896.15,2550.24C1900.36,2554.59 1904.81,2558.71 1909.36,2562.75C1918.59,2570.69 1928.37,2578.15 1939.47,2584.47C1942.47,2586.17 1945.55,2587.83 1948.75,2589.37C1912.59,2653.1 1880.24,2717.5 1851.94,2782.14ZM2254.51,2166.45C2251.55,2145.88 2248.18,2125.62 2246.4,2106.3C2244.54,2085.13 2242.93,2064.68 2244.89,2046.01C2245.87,2036.76 2247.8,2027.66 2250.74,2019.8C2253.74,2012.01 2258.01,2004.48 2263.38,1998.3C2268.66,1992 2274.99,1987.08 2281.51,1984.03C2284.77,1982.45 2288.12,1981.59 2291.46,1980.93C2293.38,1980.64 2295.39,1980.5 2297.51,1980.5C2299.03,1980.5 2300.6,1980.57 2302.24,1980.71C2310.26,1981.51 2319.48,1984.06 2330.06,1987.06C2340.53,1989.96 2352.6,1993.36 2366.94,1993.71L2367.36,1993.71C2374.45,1993.71 2381.97,1992.78 2389.29,1990.55C2396.76,1988.19 2403.81,1984.43 2409.82,1979.85C2422,1970.58 2429.82,1958.74 2435.48,1947.18C2438.33,1941.34 2440.62,1935.45 2442.51,1929.55C2444.41,1923.7 2445.96,1917.56 2447.16,1912.08C2449.6,1900.98 2451.41,1890.52 2453.76,1881.09C2456.11,1871.67 2458.94,1863.24 2462.94,1856.46C2463.41,1855.58 2463.93,1854.75 2464.48,1853.97C2465.01,1853.19 2465.55,1852.25 2466.01,1851.78C2466.86,1850.58 2467.93,1849.48 2469.02,1848.37C2471.34,1846.24 2474.12,1844.32 2477.23,1842.72C2483.05,1839.85 2490.03,1838.15 2496.82,1838.15C2497.38,1838.15 2497.94,1838.16 2498.49,1838.18C2502.14,1838.28 2505.73,1838.79 2508.94,1839.84C2509.79,1840.03 2510.54,1840.36 2511.3,1840.66C2512.07,1840.97 2512.81,1841.17 2513.75,1841.72C2515.51,1842.68 2517.34,1843.51 2519.09,1844.49C2532.7,1852.43 2543.06,1866.24 2549.73,1882.77C2445.02,1969.14 2345.44,2064.63 2254.51,2166.45Z" style="fill:rgb(183,93,0);fill-rule:nonzero;"/>
                    </g>
                    <g transform="matrix(0.0930454,0,0,0.0930454,268.709,81.1889)">
                        <path d="M1619.87,3185.99C1568.15,3185.99 1519.01,3164.5 1482.8,3124.68C1285.04,2907.35 1158.25,2585.7 1125.77,2218.96C1090.89,1825.14 1165.76,1416.15 1342.26,1036.2C1347.09,1025.82 1359.39,1021.31 1369.79,1026.14C1380.16,1030.96 1384.67,1043.28 1379.85,1053.66C996.978,1877.83 1157.25,2705.33 1513.45,3096.79C1549.77,3136.72 1602.81,3152.97 1655.29,3140.27C1708.04,3127.5 1747.96,3088.59 1762.08,3036.17C1840.64,2744.37 2006.08,2449.09 2240.52,2182.24C2459.01,1933.55 2729.42,1721.48 3001.95,1585.07C3012.18,1579.95 3024.63,1584.1 3029.76,1594.33C3034.88,1604.56 3030.73,1617.01 3020.5,1622.13C2443.42,1910.96 1953.78,2483.55 1802.1,3046.95C1783.98,3114.22 1732.74,3164.16 1665.05,3180.55C1649.94,3184.2 1634.8,3185.99 1619.87,3185.99Z" style="fill:rgb(108,0,0);fill-rule:nonzero;"/>
                    </g>
                    <g transform="matrix(0.0930454,0,0,0.0930454,268.709,81.1889)">
                        <path d="M2733,2151.79C2715.99,2176.14 2688.98,2192.45 2659.28,2192.89C2597,2193.81 2567.04,2132.1 2565.98,2077.26C2565.92,2074.91 2565.92,2072.56 2565.97,2070.23C2566.49,2026.61 2579.12,1983.7 2580.59,1939.98C2582.3,1892.17 2566.09,1838.12 2521.61,1818.38C2512.72,1814.44 2502.56,1812.96 2492.52,1813.73C2475.39,1815.03 2458.63,1822.93 2449.01,1836.52C2434.37,1857.32 2432.17,1883.97 2426.23,1908.64C2420.37,1933.01 2407.76,1959.09 2383.94,1966.79C2367.41,1972.13 2350.49,1967.31 2333.37,1962.49C2320.21,1958.78 2306.92,1955.07 2293.61,1955.98C2263.52,1958.1 2239.48,1984.28 2230.23,2012.97C2220.98,2041.65 2223.47,2072.67 2226.05,2102.72C2229.95,2148.85 2245.78,2213.91 2239.81,2259.79C2233.82,2305.72 2207.07,2351.87 2163.47,2367.36C2134.62,2377.58 2100.95,2373.88 2075.26,2390.39L2075.21,2390.44C2075.21,2390.44 2075.09,2390.53 2074.87,2390.66C2073.64,2391.46 2072.45,2392.27 2071.32,2393.14C2071.14,2393.27 2070.97,2393.41 2070.75,2393.54C2038.82,2418.07 2035.77,2466.21 2036.25,2507.38C2027.11,2613.36 1949.71,2575.05 1904.92,2525C1900.5,2520.08 1895.08,2517.25 1889.48,2516.11C1873.41,2512.89 1855.72,2524.08 1855.57,2542.92C1855.56,2543.08 1855.53,2543.29 1855.57,2543.45C1855.79,2561.81 1857.19,2580.89 1850.11,2597.88C1838.93,2624.69 1809.34,2639.78 1795.98,2665.57C1779.45,2697.47 1792.16,2737.33 1813.53,2766.2C1834.86,2795.07 1864.04,2817.35 1886.05,2845.67C1911.03,2877.81 1926.12,2917.4 1928.9,2957.99C1931.24,2991.76 1923.75,3028.61 1898.1,3051.02C1870.61,3074.94 1828.08,3068.29 1806.96,3038.56C1793.47,3019.57 1779.7,3001.64 1762.73,2989.09C1749.87,2979.55 1735.2,2973.14 1717.47,2971.77L1710.79,2573.4L2160.57,2044.61L2302.11,1878.17L2464.82,1686.91L2566.13,1681.63L2622.68,1681.59L2695.91,1681.5C2660.64,1716.09 2683.11,1789.01 2692.33,1837.5C2701.58,1886.05 2724.18,1930.85 2740.31,1977.54C2759.91,2034.42 2769.68,2099.22 2733,2151.79Z" style="fill:rgb(255,193,0);fill-rule:nonzero;"/>
                    </g>
                    <g transform="matrix(0.0930454,0,0,0.0930454,268.709,81.1889)">
                        <path d="M1717.84,2965.29C1730.19,2965.13 1742.99,2967.71 1754.69,2972.74C1766.42,2977.77 1776.98,2984.96 1786.04,2993.07C1795.2,3001.12 1803.24,3009.88 1810.57,3018.79C1814.24,3023.22 1817.81,3027.73 1821.25,3032.1C1823.94,3035.04 1826.56,3038.01 1829.79,3040.26C1835.99,3045.05 1843.49,3047.99 1851.04,3048.95C1858.59,3050.24 1866.18,3049 1872.82,3046.36C1876.09,3044.86 1879.24,3043.16 1881.98,3040.8L1884.1,3039.12L1886.25,3037C1887.76,3035.68 1888.92,3033.97 1890.31,3032.52C1895.28,3026.08 1899.36,3018.58 1902,3010.07C1904.73,3001.62 1906.32,2992.44 1906.9,2982.98C1907.54,2973.51 1907.08,2963.94 1905.8,2954.09C1903.22,2934.57 1897.82,2915.3 1889.4,2897.41C1885.2,2888.47 1880.29,2879.87 1874.73,2871.73C1869.19,2863.61 1862.98,2855.97 1855.97,2848.32C1842.05,2832.99 1825.67,2817.92 1810,2800.19C1802.25,2791.3 1794.59,2781.68 1787.91,2770.7C1781.32,2759.87 1776.03,2748.15 1772.21,2735.64C1768.38,2723.17 1766.38,2709.6 1767.25,2695.56C1767.92,2681.57 1772.47,2667.03 1779.89,2654.71C1787.35,2642.53 1796.41,2633.46 1804.44,2625.5C1812.51,2617.59 1819.75,2610.57 1824.79,2603.73C1829.77,2596.76 1832.28,2590.99 1833.58,2582.49C1834.89,2574.11 1834.74,2564.14 1834.51,2553L1834.44,2548.75L1834.42,2547.68C1834.42,2547.25 1834.4,2546.53 1834.45,2545.98L1834.72,2542.43C1834.87,2540.08 1835.22,2537.72 1835.9,2535.34C1836.47,2532.96 1837.12,2530.62 1838.19,2528.36C1841.96,2519.2 1848.78,2511.47 1856.81,2506.46C1864.85,2501.4 1874.11,2498.74 1883.59,2498.75C1893.05,2498.73 1902.81,2501.66 1910.75,2507.1C1912.74,2508.45 1914.69,2509.86 1916.33,2511.52L1918.87,2513.97L1920.02,2515.14L1920.65,2515.82C1922.34,2517.65 1924.01,2519.5 1925.78,2521.26C1929.24,2524.85 1932.9,2528.23 1936.61,2531.52C1944.09,2537.96 1951.99,2543.94 1960.1,2548.53C1968.14,2553.19 1976.55,2556.61 1983.67,2557.65C1987.22,2558.19 1990.4,2558.24 1992.87,2557.65C1995.38,2557.1 1997.34,2556.18 1999.33,2554.67C2003.29,2551.84 2007.27,2545.31 2009.97,2537.14C2012.67,2528.9 2014.28,2519.33 2015.18,2509.45L2015.1,2511.47C2014.91,2489.36 2015.41,2466.29 2021.03,2442.35C2023.89,2430.43 2028.18,2418.21 2035.13,2406.61C2041.99,2395.05 2051.88,2384.3 2063.75,2376.78C2075.74,2369.17 2088.7,2365 2100.46,2362.5C2112.3,2359.93 2123.31,2358.7 2133.29,2357.03C2143.32,2355.39 2152.21,2353.48 2159.75,2350.17C2167.46,2346.96 2174.68,2342.38 2181.21,2336.66C2194.27,2325.22 2204.55,2309.39 2211.04,2291.95C2214.32,2283.24 2216.73,2274.14 2218.2,2264.93C2219.67,2255.8 2220.1,2246.45 2219.95,2236.5C2219.46,2216.63 2216.88,2195.93 2213.86,2174.95C2210.89,2153.88 2207.24,2132.65 2205.13,2110C2203.29,2088.44 2201.22,2065.81 2203.68,2041.66C2204.99,2029.56 2207.39,2017.46 2211.97,2005.17C2216.67,1992.95 2223.17,1981.51 2231.83,1971.42C2240.38,1961.32 2251.18,1952.45 2264.13,1946.4C2270.58,1943.35 2277.65,1941.29 2284.86,1940.02C2292.19,1938.86 2299.44,1938.85 2306.2,1939.45C2319.59,1940.84 2331.1,1944.35 2341.18,1947.14C2351.33,1950.05 2360.26,1952.13 2367.46,1952.27C2374.55,1952.21 2379.72,1950.71 2384.75,1946.85C2389.81,1943.12 2394.5,1936.73 2398.2,1929.07C2400.08,1925.26 2401.7,1921.12 2403.08,1916.79C2404.49,1912.42 2405.59,1908.15 2406.69,1903.14C2408.89,1893.26 2410.72,1882.54 2413.54,1871.11C2416.39,1859.74 2420.2,1847.49 2427.08,1835.68C2427.9,1834.21 2428.8,1832.75 2429.77,1831.32C2430.74,1829.87 2431.56,1828.5 2432.85,1826.92C2435.17,1823.77 2437.78,1820.96 2440.52,1818.29C2446.07,1813.1 2452.24,1808.93 2458.69,1805.66C2471.65,1799.29 2485.62,1796.29 2499.77,1796.76C2506.84,1796.96 2513.99,1797.99 2521.02,1800.2C2522.79,1800.66 2524.53,1801.33 2526.26,1802.02C2528,1802.69 2529.8,1803.37 2531.21,1804.14C2534.2,1805.67 2537.24,1807.14 2540.16,1808.8C2551.82,1815.61 2561.86,1824.88 2569.87,1835.14C2577.91,1845.44 2583.98,1856.73 2588.56,1868.26C2597.72,1891.4 2601.12,1915.41 2600.96,1939.18C2600.66,1962.76 2597.23,1984.88 2593.9,2006.21C2590.55,2027.5 2587.27,2047.98 2586.47,2067.78C2586.26,2072.7 2586.21,2077.67 2586.38,2082.4L2586.73,2089.4L2587.53,2096.37C2588.87,2105.6 2590.77,2114.84 2594.01,2123.43C2597.19,2132 2601.09,2140.2 2606.01,2147.34C2610.99,2154.39 2616.78,2160.43 2623.22,2165.1C2629.63,2169.86 2636.95,2172.58 2644.63,2174.27C2646.6,2174.55 2648.51,2175.06 2650.51,2175.26L2656.63,2175.51C2660.71,2175.74 2664.67,2175.3 2668.63,2174.55C2684.46,2171.64 2699.44,2162.32 2710.28,2149.28C2713.07,2146.11 2715.36,2142.54 2717.76,2138.61C2720.34,2134.9 2722.12,2130.76 2724.24,2126.8C2727.77,2118.55 2730.86,2110.07 2732.61,2101.07C2736.27,2083.16 2736.2,2063.94 2733.29,2044.58C2731.94,2034.89 2729.85,2025.16 2727.27,2015.46C2724.79,2005.72 2721.77,1996.09 2718.47,1986.27C2711.69,1966.35 2704.17,1946.34 2697,1925.91C2682.35,1885.19 2669.11,1842.27 2663.45,1797.88C2661.83,1786.77 2661.08,1775.4 2660.79,1763.93C2660.4,1752.48 2661.26,1740.73 2663.02,1729.04C2664.71,1717.33 2668.34,1705.52 2673.66,1694.43C2679.06,1683.37 2686.77,1673.17 2696.23,1665.35C2700.66,1661.7 2707.21,1662.32 2710.87,1666.75C2714.04,1670.59 2713.99,1676.03 2711.03,1679.79L2710.75,1680.14C2699.17,1694.87 2694.42,1713 2693.72,1732.29C2693.17,1751.62 2695.86,1771.7 2700.11,1791.74C2702.08,1801.78 2704.69,1811.83 2707.35,1821.87C2710.05,1831.98 2712.74,1841.97 2715.93,1851.81C2722.3,1871.56 2729.3,1891.36 2736.94,1911.26C2744.55,1931.17 2752.35,1951.29 2759.66,1971.96C2767.13,1993.02 2773.46,2015.15 2776.68,2038.32C2780.06,2061.38 2780.38,2085.8 2775.37,2110C2772.99,2122.11 2768.73,2133.95 2763.55,2145.3C2760.63,2150.83 2757.94,2156.5 2754.4,2161.63C2751.14,2166.82 2747.48,2172.24 2743.15,2177.13C2726.34,2196.85 2702.71,2211.6 2676.11,2216.21C2669.52,2217.37 2662.71,2218.02 2656.06,2217.71L2646.1,2217.19C2642.77,2216.83 2639.42,2216.09 2636.1,2215.5C2622.9,2212.65 2609.78,2207.31 2598.88,2199.23C2587.94,2191.26 2578.87,2181.45 2571.57,2170.89C2564.36,2160.26 2559.06,2148.89 2554.87,2137.31C2550.67,2125.72 2548.17,2113.8 2546.45,2101.81L2545.43,2092.78L2544.95,2083.69C2544.75,2077.69 2544.82,2071.91 2545.06,2066.1C2547.13,2019.82 2559.2,1977.95 2559.52,1938.79C2559.7,1919.68 2556.78,1900.37 2550.04,1883.53C2543.38,1866.67 2532.91,1852.55 2519.09,1844.49C2517.34,1843.51 2515.51,1842.68 2513.75,1841.72C2512.81,1841.17 2512.07,1840.97 2511.3,1840.66C2510.54,1840.36 2509.79,1840.03 2508.94,1839.84C2505.73,1838.79 2502.14,1838.28 2498.49,1838.18C2491.18,1837.87 2483.53,1839.62 2477.23,1842.72C2474.12,1844.32 2471.34,1846.24 2469.02,1848.37C2467.93,1849.48 2466.86,1850.58 2466.01,1851.78C2465.55,1852.25 2465.01,1853.19 2464.48,1853.97C2463.93,1854.75 2463.41,1855.58 2462.94,1856.46C2458.94,1863.24 2456.11,1871.67 2453.76,1881.09C2451.41,1890.52 2449.6,1900.98 2447.16,1912.08C2445.96,1917.56 2444.41,1923.7 2442.51,1929.55C2440.62,1935.45 2438.33,1941.34 2435.48,1947.18C2429.82,1958.74 2422,1970.58 2409.82,1979.85C2403.81,1984.43 2396.76,1988.19 2389.29,1990.55C2381.82,1992.82 2374.16,1993.74 2366.94,1993.71C2352.6,1993.36 2340.53,1989.96 2330.06,1987.06C2319.48,1984.06 2310.26,1981.51 2302.24,1980.71C2298.31,1980.38 2294.75,1980.43 2291.46,1980.93C2288.12,1981.59 2284.77,1982.45 2281.51,1984.03C2274.99,1987.08 2268.66,1992 2263.38,1998.3C2258.01,2004.48 2253.74,2012.01 2250.74,2019.8C2247.8,2027.66 2245.87,2036.76 2244.89,2046.01C2242.93,2064.68 2244.54,2085.13 2246.4,2106.3C2248.26,2126.44 2251.84,2147.59 2254.88,2169.06C2257.95,2190.58 2260.8,2212.58 2261.38,2235.69C2261.58,2247.2 2261.08,2259.39 2259.12,2271.47C2257.2,2283.47 2254.09,2295.23 2249.8,2306.62C2241.26,2329.33 2227.78,2350.87 2208.52,2367.83C2198.91,2376.26 2187.81,2383.39 2175.69,2388.43C2163.47,2393.66 2151.13,2396.09 2140,2397.92C2128.79,2399.76 2118.43,2400.98 2109.27,2403C2100.06,2404.94 2092.36,2407.75 2086.14,2411.66C2073.59,2419.49 2065.59,2433.99 2061.33,2452.01C2057.04,2469.98 2056.3,2490.23 2056.54,2510.99L2056.54,2511.12C2056.55,2511.75 2056.52,2512.4 2056.47,2513.02C2055.34,2525.11 2053.45,2537.47 2049.28,2550.24C2047.07,2556.64 2044.46,2563.12 2040.44,2569.55C2036.65,2575.95 2031.38,2582.34 2024.56,2587.54C2017.83,2592.77 2009.52,2596.56 2001.22,2598.25C1992.87,2600.02 1984.82,2599.73 1977.49,2598.63C1962.73,2596.32 1950.52,2590.75 1939.47,2584.47C1928.37,2578.15 1918.59,2570.69 1909.36,2562.75C1904.81,2558.71 1900.36,2554.59 1896.15,2550.24C1894.01,2548.1 1891.97,2545.86 1889.92,2543.63L1889.15,2542.79C1888.92,2542.55 1888.94,2542.62 1888.82,2542.52C1888.66,2542.39 1888.51,2542.25 1888.36,2542.1C1888.12,2541.72 1887.77,2541.59 1887.48,2541.4C1886.32,2540.61 1885.07,2540.21 1883.5,2540.19C1881.96,2540.17 1880.21,2540.68 1878.93,2541.5C1877.62,2542.34 1876.85,2543.3 1876.42,2544.35C1876.21,2544.56 1876.21,2544.9 1876.15,2545.22C1875.99,2545.48 1875.96,2545.85 1875.98,2546.26C1875.97,2546.46 1875.94,2546.65 1875.89,2546.84C1875.85,2546.98 1875.86,2546.94 1875.86,2547.21L1875.88,2548.21L1875.94,2552.24C1876.11,2563.14 1876.57,2575.37 1874.54,2588.85C1873.48,2595.59 1871.72,2602.63 1868.88,2609.54C1865.95,2616.4 1862.26,2622.63 1858.25,2628.18C1850.15,2639.12 1841.35,2647.44 1833.76,2655.04C1826.14,2662.6 1819.72,2669.56 1815.7,2676.32C1807.83,2689.19 1807.21,2706.08 1812.61,2723.4C1815.28,2731.99 1819.23,2740.52 1824.21,2748.49C1829.1,2756.33 1835.27,2764.03 1842.12,2771.69C1855.82,2786.96 1872.23,2801.62 1888.16,2818.85C1896.08,2827.44 1903.89,2836.93 1910.81,2847.04C1917.73,2857.12 1923.82,2867.74 1929.04,2878.76C1939.41,2900.83 1946.4,2924.53 1949.15,2948.84C1951.97,2973.05 1951.06,2998.83 1942.36,3023.79C1938.1,3036.25 1931.44,3048.45 1922.56,3059.19C1920.17,3061.75 1917.99,3064.48 1915.34,3066.81L1911.48,3070.39L1907.08,3073.81C1901.17,3078.34 1894.42,3081.76 1887.5,3084.44C1873.49,3089.43 1858.32,3090.72 1844.15,3087.78C1829.96,3084.92 1816.71,3078.38 1806.03,3068.92C1800.56,3064.33 1796,3058.79 1791.98,3053C1788.99,3048.4 1786.1,3043.95 1783.11,3039.58C1777.11,3030.9 1771.05,3022.59 1764.44,3015.19C1751.3,3000.22 1735.63,2989.75 1716.22,2985.95L1715.97,2985.9C1710.33,2984.8 1706.66,2979.33 1707.76,2973.69C1708.73,2968.78 1713.02,2965.35 1717.84,2965.29Z" style="fill:rgb(108,0,0);fill-rule:nonzero;"/>
                    </g>
                    <g transform="matrix(0.0930454,0,0,0.0930454,268.709,81.1889)">
                        <path d="M2024.88,1234.41C1998.26,1325.94 1889.27,1374.72 1781.44,1343.36C1673.61,1312 1607.78,1212.39 1634.39,1120.86C1661.01,1029.33 1769.99,980.554 1877.82,1011.91C1985.65,1043.26 2051.49,1142.88 2024.88,1234.41Z" style="fill:rgb(253,0,23);fill-rule:nonzero;"/>
                    </g>
                    <g transform="matrix(0.0930454,0,0,0.0930454,268.709,81.1889)">
                        <path d="M1647.11,1173.67C1645.76,1157.79 1647.21,1141.71 1651.8,1125.92C1655.53,1113.11 1661.1,1101.24 1668.24,1090.44C1675.95,1091.81 1683.71,1093.23 1691.49,1094.7C1672.12,1113.08 1657.6,1135.92 1649.93,1162.3C1648.83,1166.08 1647.89,1169.87 1647.11,1173.67Z" style="fill:rgb(255,149,154);fill-rule:nonzero;"/>
                    </g>
                    <g transform="matrix(0.0930454,0,0,0.0930454,268.709,81.1889)">
                        <path d="M1851.27,1423.58C1829.75,1423.58 1807.56,1420.52 1785.41,1414.08C1700.14,1389.25 1641.08,1321.78 1633.33,1249.34C1660.92,1300.07 1711.68,1341.96 1776.38,1360.77C1800.11,1367.67 1823.91,1370.94 1847.04,1370.94C1922.54,1370.94 1990.81,1336.03 2025.36,1278.3C2028.14,1279.34 2030.89,1280.39 2033.66,1281.44C2032.71,1289.36 2031.1,1297.27 2028.82,1305.12C2007.66,1377.83 1934.52,1423.58 1851.27,1423.58Z" style="fill:rgb(214,134,0);fill-rule:nonzero;"/>
                    </g>
                    <g transform="matrix(0.0930454,0,0,0.0930454,268.709,81.1889)">
                        <path d="M2033.66,1281.44C2030.89,1280.39 2028.14,1279.34 2025.36,1278.3C2028.82,1272.53 2031.93,1266.52 2034.69,1260.31C2034.84,1267.34 2034.51,1274.4 2033.66,1281.44Z" style="fill:rgb(183,93,0);fill-rule:nonzero;"/>
                    </g>
                    <g transform="matrix(0.0930454,0,0,0.0930454,268.709,81.1889)">
                        <path d="M1847.3,1334.72C1827.45,1334.72 1806.95,1331.9 1786.51,1325.95C1708.72,1303.33 1654.61,1242.18 1647.44,1177.04C1673.47,1220.76 1718.87,1256.65 1776.12,1273.29C1798.28,1279.73 1820.49,1282.79 1842.01,1282.79C1917.53,1282.79 1984.71,1245.17 2012.33,1183.87C2013.36,1199.01 2011.84,1214.31 2007.47,1229.35C1988.64,1294.08 1922.63,1334.72 1847.3,1334.72Z" style="fill:rgb(210,0,14);fill-rule:nonzero;"/>
                    </g>
                    <g transform="matrix(0.0930454,0,0,0.0930454,268.709,81.1889)">
                        <path d="M2024.88,1234.41L2024.93,1234.41L2024.88,1234.41ZM1811.97,1020.55C1736.64,1020.55 1670.63,1061.19 1651.8,1125.92C1628.02,1207.7 1688.45,1297.44 1786.51,1325.95C1884.56,1354.47 1983.68,1311.13 2007.47,1229.35C2031.25,1147.56 1970.82,1057.83 1872.76,1029.32C1852.32,1023.37 1831.82,1020.55 1811.97,1020.55ZM1847.04,1370.94C1823.91,1370.94 1800.11,1367.67 1776.38,1360.77C1659.12,1326.67 1587.62,1216.78 1616.98,1115.8C1646.35,1014.82 1765.62,960.4 1882.89,994.499C2000.14,1028.59 2071.65,1138.49 2042.29,1239.47C2018.86,1320.02 1938.22,1370.94 1847.04,1370.94Z" style="fill:rgb(108,0,0);fill-rule:nonzero;"/>
                    </g>
                    <g transform="matrix(0.0930454,0,0,0.0930454,268.709,81.1889)">
                        <path d="M1491.05,2388.26C1464.44,2479.79 1355.45,2528.57 1247.62,2497.21C1139.79,2465.86 1073.95,2366.24 1100.57,2274.71C1127.18,2183.18 1236.17,2134.4 1344,2165.76C1451.83,2197.11 1517.67,2296.73 1491.05,2388.26Z" style="fill:rgb(253,0,23);fill-rule:nonzero;"/>
                    </g>
                    <g transform="matrix(0.0930454,0,0,0.0930454,268.709,81.1889)">
                        <path d="M1325.99,2583.33C1309.85,2583.33 1293.35,2581.61 1276.76,2578.04C1269.38,2552.3 1262.52,2526.08 1256.22,2499.54C1275.51,2504.39 1294.77,2506.71 1313.51,2506.71C1320.68,2506.71 1327.77,2506.37 1334.76,2505.71C1401.91,2499.33 1459.68,2462.76 1484.37,2406.63C1486.97,2400.72 1489.21,2394.59 1491.05,2388.26C1493.71,2379.13 1495.44,2369.92 1496.31,2360.71C1510.3,2393.75 1513.66,2429.88 1503.47,2464.84C1482.36,2537.58 1409.21,2583.33 1325.99,2583.33Z" style="fill:rgb(214,134,0);fill-rule:nonzero;"/>
                    </g>
                    <g transform="matrix(0.0930454,0,0,0.0930454,268.709,81.1889)">
                        <path d="M1276.76,2578.04C1271.2,2576.84 1265.63,2575.43 1260.06,2573.81C1250.26,2570.95 1240.8,2567.53 1231.74,2563.61C1224.17,2537.24 1217.15,2510.41 1210.68,2483.1C1222.33,2488.7 1234.67,2493.45 1247.62,2497.21C1250.49,2498.05 1253.35,2498.82 1256.22,2499.54C1262.52,2526.08 1269.38,2552.3 1276.76,2578.04Z" style="fill:rgb(213,161,103);fill-rule:nonzero;"/>
                    </g>
                    <g transform="matrix(0.0930454,0,0,0.0930454,268.709,81.1889)">
                        <path d="M1231.74,2563.61C1222.54,2559.63 1213.74,2555.12 1205.39,2550.14C1198.06,2523.45 1191.35,2496.36 1185.21,2468.81C1193.27,2474.03 1201.77,2478.81 1210.68,2483.1C1217.15,2510.41 1224.17,2537.24 1231.74,2563.61Z" style="fill:rgb(108,0,0);fill-rule:nonzero;"/>
                    </g>
                    <g transform="matrix(0.0930454,0,0,0.0930454,268.709,81.1889)">
                        <path d="M1313.51,2506.71C1294.77,2506.71 1275.51,2504.39 1256.22,2499.54C1253.35,2498.82 1250.49,2498.05 1247.62,2497.21C1234.67,2493.45 1222.33,2488.7 1210.68,2483.1C1201.77,2478.81 1193.27,2474.03 1185.21,2468.81C1185.2,2468.8 1185.2,2468.79 1185.2,2468.78C1187.3,2470.13 1189.43,2471.47 1191.58,2472.76C1208.54,2483.01 1227.34,2491.31 1247.63,2497.19C1269.8,2503.64 1292.01,2506.71 1313.55,2506.71L1313.6,2506.71C1320.74,2506.71 1327.8,2506.37 1334.76,2505.71C1327.77,2506.37 1320.68,2506.71 1313.51,2506.71ZM1484.37,2406.63C1486.82,2401.06 1488.95,2395.29 1490.72,2389.34L1490.73,2389.33C1490.83,2388.98 1490.93,2388.63 1491.04,2388.28C1492.63,2382.82 1493.89,2377.34 1494.82,2371.86C1495.46,2368.14 1495.95,2364.41 1496.3,2360.68C1496.3,2360.69 1496.3,2360.7 1496.31,2360.71C1495.44,2369.92 1493.71,2379.13 1491.05,2388.26C1489.21,2394.59 1486.97,2400.72 1484.37,2406.63Z" style="fill:rgb(210,0,14);fill-rule:nonzero;"/>
                    </g>
                    <g transform="matrix(0.0930454,0,0,0.0930454,268.709,81.1889)">
                        <path d="M1336.39,2505.55C1402.52,2498.75 1459.33,2462.64 1484.03,2407.41C1459.35,2462.65 1402.53,2498.76 1336.39,2505.55ZM1489.98,2300.81C1489.97,2300.79 1489.96,2300.77 1489.96,2300.75C1489.96,2300.77 1489.97,2300.79 1489.98,2300.81ZM1489.9,2300.56C1489.88,2300.49 1489.86,2300.42 1489.84,2300.35C1489.86,2300.42 1489.88,2300.49 1489.9,2300.56ZM1489.83,2300.32C1485.54,2286.42 1479.38,2272.93 1471.55,2260.13C1467.07,2252.78 1462.04,2245.67 1456.49,2238.84L1456.49,2238.82C1471.72,2257.59 1483.08,2278.46 1489.83,2300.32Z" style="fill:rgb(214,134,0);fill-rule:nonzero;"/>
                    </g>
                    <g transform="matrix(0.0930454,0,0,0.0930454,268.709,81.1889)">
                        <path d="M1313.6,2506.71L1313.55,2506.71C1292.02,2506.71 1269.79,2503.64 1247.63,2497.19C1227.35,2491.29 1208.56,2482.98 1191.58,2472.76C1189.42,2471.46 1187.29,2470.12 1185.2,2468.76L1185.2,2468.78C1148.55,2445.03 1121.09,2412.2 1106.49,2375.85C1105.49,2366.69 1105.3,2357.46 1105.98,2348.23C1132.1,2375.95 1167.25,2397.99 1208.54,2409.98C1230.71,2416.44 1252.95,2419.5 1274.49,2419.5C1357.74,2419.5 1430.84,2373.76 1452,2301.02C1454.95,2290.93 1456.75,2280.74 1457.5,2270.55C1474.3,2288.39 1487.38,2308.6 1495.98,2330.04C1493.31,2305.69 1484.86,2281.91 1471.55,2260.13C1479.38,2272.93 1485.54,2286.42 1489.83,2300.32C1489.83,2300.33 1489.83,2300.34 1489.84,2300.35C1489.86,2300.42 1489.88,2300.49 1489.9,2300.56C1489.92,2300.62 1489.94,2300.69 1489.96,2300.75C1489.96,2300.77 1489.97,2300.79 1489.98,2300.81C1495.91,2320.25 1498.19,2340.48 1496.3,2360.68C1496.29,2360.66 1496.28,2360.63 1496.26,2360.61C1495.94,2364.36 1495.45,2368.11 1494.82,2371.86C1493.88,2377.35 1492.62,2382.83 1491.04,2388.28C1490.93,2388.63 1490.83,2388.98 1490.73,2389.33L1490.72,2389.34C1488.87,2395.57 1486.62,2401.6 1484.03,2407.41C1459.33,2462.64 1402.52,2498.75 1336.39,2505.55C1328.9,2506.32 1321.3,2506.71 1313.6,2506.71Z" style="fill:rgb(210,0,14);fill-rule:nonzero;"/>
                    </g>
                    <g transform="matrix(0.0930454,0,0,0.0930454,268.709,81.1889)">
                        <path d="M1313.56,2506.71L1313.6,2506.71L1313.56,2506.71ZM1313.55,2506.71C1292.01,2506.71 1269.8,2503.64 1247.63,2497.19C1269.79,2503.64 1292.02,2506.71 1313.55,2506.71ZM1191.58,2472.76C1189.43,2471.47 1187.3,2470.13 1185.2,2468.78L1185.2,2468.76C1187.29,2470.12 1189.42,2471.46 1191.58,2472.76ZM1490.72,2389.34L1490.73,2389.33L1490.72,2389.34ZM1494.82,2371.86C1495.45,2368.11 1495.94,2364.36 1496.26,2360.61C1496.28,2360.63 1496.29,2360.66 1496.3,2360.68C1495.95,2364.41 1495.46,2368.14 1494.82,2371.86Z" style="fill:rgb(179,0,7);fill-rule:nonzero;"/>
                    </g>
                    <g transform="matrix(0.0930454,0,0,0.0930454,268.709,81.1889)">
                        <path d="M1106.49,2375.89C1093.52,2343.62 1090.69,2308.6 1100.56,2274.71C1100.63,2274.5 1100.69,2274.29 1100.75,2274.08C1100.69,2274.29 1100.63,2274.5 1100.57,2274.71C1090.71,2308.62 1093.54,2343.64 1106.49,2375.89Z" style="fill:rgb(130,249,254);fill-rule:nonzero;"/>
                    </g>
                    <g transform="matrix(0.0930454,0,0,0.0930454,268.709,81.1889)">
                        <path d="M1456.49,2238.86C1429.64,2205.8 1390.77,2179.36 1344,2165.76C1327.97,2161.1 1311.93,2158.21 1296.13,2156.97C1311.92,2158.21 1327.96,2161.1 1343.97,2165.75C1390.76,2179.34 1429.64,2205.78 1456.49,2238.84L1456.49,2238.86Z" style="fill:rgb(255,231,147);fill-rule:nonzero;"/>
                    </g>
                    <g transform="matrix(0.0930454,0,0,0.0930454,268.709,81.1889)">
                        <path d="M1106.49,2375.89C1093.54,2343.64 1090.71,2308.62 1100.57,2274.71C1100.63,2274.5 1100.69,2274.29 1100.75,2274.08C1122.15,2201.73 1195.11,2156.26 1278.12,2156.26C1284.08,2156.26 1290.08,2156.49 1296.13,2156.97C1311.93,2158.21 1327.97,2161.1 1344,2165.76C1390.77,2179.36 1429.64,2205.8 1456.49,2238.86C1457.91,2249.35 1458.28,2259.95 1457.5,2270.55C1431.36,2242.8 1396.2,2220.77 1354.89,2208.74C1332.75,2202.31 1310.54,2199.25 1289.03,2199.25C1205.77,2199.25 1132.63,2244.99 1111.48,2317.71C1108.53,2327.83 1106.73,2338.03 1105.98,2348.23C1102.52,2344.55 1099.21,2340.78 1096.08,2336.91C1097.89,2350.16 1101.41,2363.22 1106.49,2375.85L1106.49,2375.89Z" style="fill:rgb(255,161,166);fill-rule:nonzero;"/>
                    </g>
                    <g transform="matrix(0.0930454,0,0,0.0930454,268.709,81.1889)">
                        <path d="M1106.49,2375.85C1101.41,2363.22 1097.89,2350.16 1096.08,2336.91C1099.21,2340.78 1102.52,2344.55 1105.98,2348.23C1105.3,2357.46 1105.49,2366.69 1106.49,2375.85Z" style="fill:rgb(241,158,162);fill-rule:nonzero;"/>
                    </g>
                    <g transform="matrix(0.0930454,0,0,0.0930454,268.709,81.1889)">
                        <path d="M1471.55,2260.13C1467.07,2252.79 1462.04,2245.68 1456.49,2238.86L1456.49,2238.84C1462.04,2245.67 1467.07,2252.78 1471.55,2260.13Z" style="fill:rgb(239,207,149);fill-rule:nonzero;"/>
                    </g>
                    <g transform="matrix(0.0930454,0,0,0.0930454,268.709,81.1889)">
                        <path d="M1495.98,2330.04C1487.38,2308.6 1474.3,2288.39 1457.5,2270.55C1458.28,2259.95 1457.91,2249.35 1456.49,2238.86C1462.04,2245.68 1467.07,2252.79 1471.55,2260.13C1484.86,2281.91 1493.31,2305.69 1495.98,2330.04Z" style="fill:rgb(241,158,162);fill-rule:nonzero;"/>
                    </g>
                    <g transform="matrix(0.0930454,0,0,0.0930454,268.709,81.1889)">
                        <path d="M1277.94,2174.34C1250.35,2174.34 1223.53,2179.83 1199.23,2190.7C1158.19,2209.07 1129.34,2240.7 1117.98,2279.77C1106.62,2318.84 1114.01,2361.02 1138.8,2398.53C1164.21,2436.97 1204.65,2465.83 1252.68,2479.8C1300.71,2493.76 1350.33,2491.09 1392.38,2472.27C1433.42,2453.9 1462.28,2422.27 1473.64,2383.2C1485,2344.13 1477.61,2301.95 1452.81,2264.44C1427.41,2226 1386.96,2197.14 1338.94,2183.17C1318.66,2177.27 1298.09,2174.34 1277.94,2174.34ZM1313.67,2524.88C1290.11,2524.88 1266.14,2521.48 1242.55,2514.62C1186.29,2498.26 1138.69,2464.13 1108.55,2418.52C1077.79,2371.98 1068.78,2319.11 1083.16,2269.65C1097.54,2220.19 1133.5,2180.4 1184.42,2157.6C1234.31,2135.28 1292.78,2131.99 1349.06,2148.35C1405.33,2164.71 1452.93,2198.84 1483.07,2244.45C1513.82,2290.99 1522.84,2343.86 1508.46,2393.32C1494.08,2442.79 1458.12,2482.58 1407.2,2505.37C1378.21,2518.34 1346.33,2524.88 1313.67,2524.88Z" style="fill:rgb(108,0,0);fill-rule:nonzero;"/>
                    </g>
                    <g transform="matrix(0.0930454,0,0,0.0930454,268.709,81.1889)">
                        <path d="M2317.26,1669.07C2295.28,1744.66 2205.27,1784.94 2116.22,1759.05C2027.17,1733.15 1972.8,1650.88 1994.78,1575.3C2016.76,1499.71 2106.77,1459.42 2195.82,1485.32C2284.87,1511.21 2339.24,1593.48 2317.26,1669.07Z" style="fill:rgb(253,0,23);fill-rule:nonzero;"/>
                    </g>
                    <g transform="matrix(0.0930454,0,0,0.0930454,268.709,81.1889)">
                        <path d="M2171.96,1854.53C2154.18,1854.53 2135.84,1852.01 2117.54,1846.69C2028.51,1820.76 1974.12,1738.48 1996.13,1662.94C1996.86,1660.51 1997.58,1658.13 1998.49,1655.82C2015.04,1699.91 2054.44,1738.12 2107.23,1756.2C2107.29,1756.22 2107.35,1756.24 2107.41,1756.26C2107.44,1756.27 2107.47,1756.28 2107.49,1756.29C2110.28,1757.24 2113.12,1758.14 2115.99,1758.98C2116.07,1759 2116.14,1759.02 2116.22,1759.05C2116.32,1759.07 2116.41,1759.1 2116.5,1759.13C2120.27,1760.22 2124.04,1761.19 2127.8,1762.04C2142.23,1765.32 2156.61,1766.89 2170.64,1766.89C2205.85,1766.89 2238.87,1756.99 2265.06,1739.25C2287.9,1723.79 2305.55,1702.37 2314.89,1676.38C2324.59,1702.12 2326.43,1729.8 2318.58,1756.68C2301.13,1816.75 2240.73,1854.53 2171.96,1854.53Z" style="fill:rgb(214,134,0);fill-rule:nonzero;"/>
                    </g>
                    <g transform="matrix(0.0930454,0,0,0.0930454,268.709,81.1889)">
                        <path d="M2170.64,1766.89C2156.61,1766.89 2142.23,1765.32 2127.8,1762.04C2142.23,1765.32 2156.59,1766.89 2170.62,1766.89C2174.75,1766.89 2178.83,1766.75 2182.89,1766.48C2183.14,1766.47 2183.39,1766.45 2183.64,1766.43L2183.66,1766.43C2183.78,1766.42 2183.89,1766.42 2184.01,1766.41C2184.03,1766.41 2184.03,1766.41 2184.05,1766.4C2184.16,1766.4 2184.27,1766.39 2184.38,1766.38L2184.44,1766.38C2184.55,1766.37 2184.65,1766.36 2184.76,1766.35L2184.83,1766.35C2184.93,1766.34 2185.03,1766.33 2185.13,1766.32L2185.21,1766.32C2185.31,1766.31 2185.42,1766.3 2185.52,1766.29L2185.6,1766.29C2185.7,1766.28 2185.79,1766.27 2185.89,1766.26C2185.92,1766.26 2185.96,1766.26 2185.99,1766.25C2186.08,1766.25 2186.18,1766.24 2186.27,1766.23C2186.31,1766.23 2186.34,1766.22 2186.37,1766.22C2186.47,1766.21 2186.56,1766.21 2186.66,1766.2C2186.69,1766.19 2186.72,1766.19 2186.76,1766.19C2186.85,1766.18 2186.94,1766.17 2187.03,1766.16C2187.07,1766.16 2187.11,1766.16 2187.15,1766.15C2187.24,1766.15 2187.33,1766.14 2187.42,1766.13C2187.45,1766.13 2187.5,1766.12 2187.53,1766.12C2187.63,1766.11 2187.71,1766.1 2187.8,1766.09C2187.84,1766.09 2187.87,1766.09 2187.9,1766.08C2187.99,1766.08 2188.09,1766.07 2188.18,1766.06C2188.22,1766.05 2188.26,1766.05 2188.29,1766.05C2188.38,1766.04 2188.47,1766.03 2188.56,1766.02C2188.61,1766.02 2188.65,1766.01 2188.69,1766.01C2188.78,1766 2188.86,1765.99 2188.94,1765.98C2189,1765.98 2189.06,1765.97 2189.11,1765.97C2189.23,1765.96 2189.34,1765.94 2189.46,1765.93C2189.54,1765.92 2189.62,1765.92 2189.7,1765.91C2189.76,1765.9 2189.82,1765.89 2189.88,1765.89C2189.95,1765.88 2190.02,1765.87 2190.09,1765.87C2190.13,1765.86 2190.19,1765.86 2190.23,1765.85C2190.31,1765.84 2190.4,1765.83 2190.48,1765.82C2190.52,1765.82 2190.57,1765.81 2190.62,1765.81C2190.7,1765.8 2190.78,1765.79 2190.86,1765.78C2190.91,1765.78 2190.96,1765.77 2191,1765.77C2191.08,1765.76 2191.17,1765.75 2191.25,1765.74C2191.29,1765.73 2191.34,1765.73 2191.39,1765.72C2191.47,1765.71 2191.56,1765.7 2191.64,1765.7C2191.67,1765.69 2191.72,1765.69 2191.76,1765.68C2191.85,1765.67 2191.93,1765.66 2192.02,1765.65C2192.06,1765.65 2192.1,1765.64 2192.14,1765.64C2192.23,1765.63 2192.32,1765.62 2192.41,1765.61C2192.45,1765.6 2192.49,1765.6 2192.53,1765.59C2192.62,1765.58 2192.7,1765.57 2192.79,1765.56C2192.83,1765.55 2192.88,1765.55 2192.92,1765.54C2193,1765.53 2193.09,1765.52 2193.18,1765.51C2193.22,1765.51 2193.25,1765.5 2193.29,1765.5C2193.39,1765.49 2193.47,1765.48 2193.57,1765.46C2193.6,1765.46 2193.64,1765.45 2193.67,1765.45C2193.77,1765.44 2193.86,1765.43 2193.96,1765.41C2193.99,1765.41 2194.02,1765.41 2194.05,1765.4C2194.15,1765.39 2194.24,1765.38 2194.34,1765.36C2194.37,1765.36 2194.41,1765.36 2194.44,1765.35C2194.54,1765.34 2194.64,1765.33 2194.74,1765.31C2194.76,1765.31 2194.79,1765.31 2194.82,1765.3C2194.92,1765.29 2195.02,1765.27 2195.13,1765.26C2195.15,1765.26 2195.17,1765.25 2195.2,1765.25C2195.3,1765.24 2195.41,1765.22 2195.52,1765.21C2195.54,1765.21 2195.56,1765.2 2195.58,1765.2C2195.69,1765.18 2195.8,1765.17 2195.9,1765.15L2195.97,1765.15C2196.08,1765.13 2196.2,1765.11 2196.31,1765.1C2196.32,1765.1 2196.33,1765.09 2196.34,1765.09C2196.47,1765.08 2196.59,1765.06 2196.71,1765.04L2196.72,1765.04C2201.5,1764.35 2206.19,1763.48 2210.82,1762.43L2210.84,1762.43C2210.95,1762.4 2211.07,1762.37 2211.19,1762.35C2211.2,1762.34 2211.2,1762.34 2211.22,1762.34C2211.33,1762.31 2211.44,1762.29 2211.56,1762.26C2211.57,1762.26 2211.58,1762.26 2211.59,1762.25C2211.71,1762.23 2211.81,1762.2 2211.93,1762.17C2211.94,1762.17 2211.95,1762.17 2211.97,1762.16C2212.08,1762.14 2212.19,1762.11 2212.3,1762.09C2212.32,1762.08 2212.33,1762.08 2212.34,1762.08C2212.45,1762.05 2212.56,1762.03 2212.67,1762C2212.68,1762 2212.7,1761.99 2212.72,1761.99C2212.82,1761.96 2212.93,1761.94 2213.04,1761.91C2213.06,1761.91 2213.07,1761.9 2213.09,1761.9C2213.19,1761.87 2213.3,1761.85 2213.4,1761.82C2213.42,1761.82 2213.44,1761.81 2213.46,1761.81C2213.57,1761.78 2213.67,1761.76 2213.77,1761.73C2213.8,1761.73 2213.81,1761.72 2213.83,1761.72C2213.93,1761.69 2214.03,1761.67 2214.13,1761.64C2214.15,1761.64 2214.19,1761.63 2214.21,1761.62C2214.31,1761.6 2214.4,1761.58 2214.5,1761.55C2214.52,1761.55 2214.55,1761.54 2214.58,1761.53C2214.67,1761.51 2214.77,1761.48 2214.86,1761.46C2214.89,1761.45 2214.91,1761.45 2214.94,1761.44C2215.05,1761.41 2215.15,1761.39 2215.26,1761.36C2215.27,1761.36 2215.29,1761.35 2215.31,1761.35C2215.41,1761.32 2215.51,1761.29 2215.61,1761.27C2215.63,1761.26 2215.65,1761.26 2215.68,1761.25C2215.79,1761.22 2215.89,1761.2 2216,1761.17C2216.02,1761.16 2216.03,1761.16 2216.04,1761.16C2216.16,1761.13 2216.27,1761.1 2216.39,1761.07C2216.4,1761.06 2216.42,1761.06 2216.43,1761.05C2216.55,1761.02 2216.66,1760.99 2216.77,1760.96C2216.84,1760.95 2216.9,1760.93 2216.97,1760.91C2217.02,1760.9 2217.07,1760.88 2217.13,1760.87C2217.21,1760.85 2217.29,1760.83 2217.37,1760.81C2217.41,1760.79 2217.45,1760.78 2217.48,1760.77C2217.57,1760.75 2217.66,1760.73 2217.75,1760.7C2217.77,1760.7 2217.81,1760.69 2217.84,1760.68C2217.92,1760.66 2218.01,1760.63 2218.1,1760.61C2218.13,1760.6 2218.17,1760.59 2218.2,1760.58C2218.29,1760.55 2218.39,1760.53 2218.48,1760.5C2218.5,1760.5 2218.52,1760.49 2218.55,1760.48C2218.64,1760.46 2218.74,1760.43 2218.84,1760.4C2218.86,1760.4 2218.88,1760.39 2218.9,1760.39C2219.01,1760.36 2219.1,1760.33 2219.21,1760.3C2219.22,1760.29 2219.23,1760.29 2219.25,1760.29C2219.36,1760.26 2219.46,1760.23 2219.57,1760.2C2219.58,1760.19 2219.59,1760.19 2219.6,1760.19C2236.15,1755.49 2251.51,1748.42 2265.06,1739.25C2238.87,1756.99 2205.85,1766.89 2170.64,1766.89ZM2107.49,1756.29C2107.47,1756.28 2107.44,1756.27 2107.41,1756.26C2107.44,1756.27 2107.46,1756.28 2107.49,1756.29ZM2107.23,1756.2C2054.44,1738.12 2015.04,1699.91 1998.49,1655.82C1998.5,1655.81 1998.5,1655.8 1998.5,1655.79C2011.3,1689.87 2037.74,1720.45 2073.47,1740.94C2073.49,1740.95 2073.52,1740.96 2073.54,1740.98C2073.58,1741 2073.62,1741.02 2073.66,1741.04C2084.09,1747.01 2095.32,1752.12 2107.23,1756.2Z" style="fill:rgb(210,0,14);fill-rule:nonzero;"/>
                    </g>
                    <g transform="matrix(0.0930454,0,0,0.0930454,268.709,81.1889)">
                        <path d="M2125.29,1761.46C2122.36,1760.75 2119.43,1759.98 2116.5,1759.13C2116.41,1759.1 2116.31,1759.07 2116.22,1759.05C2116.14,1759.02 2116.07,1759 2115.99,1758.98C2115.21,1758.75 2114.42,1758.51 2113.64,1758.28C2114.5,1758.54 2115.36,1758.79 2116.22,1759.05C2119.24,1759.92 2122.27,1760.73 2125.29,1761.46ZM2113.6,1758.27C2113.56,1758.25 2113.52,1758.24 2113.48,1758.23C2113.52,1758.24 2113.56,1758.25 2113.6,1758.27ZM2314.89,1676.38L2314.89,1676.37C2315.75,1673.97 2316.54,1671.54 2317.26,1669.07C2318.1,1666.19 2318.82,1663.3 2319.44,1660.41C2318.82,1663.31 2318.1,1666.2 2317.26,1669.09C2316.54,1671.55 2315.75,1673.99 2314.89,1676.38ZM2319.44,1660.4C2319.45,1660.37 2319.45,1660.35 2319.46,1660.32C2319.45,1660.35 2319.45,1660.37 2319.44,1660.4Z" style="fill:rgb(214,134,0);fill-rule:nonzero;"/>
                    </g>
                    <g transform="matrix(0.0930454,0,0,0.0930454,268.709,81.1889)">
                        <path d="M2170.62,1766.89C2155.78,1766.89 2140.56,1765.13 2125.29,1761.46C2122.27,1760.73 2119.24,1759.92 2116.22,1759.05C2115.36,1758.79 2114.5,1758.54 2113.64,1758.28C2113.62,1758.27 2113.62,1758.27 2113.6,1758.27C2113.56,1758.25 2113.52,1758.24 2113.48,1758.23C2099.23,1753.86 2085.9,1748.04 2073.66,1741.04C2073.61,1741.02 2073.58,1741 2073.54,1740.98C2073.52,1740.96 2073.49,1740.95 2073.47,1740.94C2037.72,1720.43 2011.28,1689.8 1998.54,1655.7C1998.53,1655.73 1998.52,1655.76 1998.5,1655.79C1995.94,1648.95 1993.92,1641.97 1992.49,1634.91C1993.27,1629.59 1994.42,1624.26 1995.9,1618.97C2017.13,1656.19 2055.24,1686.85 2103.59,1700.91C2121.88,1706.22 2140.23,1708.75 2158.01,1708.75C2226.78,1708.75 2287.18,1670.97 2304.63,1610.9C2304.72,1610.6 2304.8,1610.3 2304.89,1610C2312.51,1623.34 2317.95,1637.52 2320.92,1652.07C2320.53,1654.82 2320.04,1657.57 2319.46,1660.32C2319.45,1660.35 2319.45,1660.37 2319.44,1660.4L2319.44,1660.41C2318.82,1663.3 2318.1,1666.19 2317.26,1669.07C2316.54,1671.54 2315.75,1673.97 2314.89,1676.37C2314.88,1676.34 2314.87,1676.31 2314.85,1676.28C2300.03,1717.73 2264.1,1747.56 2219.6,1760.19C2219.59,1760.19 2219.57,1760.2 2219.57,1760.2C2219.46,1760.23 2219.35,1760.26 2219.25,1760.29C2219.24,1760.29 2219.22,1760.3 2219.21,1760.3C2219.11,1760.33 2219,1760.36 2218.9,1760.39C2218.88,1760.39 2218.86,1760.4 2218.84,1760.4C2218.74,1760.43 2218.64,1760.46 2218.55,1760.48C2218.52,1760.49 2218.5,1760.5 2218.48,1760.5C2218.38,1760.53 2218.29,1760.55 2218.2,1760.58C2218.16,1760.59 2218.13,1760.6 2218.1,1760.61C2218.01,1760.63 2217.93,1760.65 2217.84,1760.68C2217.8,1760.69 2217.78,1760.69 2217.75,1760.7C2217.66,1760.73 2217.57,1760.75 2217.48,1760.77C2217.45,1760.78 2217.41,1760.79 2217.37,1760.81C2217.28,1760.83 2217.21,1760.85 2217.13,1760.87C2217.08,1760.88 2217.02,1760.9 2216.97,1760.91C2216.9,1760.93 2216.84,1760.95 2216.77,1760.96C2216.66,1760.99 2216.54,1761.02 2216.43,1761.05C2216.42,1761.06 2216.4,1761.06 2216.39,1761.07C2216.27,1761.1 2216.16,1761.13 2216.04,1761.16C2216.03,1761.16 2216.01,1761.16 2216,1761.17C2215.89,1761.19 2215.79,1761.22 2215.68,1761.25C2215.66,1761.26 2215.63,1761.26 2215.61,1761.27C2215.51,1761.29 2215.41,1761.32 2215.31,1761.35C2215.29,1761.35 2215.27,1761.35 2215.26,1761.36C2215.15,1761.39 2215.05,1761.41 2214.94,1761.44C2214.92,1761.44 2214.89,1761.45 2214.86,1761.46C2214.77,1761.48 2214.67,1761.51 2214.58,1761.53C2214.55,1761.54 2214.52,1761.55 2214.5,1761.55C2214.4,1761.58 2214.31,1761.6 2214.21,1761.62C2214.19,1761.63 2214.15,1761.64 2214.13,1761.64C2214.03,1761.67 2213.93,1761.69 2213.83,1761.72C2213.81,1761.72 2213.79,1761.73 2213.77,1761.73C2213.67,1761.76 2213.57,1761.78 2213.46,1761.81C2213.44,1761.81 2213.42,1761.82 2213.4,1761.82C2213.3,1761.85 2213.19,1761.87 2213.09,1761.9C2213.07,1761.9 2213.05,1761.91 2213.04,1761.91C2212.93,1761.94 2212.82,1761.96 2212.72,1761.99C2212.7,1761.99 2212.68,1762 2212.67,1762C2212.56,1762.02 2212.45,1762.05 2212.34,1762.08C2212.33,1762.08 2212.32,1762.08 2212.3,1762.09C2212.19,1762.11 2212.08,1762.14 2211.97,1762.16C2211.96,1762.17 2211.94,1762.17 2211.93,1762.17C2211.82,1762.2 2211.71,1762.23 2211.59,1762.25C2211.58,1762.25 2211.57,1762.26 2211.56,1762.26C2211.45,1762.29 2211.33,1762.31 2211.22,1762.34C2211.21,1762.34 2211.2,1762.34 2211.19,1762.35C2211.07,1762.37 2210.95,1762.4 2210.84,1762.43L2210.82,1762.43C2206.2,1763.48 2201.49,1764.35 2196.72,1765.04L2196.71,1765.04C2196.59,1765.06 2196.47,1765.08 2196.34,1765.09C2196.33,1765.09 2196.32,1765.1 2196.31,1765.1C2196.19,1765.11 2196.08,1765.13 2195.97,1765.15L2195.9,1765.15C2195.8,1765.17 2195.69,1765.18 2195.58,1765.2C2195.56,1765.2 2195.54,1765.2 2195.52,1765.21C2195.41,1765.22 2195.31,1765.24 2195.2,1765.25C2195.18,1765.25 2195.15,1765.26 2195.13,1765.26C2195.03,1765.27 2194.92,1765.29 2194.82,1765.3C2194.79,1765.31 2194.76,1765.31 2194.74,1765.31C2194.64,1765.33 2194.54,1765.34 2194.44,1765.35C2194.41,1765.36 2194.37,1765.36 2194.34,1765.36C2194.25,1765.38 2194.15,1765.39 2194.05,1765.4C2194.02,1765.41 2193.99,1765.41 2193.96,1765.41C2193.86,1765.43 2193.77,1765.44 2193.67,1765.45C2193.64,1765.45 2193.6,1765.46 2193.57,1765.46C2193.48,1765.48 2193.39,1765.49 2193.29,1765.5C2193.25,1765.5 2193.22,1765.51 2193.18,1765.51C2193.09,1765.52 2193.01,1765.53 2192.92,1765.54C2192.87,1765.55 2192.83,1765.55 2192.79,1765.56C2192.7,1765.57 2192.62,1765.58 2192.53,1765.59C2192.49,1765.6 2192.45,1765.6 2192.41,1765.61C2192.32,1765.62 2192.23,1765.63 2192.14,1765.64C2192.1,1765.64 2192.07,1765.65 2192.02,1765.65C2191.93,1765.66 2191.85,1765.67 2191.76,1765.68C2191.72,1765.69 2191.68,1765.69 2191.64,1765.7C2191.55,1765.71 2191.47,1765.71 2191.39,1765.72C2191.34,1765.73 2191.29,1765.73 2191.25,1765.74C2191.16,1765.75 2191.08,1765.76 2191,1765.77C2190.95,1765.77 2190.91,1765.78 2190.86,1765.78C2190.78,1765.79 2190.7,1765.8 2190.62,1765.81C2190.57,1765.81 2190.53,1765.82 2190.48,1765.82C2190.39,1765.83 2190.32,1765.84 2190.23,1765.85C2190.19,1765.86 2190.14,1765.86 2190.09,1765.87C2190.02,1765.87 2189.95,1765.88 2189.88,1765.89C2189.82,1765.89 2189.76,1765.9 2189.7,1765.91C2189.62,1765.92 2189.54,1765.92 2189.46,1765.93C2189.34,1765.94 2189.23,1765.96 2189.11,1765.97C2189.06,1765.97 2189,1765.98 2188.94,1765.98C2188.86,1765.99 2188.78,1766 2188.69,1766.01C2188.65,1766.01 2188.6,1766.02 2188.56,1766.02C2188.47,1766.03 2188.38,1766.04 2188.29,1766.05C2188.25,1766.05 2188.22,1766.05 2188.18,1766.06C2188.09,1766.07 2188,1766.08 2187.9,1766.08C2187.87,1766.09 2187.83,1766.09 2187.8,1766.09C2187.71,1766.1 2187.62,1766.11 2187.53,1766.12C2187.5,1766.12 2187.45,1766.13 2187.42,1766.13C2187.33,1766.14 2187.24,1766.15 2187.15,1766.15C2187.11,1766.16 2187.08,1766.16 2187.03,1766.16C2186.94,1766.17 2186.85,1766.18 2186.76,1766.19C2186.73,1766.19 2186.69,1766.19 2186.66,1766.2C2186.56,1766.21 2186.47,1766.21 2186.37,1766.22C2186.34,1766.22 2186.31,1766.23 2186.27,1766.23C2186.18,1766.24 2186.09,1766.25 2185.99,1766.25C2185.95,1766.26 2185.93,1766.26 2185.89,1766.26C2185.79,1766.27 2185.7,1766.28 2185.6,1766.29L2185.52,1766.29C2185.42,1766.3 2185.31,1766.31 2185.21,1766.32L2185.13,1766.32C2185.03,1766.33 2184.93,1766.34 2184.83,1766.35L2184.76,1766.35C2184.65,1766.36 2184.55,1766.37 2184.44,1766.38L2184.38,1766.38C2184.27,1766.39 2184.16,1766.4 2184.05,1766.4C2184.04,1766.41 2184.02,1766.41 2184.01,1766.41C2183.89,1766.42 2183.77,1766.42 2183.66,1766.43L2183.64,1766.43C2183.39,1766.45 2183.14,1766.47 2182.89,1766.48C2178.84,1766.75 2174.75,1766.89 2170.62,1766.89Z" style="fill:rgb(210,0,14);fill-rule:nonzero;"/>
                    </g>
                    <g transform="matrix(0.0930454,0,0,0.0930454,268.709,81.1889)">
                        <path d="M2127.8,1762.04C2124.04,1761.19 2120.27,1760.22 2116.5,1759.13C2119.43,1759.98 2122.36,1760.75 2125.29,1761.46C2126.13,1761.66 2126.96,1761.85 2127.8,1762.04ZM2116.22,1759.05C2116.14,1759.02 2116.07,1759 2115.99,1758.98C2116.07,1759 2116.14,1759.02 2116.22,1759.05ZM2265.06,1739.25C2287.89,1723.78 2305.54,1702.36 2314.89,1676.37L2314.89,1676.38C2305.55,1702.37 2287.9,1723.79 2265.06,1739.25Z" style="fill:rgb(183,93,0);fill-rule:nonzero;"/>
                    </g>
                    <g transform="matrix(0.0930454,0,0,0.0930454,268.709,81.1889)">
                        <path d="M2170.62,1766.89C2156.59,1766.89 2142.23,1765.32 2127.8,1762.04C2126.96,1761.85 2126.13,1761.66 2125.29,1761.46C2140.56,1765.13 2155.78,1766.89 2170.62,1766.89C2174.75,1766.89 2178.84,1766.75 2182.89,1766.48C2178.83,1766.75 2174.75,1766.89 2170.62,1766.89ZM2182.89,1766.48C2183.14,1766.47 2183.39,1766.45 2183.64,1766.43C2183.39,1766.45 2183.14,1766.47 2182.89,1766.48ZM2183.66,1766.43C2183.77,1766.42 2183.89,1766.42 2184.01,1766.41C2183.89,1766.42 2183.78,1766.42 2183.66,1766.43ZM2184.05,1766.4C2184.16,1766.4 2184.27,1766.39 2184.38,1766.38C2184.27,1766.39 2184.16,1766.4 2184.05,1766.4ZM2184.44,1766.38C2184.55,1766.37 2184.65,1766.36 2184.76,1766.35C2184.65,1766.36 2184.55,1766.37 2184.44,1766.38ZM2184.83,1766.35C2184.93,1766.34 2185.03,1766.33 2185.13,1766.32C2185.03,1766.33 2184.93,1766.34 2184.83,1766.35ZM2185.21,1766.32C2185.31,1766.31 2185.42,1766.3 2185.52,1766.29C2185.42,1766.3 2185.31,1766.31 2185.21,1766.32ZM2185.6,1766.29C2185.7,1766.28 2185.79,1766.27 2185.89,1766.26C2185.79,1766.27 2185.7,1766.28 2185.6,1766.29ZM2185.99,1766.25C2186.09,1766.25 2186.18,1766.24 2186.27,1766.23C2186.18,1766.24 2186.08,1766.25 2185.99,1766.25ZM2186.37,1766.22C2186.47,1766.21 2186.56,1766.21 2186.66,1766.2C2186.56,1766.21 2186.47,1766.21 2186.37,1766.22ZM2186.76,1766.19C2186.85,1766.18 2186.94,1766.17 2187.03,1766.16C2186.94,1766.17 2186.85,1766.18 2186.76,1766.19ZM2187.15,1766.15C2187.24,1766.15 2187.33,1766.14 2187.42,1766.13C2187.33,1766.14 2187.24,1766.15 2187.15,1766.15ZM2187.53,1766.12C2187.62,1766.11 2187.71,1766.1 2187.8,1766.09C2187.71,1766.1 2187.63,1766.11 2187.53,1766.12ZM2187.9,1766.08C2188,1766.08 2188.09,1766.07 2188.18,1766.06C2188.09,1766.07 2187.99,1766.08 2187.9,1766.08ZM2188.29,1766.05C2188.38,1766.04 2188.47,1766.03 2188.56,1766.02C2188.47,1766.03 2188.38,1766.04 2188.29,1766.05ZM2188.69,1766.01C2188.78,1766 2188.86,1765.99 2188.94,1765.98C2188.86,1765.99 2188.78,1766 2188.69,1766.01ZM2189.11,1765.97C2189.23,1765.96 2189.34,1765.94 2189.46,1765.93C2189.34,1765.94 2189.23,1765.96 2189.11,1765.97ZM2189.7,1765.91C2189.76,1765.9 2189.82,1765.89 2189.88,1765.89C2189.82,1765.89 2189.76,1765.9 2189.7,1765.91ZM2190.09,1765.87C2190.14,1765.86 2190.19,1765.86 2190.23,1765.85C2190.19,1765.86 2190.13,1765.86 2190.09,1765.87ZM2190.48,1765.82C2190.53,1765.82 2190.57,1765.81 2190.62,1765.81C2190.57,1765.81 2190.52,1765.82 2190.48,1765.82ZM2190.86,1765.78C2190.91,1765.78 2190.95,1765.77 2191,1765.77C2190.96,1765.77 2190.91,1765.78 2190.86,1765.78ZM2191.25,1765.74C2191.29,1765.73 2191.34,1765.73 2191.39,1765.72C2191.34,1765.73 2191.29,1765.73 2191.25,1765.74ZM2191.64,1765.7C2191.68,1765.69 2191.72,1765.69 2191.76,1765.68C2191.72,1765.69 2191.67,1765.69 2191.64,1765.7ZM2192.02,1765.65C2192.07,1765.65 2192.1,1765.64 2192.14,1765.64C2192.1,1765.64 2192.06,1765.65 2192.02,1765.65ZM2192.41,1765.61C2192.45,1765.6 2192.49,1765.6 2192.53,1765.59C2192.49,1765.6 2192.45,1765.6 2192.41,1765.61ZM2192.79,1765.56C2192.83,1765.55 2192.87,1765.55 2192.92,1765.54C2192.88,1765.55 2192.83,1765.55 2192.79,1765.56ZM2193.18,1765.51C2193.22,1765.51 2193.25,1765.5 2193.29,1765.5C2193.25,1765.5 2193.22,1765.51 2193.18,1765.51ZM2193.57,1765.46C2193.6,1765.46 2193.64,1765.45 2193.67,1765.45C2193.64,1765.45 2193.6,1765.46 2193.57,1765.46ZM2193.96,1765.41C2193.99,1765.41 2194.02,1765.41 2194.05,1765.4C2194.02,1765.41 2193.99,1765.41 2193.96,1765.41ZM2194.34,1765.36C2194.37,1765.36 2194.41,1765.36 2194.44,1765.35C2194.41,1765.36 2194.37,1765.36 2194.34,1765.36ZM2194.74,1765.31C2194.76,1765.31 2194.79,1765.31 2194.82,1765.3C2194.79,1765.31 2194.76,1765.31 2194.74,1765.31ZM2195.13,1765.26C2195.15,1765.26 2195.18,1765.25 2195.2,1765.25C2195.17,1765.25 2195.15,1765.26 2195.13,1765.26ZM2195.52,1765.21C2195.54,1765.2 2195.56,1765.2 2195.58,1765.2C2195.56,1765.2 2195.54,1765.21 2195.52,1765.21ZM2195.9,1765.15L2195.97,1765.15L2195.9,1765.15ZM2196.31,1765.1C2196.32,1765.1 2196.33,1765.09 2196.34,1765.09C2196.33,1765.09 2196.32,1765.1 2196.31,1765.1ZM2196.71,1765.04L2196.72,1765.04L2196.71,1765.04ZM2210.82,1762.43L2210.84,1762.43L2210.82,1762.43ZM2211.19,1762.35C2211.2,1762.34 2211.21,1762.34 2211.22,1762.34C2211.2,1762.34 2211.2,1762.34 2211.19,1762.35ZM2211.56,1762.26C2211.57,1762.26 2211.58,1762.25 2211.59,1762.25C2211.58,1762.26 2211.57,1762.26 2211.56,1762.26ZM2211.93,1762.17C2211.94,1762.17 2211.96,1762.17 2211.97,1762.16C2211.95,1762.17 2211.94,1762.17 2211.93,1762.17ZM2212.3,1762.09C2212.32,1762.08 2212.33,1762.08 2212.34,1762.08C2212.33,1762.08 2212.32,1762.08 2212.3,1762.09ZM2212.67,1762C2212.68,1762 2212.7,1761.99 2212.72,1761.99C2212.7,1761.99 2212.68,1762 2212.67,1762ZM2213.04,1761.91C2213.05,1761.91 2213.07,1761.9 2213.09,1761.9C2213.07,1761.9 2213.06,1761.91 2213.04,1761.91ZM2213.4,1761.82C2213.42,1761.82 2213.44,1761.81 2213.46,1761.81C2213.44,1761.81 2213.42,1761.82 2213.4,1761.82ZM2213.77,1761.73C2213.79,1761.73 2213.81,1761.72 2213.83,1761.72C2213.81,1761.72 2213.8,1761.73 2213.77,1761.73ZM2214.13,1761.64C2214.15,1761.64 2214.19,1761.63 2214.21,1761.62C2214.19,1761.63 2214.15,1761.64 2214.13,1761.64ZM2214.5,1761.55C2214.52,1761.55 2214.55,1761.54 2214.58,1761.53C2214.55,1761.54 2214.52,1761.55 2214.5,1761.55ZM2214.86,1761.46C2214.89,1761.45 2214.92,1761.44 2214.94,1761.44C2214.91,1761.45 2214.89,1761.45 2214.86,1761.46ZM2215.26,1761.36C2215.27,1761.35 2215.29,1761.35 2215.31,1761.35C2215.29,1761.35 2215.27,1761.36 2215.26,1761.36ZM2215.61,1761.27C2215.63,1761.26 2215.66,1761.26 2215.68,1761.25C2215.65,1761.26 2215.63,1761.26 2215.61,1761.27ZM2216,1761.17C2216.01,1761.16 2216.03,1761.16 2216.04,1761.16C2216.03,1761.16 2216.02,1761.16 2216,1761.17ZM2216.39,1761.07C2216.4,1761.06 2216.42,1761.06 2216.43,1761.05C2216.42,1761.06 2216.4,1761.06 2216.39,1761.07ZM2216.77,1760.96C2216.84,1760.95 2216.9,1760.93 2216.97,1760.91C2216.9,1760.93 2216.84,1760.95 2216.77,1760.96ZM2217.13,1760.87C2217.21,1760.85 2217.28,1760.83 2217.37,1760.81C2217.29,1760.83 2217.21,1760.85 2217.13,1760.87ZM2217.48,1760.77C2217.57,1760.75 2217.66,1760.73 2217.75,1760.7C2217.66,1760.73 2217.57,1760.75 2217.48,1760.77ZM2217.84,1760.68C2217.93,1760.65 2218.01,1760.63 2218.1,1760.61C2218.01,1760.63 2217.92,1760.66 2217.84,1760.68ZM2218.2,1760.58C2218.29,1760.55 2218.38,1760.53 2218.48,1760.5C2218.39,1760.53 2218.29,1760.55 2218.2,1760.58ZM2218.55,1760.48C2218.64,1760.46 2218.74,1760.43 2218.84,1760.4C2218.74,1760.43 2218.64,1760.46 2218.55,1760.48ZM2218.9,1760.39C2219,1760.36 2219.11,1760.33 2219.21,1760.3C2219.1,1760.33 2219.01,1760.36 2218.9,1760.39ZM2219.25,1760.29C2219.35,1760.26 2219.46,1760.23 2219.57,1760.2C2219.46,1760.23 2219.36,1760.26 2219.25,1760.29ZM2219.6,1760.19C2264.1,1747.56 2300.03,1717.73 2314.85,1676.28C2314.87,1676.31 2314.88,1676.34 2314.89,1676.37C2305.54,1702.36 2287.89,1723.78 2265.06,1739.25C2251.51,1748.42 2236.15,1755.49 2219.6,1760.19ZM2073.66,1741.04C2073.62,1741.02 2073.58,1741 2073.54,1740.98C2073.58,1741 2073.61,1741.02 2073.66,1741.04ZM2073.47,1740.94C2037.74,1720.45 2011.3,1689.87 1998.5,1655.79C1998.52,1655.76 1998.53,1655.73 1998.54,1655.7C2011.28,1689.8 2037.72,1720.43 2073.47,1740.94Z" style="fill:rgb(179,0,7);fill-rule:nonzero;"/>
                    </g>
                    <g transform="matrix(0.0930454,0,0,0.0930454,268.709,81.1889)">
                        <path d="M2320.94,1652.19C2320.93,1652.15 2320.93,1652.12 2320.92,1652.08C2323.97,1630.63 2321.21,1609.02 2313.59,1588.65C2313.58,1588.63 2313.57,1588.6 2313.56,1588.58C2313.55,1588.56 2313.55,1588.56 2313.54,1588.54C2312.32,1585.28 2310.97,1582.05 2309.51,1578.86L2309.51,1578.87C2301.26,1560.98 2289.22,1544.29 2274.04,1529.8C2308.9,1563.06 2327.24,1607.95 2320.94,1652.19ZM1990.93,1625.6C1988.78,1608.96 1989.9,1591.96 1994.76,1575.29C2003.11,1546.63 2021.22,1523.06 2045.35,1506.23C2021.22,1523.06 2003.11,1546.64 1994.78,1575.3C1989.93,1591.97 1988.8,1608.95 1990.93,1625.6ZM2274,1529.76C2273.97,1529.74 2273.94,1529.71 2273.91,1529.68C2273.94,1529.71 2273.97,1529.73 2274,1529.76Z" style="fill:rgb(255,228,133);fill-rule:nonzero;"/>
                    </g>
                    <g transform="matrix(0.0930454,0,0,0.0930454,268.709,81.1889)">
                        <path d="M2320.92,1652.08L2320.92,1652.07C2323.95,1630.62 2321.2,1609.01 2313.59,1588.65C2321.21,1609.02 2323.97,1630.63 2320.92,1652.08ZM1992.49,1634.92C1991.85,1631.83 1991.33,1628.72 1990.93,1625.6C1988.8,1608.95 1989.93,1591.97 1994.78,1575.3C2003.11,1546.64 2021.22,1523.06 2045.35,1506.23C2071.78,1487.81 2105.45,1477.48 2141.38,1477.48C2159.16,1477.48 2177.5,1480.01 2195.8,1485.33C2226.54,1494.26 2253.15,1509.91 2273.91,1529.68C2273.94,1529.71 2273.97,1529.74 2274,1529.76C2274.01,1529.77 2274.03,1529.79 2274.04,1529.8C2289.22,1544.29 2301.26,1560.98 2309.51,1578.87C2309.32,1589.28 2307.81,1599.69 2304.89,1610C2283.65,1572.8 2245.53,1542.1 2197.21,1528.01C2178.92,1522.69 2160.59,1520.17 2142.82,1520.17C2074.05,1520.17 2013.62,1557.95 1996.17,1618.02C1996.08,1618.34 1995.99,1618.65 1995.9,1618.97C1993.73,1615.17 1991.74,1611.31 1989.93,1607.38C1989.77,1616.63 1990.65,1625.84 1992.49,1634.91L1992.49,1634.92ZM2313.56,1588.58C2313.55,1588.56 2313.55,1588.55 2313.54,1588.54C2313.55,1588.56 2313.55,1588.56 2313.56,1588.58Z" style="fill:rgb(255,149,154);fill-rule:nonzero;"/>
                    </g>
                    <g transform="matrix(0.0930454,0,0,0.0930454,268.709,81.1889)">
                        <path d="M2313.59,1588.65C2313.58,1588.63 2313.57,1588.6 2313.56,1588.58C2313.57,1588.6 2313.58,1588.63 2313.59,1588.65ZM2313.54,1588.54C2312.32,1585.29 2310.97,1582.06 2309.51,1578.87L2309.51,1578.86C2310.97,1582.05 2312.32,1585.28 2313.54,1588.54Z" style="fill:rgb(238,201,136);fill-rule:nonzero;"/>
                    </g>
                    <g transform="matrix(0.0930454,0,0,0.0930454,268.709,81.1889)">
                        <path d="M2320.92,1652.07C2317.95,1637.52 2312.51,1623.34 2304.89,1610C2307.81,1599.69 2309.32,1589.28 2309.51,1578.87C2310.97,1582.06 2312.32,1585.29 2313.54,1588.54C2313.55,1588.55 2313.55,1588.56 2313.56,1588.58C2313.57,1588.6 2313.58,1588.63 2313.59,1588.65C2321.2,1609.01 2323.95,1630.62 2320.92,1652.07ZM1992.49,1634.91C1990.65,1625.84 1989.77,1616.63 1989.93,1607.38C1991.74,1611.31 1993.73,1615.17 1995.9,1618.97C1994.42,1624.26 1993.27,1629.59 1992.49,1634.91Z" style="fill:rgb(238,146,150);fill-rule:nonzero;"/>
                    </g>
                    <g transform="matrix(0.0930454,0,0,0.0930454,268.709,81.1889)">
                        <path d="M2141.26,1495.56C2118.92,1495.56 2097.22,1500 2077.55,1508.8C2044.52,1523.59 2021.31,1549 2012.19,1580.36C2003.07,1611.72 2009.03,1645.62 2028.99,1675.81C2049.56,1706.93 2082.33,1730.31 2121.29,1741.64C2160.22,1752.95 2200.43,1750.81 2234.48,1735.56C2267.52,1720.78 2290.73,1695.37 2299.84,1664.01L2299.85,1664.01C2308.97,1632.64 2303,1598.75 2283.05,1568.56C2262.48,1537.43 2229.7,1514.05 2190.75,1502.73C2174.29,1497.94 2157.61,1495.56 2141.26,1495.56ZM2170.77,1785.06C2151.01,1785.06 2130.92,1782.2 2111.16,1776.45C2063.97,1762.73 2024.04,1734.09 1998.74,1695.8C1972.82,1656.58 1965.23,1611.99 1977.37,1570.23C1989.51,1528.48 2019.83,1494.91 2062.74,1475.7C2104.63,1456.95 2153.69,1454.19 2200.88,1467.91C2248.07,1481.63 2287.99,1510.28 2313.3,1548.56C2339.22,1587.78 2346.81,1632.38 2334.66,1674.13L2334.67,1674.13C2322.53,1715.89 2292.21,1749.46 2249.3,1768.66C2224.95,1779.56 2198.18,1785.06 2170.77,1785.06Z" style="fill:rgb(108,0,0);fill-rule:nonzero;"/>
                    </g>
                    <g transform="matrix(0.0930454,0,0,0.0930454,268.709,81.1889)">
                        <path d="M3121.13,1461.7C3111.83,1491.26 3097.02,1518.79 3078.1,1543.34C2983.18,1666.49 2800.43,1672.69 2691.47,1561.78C2375.84,1240.5 1770.2,1029.77 1361.06,1044.93C1160.82,1046.02 1114.24,698.197 1333.41,600.693C1706.86,509.558 2849.06,886.178 3098.63,1294.13C3129.38,1344.42 3138.82,1405.49 3121.13,1461.7Z" style="fill:rgb(231,126,38);fill-rule:nonzero;"/>
                    </g>
                    <g transform="matrix(0.0930454,0,0,0.0930454,268.709,81.1889)">
                        <path d="M2878.75,1619.86C2814.25,1619.86 2752.01,1593.84 2706.25,1547.26C2555.76,1394.08 2329.31,1255.76 2068.62,1157.79C1839.28,1071.6 1599.37,1023.45 1402.51,1023.45C1388.32,1023.45 1374.35,1023.71 1360.63,1024.21L1360.1,1024.21C1274.95,1024.21 1229.37,953.554 1215.09,887.264C1205.93,844.667 1207.51,795.653 1223.08,750.107C1249.04,816.977 1302.68,866.427 1377.51,866.427C1378.68,866.427 1379.85,866.415 1381.03,866.391C1400.95,865.345 1421.4,864.827 1442.2,864.827C1848.61,864.827 2414.32,1061.72 2719.26,1362.73C2770.63,1413.43 2837.54,1438.66 2903.78,1438.66C2973.96,1438.66 3043.41,1410.34 3092.87,1354.02C3098.86,1363.94 3104.02,1374.29 3108.31,1384.93C3110.78,1408.74 3108.53,1432.72 3101.37,1455.48C3093,1482.08 3079.64,1507.39 3061.69,1530.69C3020.71,1583.85 2960.86,1615.36 2893.14,1619.43C2888.33,1619.72 2883.54,1619.86 2878.75,1619.86Z" style="fill:rgb(195,88,26);fill-rule:nonzero;"/>
                    </g>
                    <g transform="matrix(0.0930454,0,0,0.0930454,268.709,81.1889)">
                        <path d="M3092.87,1354.02C3092.64,1353.64 3092.41,1353.26 3092.18,1352.89C2868.15,986.687 1924.79,645.695 1463.92,645.695C1411.37,645.695 1365.18,650.117 1326.95,659.445C1281.87,679.505 1248.03,710.159 1224.46,746.187C1243.13,694.479 1280.1,647.655 1340.14,620.385C1375.89,611.878 1419.59,607.763 1469.72,607.763C1665.41,607.763 1958.68,670.521 2255.32,779.698C2662.86,929.694 2971.51,1126.05 3080.95,1304.95C3088.92,1317.97 3095.24,1331.66 3099.87,1345.69C3097.58,1348.54 3095.25,1351.3 3092.87,1354.02Z" style="fill:rgb(246,197,160);fill-rule:nonzero;"/>
                    </g>
                    <g transform="matrix(0.0930454,0,0,0.0930454,268.709,81.1889)">
                        <path d="M3108.31,1384.93C3104.02,1374.29 3098.86,1363.94 3092.87,1354.02C3095.25,1351.3 3097.58,1348.54 3099.87,1345.69C3104.11,1358.56 3106.94,1371.71 3108.31,1384.93Z" style="fill:rgb(229,180,154);fill-rule:nonzero;"/>
                    </g>
                    <g transform="matrix(0.0930454,0,0,0.0930454,268.709,81.1889)">
                        <path d="M1402.51,1023.45C1599.37,1023.45 1839.28,1071.6 2068.62,1157.79C2329.31,1255.76 2555.76,1394.08 2706.25,1547.26C2755.41,1597.3 2823.57,1623.61 2893.14,1619.43C2960.86,1615.36 3020.71,1583.85 3061.69,1530.69C3079.64,1507.39 3093,1482.08 3101.37,1455.48L3121.13,1461.7L3101.37,1455.48C3116.84,1406.32 3109.4,1351.45 3080.95,1304.95C2971.51,1126.05 2662.86,929.694 2255.32,779.698C1882.69,642.555 1515.43,578.666 1340.14,620.385C1225.94,672.253 1195.21,794.862 1215.09,887.264C1229.37,953.554 1274.95,1024.21 1360.1,1024.21L1360.63,1024.21C1374.35,1023.71 1388.32,1023.45 1402.51,1023.45ZM2878.74,1661.3C2803.13,1661.3 2730.27,1630.84 2676.69,1576.3C2349.17,1242.91 1739.19,1051.63 1361.82,1065.63C1361.43,1065.65 1361.03,1065.65 1360.64,1065.65L1360.16,1065.65C1269.57,1065.66 1196.79,999.167 1174.58,895.985C1151.18,787.282 1188.27,642.585 1324.99,581.759C1326.12,581.256 1327.29,580.856 1328.5,580.563C1513.24,535.48 1882.66,598.383 2269.63,740.81C2461.31,811.356 2638.12,895.182 2780.91,983.225C2942.64,1082.93 3055.48,1183.9 3116.3,1283.32C3151,1340.05 3159.97,1407.34 3140.9,1467.92C3131.06,1499.19 3115.46,1528.82 3094.51,1555.99C3046.82,1617.87 2974.32,1656.07 2895.63,1660.8C2889.99,1661.13 2884.35,1661.3 2878.74,1661.3Z" style="fill:rgb(108,0,0);fill-rule:nonzero;"/>
                    </g>
                    <g transform="matrix(0.0930454,0,0,0.0930454,268.709,81.1889)">
                        <path d="M3095.63,1333.5C3083.66,1314.5 3069.14,1297.43 3052.03,1283.81C3034.96,1270.17 3015.35,1260.04 2994.4,1254.22C2952.51,1242.4 2905.73,1248.17 2866.18,1268.26C2846.4,1278.22 2828.14,1291.46 2813.25,1307.73C2798.32,1323.98 2786.99,1342.96 2778.53,1362.89C2770,1382.86 2764.57,1404.12 2762.02,1426.41C2759.28,1448.74 2759.92,1471.89 2761.34,1496.48L2761.36,1496.7C2761.58,1500.6 2758.6,1503.95 2754.7,1504.17C2751.96,1504.33 2749.49,1502.9 2748.19,1500.69C2735.1,1478.42 2727.42,1452.66 2725.31,1425.92C2723.29,1399.19 2727.53,1371.49 2737.68,1346.11C2747.83,1320.66 2763.93,1297.98 2782.82,1278.73C2801.74,1259.47 2823.6,1243.23 2847.65,1231.2C2871.67,1219.17 2897.77,1211.07 2924.68,1208.09C2951.54,1205.04 2979.17,1206.94 3005.49,1214.3C3031.82,1221.59 3056.64,1234.42 3077.85,1251.4C3099.14,1268.35 3116.76,1289.22 3130.89,1311.74C3136.98,1321.43 3134.05,1334.22 3124.36,1340.31C3114.66,1346.39 3101.88,1343.46 3095.79,1333.77L3095.63,1333.5Z" style="fill:rgb(108,0,0);fill-rule:nonzero;"/>
                    </g>
                    <g transform="matrix(0.0930454,0,0,0.0930454,268.709,81.1889)">
                        <path d="M1605.87,2899.97C1604.59,2899.97 1603.29,2899.9 1601.98,2899.75C1588.7,2898.3 1578.75,2889.81 1579.74,2880.81C1580.63,2872.7 1590.1,2866.93 1601.67,2866.93C1602.94,2866.93 1604.24,2867 1605.56,2867.14C1618.83,2868.6 1628.79,2877.08 1627.8,2886.09C1626.91,2894.2 1617.44,2899.97 1605.87,2899.97Z" style="fill:rgb(214,134,0);fill-rule:nonzero;"/>
                    </g>
                    <g transform="matrix(0.0930454,0,0,0.0930454,268.709,81.1889)">
                        <path d="M1670.83,2310.11C1668.33,2310.11 1665.75,2309.91 1663.14,2309.49C1644.75,2306.58 1631.45,2294.1 1633.42,2281.62C1635.12,2270.92 1647.51,2263.7 1662.6,2263.7C1665.11,2263.7 1667.68,2263.9 1670.3,2264.31C1688.68,2267.22 1701.99,2279.7 1700.01,2292.18C1698.31,2302.88 1685.92,2310.11 1670.83,2310.11Z" style="fill:rgb(214,134,0);fill-rule:nonzero;"/>
                    </g>
                    <g transform="matrix(0.0930454,0,0,0.0930454,268.709,81.1889)">
                        <path d="M1748.8,2348.23C1747.66,2348.23 1746.48,2348.14 1745.29,2347.95C1736.91,2346.62 1730.84,2340.93 1731.74,2335.24C1732.52,2330.36 1738.17,2327.07 1745.05,2327.07C1746.19,2327.07 1747.37,2327.16 1748.56,2327.35C1756.94,2328.67 1763.01,2334.36 1762.11,2340.05C1761.33,2344.93 1755.68,2348.23 1748.8,2348.23Z" style="fill:rgb(214,134,0);fill-rule:nonzero;"/>
                    </g>
                    <g transform="matrix(0.0930454,0,0,0.0930454,268.709,81.1889)">
                        <path d="M2371.8,1466.87C2370.99,1466.87 2370.16,1466.83 2369.33,1466.73C2360.89,1465.81 2354.56,1460.41 2355.19,1454.69C2355.75,1449.53 2361.77,1445.86 2369.13,1445.86C2369.94,1445.86 2370.77,1445.91 2371.6,1446C2372.59,1446.11 2373.54,1446.27 2374.46,1446.5C2377.68,1448.45 2380.88,1450.4 2384.08,1452.37C2385.34,1454.1 2385.96,1456.05 2385.74,1458.04C2385.18,1463.2 2379.16,1466.87 2371.8,1466.87Z" style="fill:rgb(214,134,0);fill-rule:nonzero;"/>
                    </g>
                    <g transform="matrix(0.0930454,0,0,0.0930454,268.709,81.1889)">
                        <path d="M2384.08,1452.37C2380.88,1450.4 2377.68,1448.45 2374.46,1446.5C2378.68,1447.52 2382.14,1449.69 2384.08,1452.37Z" style="fill:rgb(183,93,0);fill-rule:nonzero;"/>
                    </g>
                    <g transform="matrix(0.0930454,0,0,0.0930454,268.709,81.1889)">
                        <path d="M1493.51,2871C1491.5,2871 1489.44,2870.89 1487.36,2870.66C1466.41,2868.36 1450.69,2854.97 1452.25,2840.75C1453.66,2827.94 1468.61,2818.83 1486.88,2818.83C1488.89,2818.83 1490.94,2818.94 1493.02,2819.17C1513.97,2821.47 1529.7,2834.86 1528.13,2849.08C1526.73,2861.89 1511.78,2871 1493.51,2871Z" style="fill:rgb(214,134,0);fill-rule:nonzero;"/>
                    </g>
                    <g transform="matrix(0.0930454,0,0,0.0930454,268.709,81.1889)">
                        <path d="M2433.46,1546.33C2431.45,1546.33 2429.4,1546.22 2427.32,1545.99C2406.36,1543.69 2390.64,1530.3 2392.2,1516.08C2393.61,1503.27 2408.56,1494.16 2426.83,1494.16C2428.84,1494.16 2430.89,1494.27 2432.97,1494.5C2453.93,1496.8 2469.65,1510.2 2468.09,1524.42C2466.68,1537.22 2451.73,1546.33 2433.46,1546.33Z" style="fill:rgb(214,134,0);fill-rule:nonzero;"/>
                    </g>
                    <g transform="matrix(0.0930454,0,0,0.0930454,268.709,81.1889)">
                        <path d="M1514.34,2572.46C1539.69,2537.84 1556.34,2534.74 1567.88,2543.19C1579.42,2551.64 1581.49,2568.45 1556.13,2603.07C1530.77,2637.69 1500.86,2658.91 1489.32,2650.46C1477.78,2642 1488.98,2607.08 1514.34,2572.46Z" style="fill:rgb(0,161,91);fill-rule:nonzero;"/>
                    </g>
                    <g transform="matrix(0.0930454,0,0,0.0930454,268.709,81.1889)">
                        <path d="M2017.71,2125.08C2040.52,2093.94 2055.49,2091.15 2065.87,2098.75C2076.25,2106.35 2078.1,2121.47 2055.29,2152.6C2032.49,2183.74 2005.59,2202.81 1995.21,2195.21C1984.84,2187.61 1994.91,2156.21 2017.71,2125.08Z" style="fill:rgb(0,161,91);fill-rule:nonzero;"/>
                    </g>
                    <g transform="matrix(0.0930454,0,0,0.0930454,268.709,81.1889)">
                        <path d="M1479.98,1318.66C1443.04,1296.8 1438.33,1280.54 1445.61,1268.23C1452.89,1255.92 1469.42,1252.22 1506.35,1274.07C1543.29,1295.92 1567.33,1323.62 1560.04,1335.93C1552.76,1348.24 1516.91,1340.51 1479.98,1318.66Z" style="fill:rgb(0,161,91);fill-rule:nonzero;"/>
                    </g>
                    <g transform="matrix(0.0930454,0,0,0.0930454,268.709,81.1889)">
                        <path d="M1823.22,1584.75C1858.29,1560.02 1875.06,1562.38 1883.3,1574.07C1891.55,1585.76 1888.15,1602.35 1853.08,1627.08C1818,1651.82 1782.89,1662.39 1774.65,1650.7C1766.4,1639.01 1788.15,1609.48 1823.22,1584.75Z" style="fill:rgb(0,161,91);fill-rule:nonzero;"/>
                    </g>
                    <g transform="matrix(0.0930454,0,0,0.0930454,268.709,81.1889)">
                        <path d="M2658.82,2175.57C2658.1,2175.57 2657.37,2175.55 2656.63,2175.51L2650.51,2175.26C2648.51,2175.06 2646.6,2174.55 2644.63,2174.27C2636.95,2172.58 2629.63,2169.86 2623.22,2165.1C2616.78,2160.43 2610.99,2154.39 2606.01,2147.34C2601.09,2140.2 2597.19,2132 2594.01,2123.43C2590.77,2114.84 2588.87,2105.6 2587.53,2096.37L2586.73,2089.4L2586.38,2082.4C2586.35,2081.54 2586.32,2080.67 2586.31,2079.8C2601.15,2086.55 2614.13,2089.73 2625.25,2089.73C2685.54,2089.73 2691.19,1996.33 2643.67,1873.33C2628.3,1833.53 2620.9,1797.47 2618.32,1765.97C2615.03,1725.9 2642.43,1690.85 2680.22,1683.1C2677.76,1686.72 2675.57,1690.52 2673.66,1694.43C2668.34,1705.52 2664.71,1717.33 2663.02,1729.04C2661.26,1740.73 2660.4,1752.48 2660.79,1763.93C2661.08,1775.4 2661.83,1786.77 2663.45,1797.88C2669.11,1842.27 2682.35,1885.19 2697,1925.91C2704.17,1946.34 2711.69,1966.35 2718.47,1986.27C2721.77,1996.09 2724.79,2005.72 2727.27,2015.46C2729.85,2025.16 2731.94,2034.89 2733.29,2044.58C2736.2,2063.94 2736.27,2083.16 2732.61,2101.07C2730.86,2110.07 2727.77,2118.55 2724.24,2126.8C2722.12,2130.76 2720.34,2134.9 2717.76,2138.61C2715.36,2142.54 2713.07,2146.11 2710.28,2149.28C2699.44,2162.32 2684.46,2171.64 2668.63,2174.55C2665.38,2175.16 2662.13,2175.57 2658.82,2175.57Z" style="fill:rgb(214,134,0);fill-rule:nonzero;"/>
                    </g>
                    <g transform="matrix(1.30114,0.369912,-0.369912,1.30114,-59.102,-224.22)">
                        <g transform="matrix(0.24,0,0,0.24,0,0)">
                            <path d="M1731,1010.43C1728.17,1005.59 1723.03,995.037 1724,990C1726.1,979.168 1730.25,975.318 1736,973.818C1741.75,972.317 1760,971.787 1768,973.818C1774.5,975.467 1783.16,983.22 1784,986C1784.84,988.78 1788.17,997.724 1786,1003C1783.67,1008.67 1777.33,1017.39 1770,1020C1762.5,1022.67 1747.5,1020.6 1741,1019C1736.74,1017.95 1733.22,1014.21 1731,1010.43Z" style="fill:white;"/>
                        </g>
                        <g transform="matrix(0.228183,0,0,0.228183,2.81019,11.6281)">
                            <path d="M1828.47,1022.16C1834.18,1021.83 1843.88,1021.45 1847,1014.95C1850.12,1008.45 1850.8,1003.15 1849.05,997.549C1847.31,991.944 1843.86,988.221 1840.95,986.388C1838.04,984.554 1834.44,981.741 1827.38,981.845C1820.47,981.946 1816.64,984.395 1813.18,987.486C1808.81,991.388 1806.68,999.417 1806.64,1002.31C1806.57,1007.22 1809.47,1012.41 1812.76,1016.95C1816,1021.42 1822.96,1022.48 1828.47,1022.16Z" style="fill:rgb(35,31,32);"/>
                        </g>
                        <g transform="matrix(0.24,0,0,0.24,0,0)">
                            <path d="M1724.92,1009.33C1727.67,1013.36 1732.15,1019.04 1739.59,1022.25C1746.29,1025.15 1763.02,1026.25 1771.19,1023.34C1779.69,1020.32 1788.4,1014.21 1789.84,1004.71C1791.2,995.739 1788.96,990.071 1783.96,982.385C1777.92,973.125 1772.86,971.039 1761.25,968.108C1752.6,965.926 1743.64,968.067 1737.43,969.721C1728.63,972.064 1722.81,976.923 1720.51,989.357C1718.61,999.69 1723.29,1006.95 1724.92,1009.33ZM1730.77,1005.33C1729.57,1003.58 1726.08,998.246 1727.49,990.643C1729.11,981.842 1733.03,978.23 1739.26,976.571C1744.54,975.164 1752.15,973.125 1759.51,974.982C1768.89,977.349 1773.14,978.775 1778.02,986.255C1781.93,992.262 1783.89,996.634 1782.83,1003.64C1781.78,1010.53 1774.98,1014.47 1768.81,1016.66C1761.98,1019.09 1748,1018.17 1742.41,1015.75C1736.46,1013.18 1732.97,1008.55 1730.77,1005.33Z" style="fill:rgb(106,11,13);"/>
                        </g>
                    </g>
                    <g transform="matrix(1.25714,0.357401,-0.357401,1.25714,-4.69054,-195.506)">
                        <g transform="matrix(0.24,0,0,0.24,0,0)">
                            <path d="M1731,1010.43C1728.17,1005.59 1723.03,995.037 1724,990C1726.1,979.168 1730.25,975.318 1736,973.818C1741.75,972.317 1760,971.787 1768,973.818C1774.5,975.467 1783.16,983.22 1784,986C1784.84,988.78 1788.17,997.724 1786,1003C1783.67,1008.67 1777.33,1017.39 1770,1020C1762.5,1022.67 1747.5,1020.6 1741,1019C1736.74,1017.95 1733.22,1014.21 1731,1010.43Z" style="fill:white;"/>
                        </g>
                        <g transform="matrix(0.228183,0,0,0.228183,2.81019,11.6281)">
                            <path d="M1828.47,1022.16C1834.18,1021.83 1843.88,1021.45 1847,1014.95C1850.12,1008.45 1850.8,1003.15 1849.05,997.549C1847.31,991.944 1843.86,988.221 1840.95,986.388C1838.04,984.554 1834.44,981.741 1827.38,981.845C1820.47,981.946 1816.64,984.395 1813.18,987.486C1808.81,991.388 1806.68,999.417 1806.64,1002.31C1806.57,1007.22 1809.47,1012.41 1812.76,1016.95C1816,1021.42 1822.96,1022.48 1828.47,1022.16Z" style="fill:rgb(35,31,32);"/>
                        </g>
                        <g transform="matrix(0.24,-1.73472e-18,-1.73472e-18,0.24,0,0)">
                            <path d="M1726.5,1011.68C1731.92,1018.65 1735.71,1020.12 1743.86,1023.22C1753.91,1027.03 1762.58,1025.81 1770.96,1023.54C1777.81,1021.69 1782.05,1019.52 1785.03,1016.21C1787.08,1013.94 1788.57,1011.1 1789.76,1007.31C1792.37,998.98 1790.94,988.938 1786.81,982.727C1779.95,972.411 1775.41,971.367 1763.78,968.432C1755.24,966.276 1741.22,968.665 1735.07,970.268C1731.52,971.194 1728.04,972.884 1725.32,975.969C1722.69,978.955 1720.71,983.298 1720.34,989.792C1719.75,1000.06 1722.62,1006.69 1726.5,1011.68ZM1732.3,1007.17C1729.29,1003.32 1727.21,998.149 1727.66,990.208C1727.91,985.831 1729.05,982.834 1730.83,980.822C1732.51,978.907 1734.72,977.942 1736.93,977.368C1742.29,975.968 1754.53,973.664 1761.99,975.547C1771.35,977.91 1775.17,978.48 1780.7,986.788C1783.77,991.414 1784.7,998.909 1782.76,1005.11C1780.65,1011.81 1777.34,1014.21 1769.04,1016.46C1762.06,1018.35 1754.83,1019.53 1746.46,1016.36C1739.86,1013.85 1736.69,1012.82 1732.3,1007.17Z" style="fill:rgb(106,11,13);"/>
                        </g>
                    </g>
                    <g transform="matrix(0.0930454,0,0,0.0930454,268.709,81.1889)">
                        <path d="M2657.9,2192.9C2596.56,2192.9 2567.03,2131.69 2565.98,2077.26C2565.92,2074.91 2565.92,2072.56 2565.97,2070.23C2569.87,2071.75 2573.98,2073.66 2578.32,2075.91C2581.04,2077.32 2583.7,2078.61 2586.31,2079.8C2586.32,2080.67 2586.35,2081.54 2586.38,2082.4L2586.73,2089.4L2587.53,2096.37C2588.87,2105.6 2590.77,2114.84 2594.01,2123.43C2597.19,2132 2601.09,2140.2 2606.01,2147.34C2610.99,2154.39 2616.78,2160.43 2623.22,2165.1C2629.63,2169.86 2636.95,2172.58 2644.63,2174.27C2646.6,2174.55 2648.51,2175.06 2650.51,2175.26L2656.63,2175.51C2657.37,2175.55 2658.1,2175.57 2658.82,2175.57C2662.13,2175.57 2665.38,2175.16 2668.63,2174.55C2684.46,2171.64 2699.44,2162.32 2710.28,2149.28C2713.07,2146.11 2715.36,2142.54 2717.76,2138.61C2720.34,2134.9 2722.12,2130.76 2724.24,2126.8C2727.77,2118.55 2730.86,2110.07 2732.61,2101.07C2736.27,2083.16 2736.2,2063.94 2733.29,2044.58C2731.94,2034.89 2729.85,2025.16 2727.27,2015.46C2724.79,2005.72 2721.77,1996.09 2718.47,1986.27C2711.69,1966.35 2704.17,1946.34 2697,1925.91C2682.35,1885.19 2669.11,1842.27 2663.45,1797.88C2661.83,1786.77 2661.08,1775.4 2660.79,1763.93C2660.4,1752.48 2661.26,1740.73 2663.02,1729.04C2664.71,1717.33 2668.34,1705.52 2673.66,1694.43C2675.57,1690.52 2677.76,1686.72 2680.22,1683.1C2683.06,1682.51 2685.96,1682.08 2688.91,1681.82C2686.08,1688.79 2684.4,1695.14 2683.41,1700.11C2676.22,1717.05 2675.67,1738.06 2677.95,1759.76L2674.21,1805.1L2684.7,1800.82C2687.37,1813.83 2690.2,1826.32 2692.33,1837.5C2701.58,1886.05 2724.18,1930.85 2740.31,1977.54C2759.91,2034.42 2769.68,2099.22 2733,2151.79C2715.99,2176.14 2688.98,2192.45 2659.28,2192.89C2658.82,2192.89 2658.35,2192.9 2657.9,2192.9Z" style="fill:rgb(108,0,0);fill-rule:nonzero;"/>
                    </g>
                    <g transform="matrix(0.0930454,0,0,0.0930454,268.709,81.1889)">
                        <path d="M1857.17,3049.47C1855.14,3049.47 1853.09,3049.3 1851.04,3048.95C1843.49,3047.99 1835.99,3045.05 1829.79,3040.26C1826.56,3038.01 1823.94,3035.04 1821.25,3032.1C1817.81,3027.73 1814.24,3023.22 1810.57,3018.79C1804.31,3011.18 1797.54,3003.68 1789.98,2996.64C1798.17,2998.65 1805.66,2999.58 1812.43,2999.58C1871.65,2999.59 1876.83,2928.3 1833.42,2882.62C1782.27,2828.8 1765.56,2798.3 1740.27,2708.23C1714.99,2618.16 1794.9,2590.46 1794.9,2590.46C1794.9,2590.46 1783.44,2519.33 1848.61,2512.95C1844.22,2517.29 1840.59,2522.54 1838.19,2528.36C1837.12,2530.62 1836.47,2532.96 1835.9,2535.34C1835.22,2537.72 1834.87,2540.08 1834.72,2542.43L1834.45,2545.98C1834.4,2546.53 1834.42,2547.25 1834.42,2547.68L1834.44,2548.75L1834.51,2553C1834.74,2564.14 1834.89,2574.11 1833.58,2582.49C1832.28,2590.99 1829.77,2596.76 1824.79,2603.73C1819.75,2610.57 1812.51,2617.59 1804.44,2625.5C1796.41,2633.46 1787.35,2642.53 1779.89,2654.71C1772.47,2667.03 1767.92,2681.57 1767.25,2695.56C1766.38,2709.6 1768.38,2723.17 1772.21,2735.64C1776.03,2748.15 1781.32,2759.87 1787.91,2770.7C1794.59,2781.68 1802.25,2791.3 1810,2800.19C1825.67,2817.92 1842.05,2832.99 1855.97,2848.32C1862.98,2855.97 1869.19,2863.61 1874.73,2871.73C1880.29,2879.87 1885.2,2888.47 1889.4,2897.41C1897.82,2915.3 1903.22,2934.57 1905.8,2954.09C1907.08,2963.94 1907.54,2973.51 1906.9,2982.98C1906.32,2992.44 1904.73,3001.62 1902,3010.07C1899.36,3018.58 1895.28,3026.08 1890.31,3032.52C1888.92,3033.97 1887.76,3035.68 1886.25,3037L1884.1,3039.12L1881.98,3040.8C1879.24,3043.16 1876.09,3044.86 1872.82,3046.36C1867.98,3048.29 1862.63,3049.47 1857.17,3049.47Z" style="fill:rgb(214,134,0);fill-rule:nonzero;"/>
                    </g>
                    <g transform="matrix(0.0930454,0,0,0.0930454,268.709,81.1889)">
                        <path d="M1859.01,3065.54C1839.2,3065.54 1819.38,3056.04 1806.96,3038.56C1793.47,3019.57 1779.7,3001.64 1762.73,2989.09C1765.95,2989.23 1770.16,2990.27 1775.52,2992.21C1780.57,2994.05 1785.39,2995.51 1789.98,2996.64C1797.54,3003.68 1804.31,3011.18 1810.57,3018.79C1814.24,3023.22 1817.81,3027.73 1821.25,3032.1C1823.94,3035.04 1826.56,3038.01 1829.79,3040.26C1835.99,3045.05 1843.49,3047.99 1851.04,3048.95C1853.09,3049.3 1855.14,3049.47 1857.17,3049.47C1862.63,3049.47 1867.98,3048.29 1872.82,3046.36C1876.09,3044.86 1879.24,3043.16 1881.98,3040.8L1884.1,3039.12L1886.25,3037C1887.76,3035.68 1888.92,3033.97 1890.31,3032.52C1895.28,3026.08 1899.36,3018.58 1902,3010.07C1904.73,3001.62 1906.32,2992.44 1906.9,2982.98C1907.54,2973.51 1907.08,2963.94 1905.8,2954.09C1903.22,2934.57 1897.82,2915.3 1889.4,2897.41C1885.2,2888.47 1880.29,2879.87 1874.73,2871.73C1869.19,2863.61 1862.98,2855.97 1855.97,2848.32C1842.05,2832.99 1825.67,2817.92 1810,2800.19C1802.25,2791.3 1794.59,2781.68 1787.91,2770.7C1781.32,2759.87 1776.03,2748.15 1772.21,2735.64C1768.38,2723.17 1766.38,2709.6 1767.25,2695.56C1767.92,2681.57 1772.47,2667.03 1779.89,2654.71C1787.35,2642.53 1796.41,2633.46 1804.44,2625.5C1812.51,2617.59 1819.75,2610.57 1824.79,2603.73C1829.77,2596.76 1832.28,2590.99 1833.58,2582.49C1834.89,2574.11 1834.74,2564.14 1834.51,2553L1834.44,2548.75L1834.42,2547.68C1834.42,2547.25 1834.4,2546.53 1834.45,2545.98L1834.72,2542.43C1834.87,2540.08 1835.22,2537.72 1835.9,2535.34C1836.47,2532.96 1837.12,2530.62 1838.19,2528.36C1840.59,2522.54 1844.22,2517.29 1848.61,2512.95C1851.67,2512.65 1854.89,2512.5 1858.29,2512.5C1867.26,2512.5 1877.46,2513.58 1889.07,2516.01C1889.18,2516.03 1889.26,2516.06 1889.35,2516.09C1887.55,2515.73 1885.72,2515.56 1883.9,2515.56C1869.58,2515.56 1855.7,2526.24 1855.57,2542.92C1855.56,2543.08 1855.53,2543.29 1855.57,2543.45C1855.79,2561.81 1857.19,2580.89 1850.11,2597.88C1838.93,2624.69 1809.34,2639.78 1795.98,2665.57C1779.45,2697.47 1792.16,2737.33 1813.53,2766.2C1834.86,2795.07 1864.04,2817.35 1886.05,2845.67C1911.03,2877.81 1926.12,2917.4 1928.9,2957.99C1931.24,2991.76 1923.75,3028.61 1898.1,3051.02C1886.77,3060.88 1872.89,3065.54 1859.01,3065.54ZM1889.48,2516.11C1889.43,2516.11 1889.39,2516.1 1889.35,2516.09C1889.39,2516.09 1889.43,2516.1 1889.48,2516.11Z" style="fill:rgb(108,0,0);fill-rule:nonzero;"/>
                    </g>
                    <g transform="matrix(0.0930454,0,0,0.0930454,268.709,81.1889)">
                        <path d="M1988.76,2558.08C1987.19,2558.08 1985.48,2557.93 1983.67,2557.65C1976.55,2556.61 1968.14,2553.19 1960.1,2548.53C1951.99,2543.94 1944.09,2537.96 1936.61,2531.52C1932.9,2528.23 1929.24,2524.85 1925.78,2521.26C1925.69,2521.17 1925.6,2521.08 1925.51,2520.99C1928.72,2521.16 1931.83,2521.24 1934.86,2521.24C1976.36,2521.24 2000.71,2505.85 2015.38,2487.07C2015.07,2494.94 2015.04,2502.7 2015.09,2510.34C2014.18,2519.9 2012.58,2529.15 2009.97,2537.14C2007.27,2545.31 2003.29,2551.84 1999.33,2554.67C1997.34,2556.18 1995.38,2557.1 1992.87,2557.65C1991.66,2557.94 1990.27,2558.08 1988.76,2558.08Z" style="fill:rgb(214,134,0);fill-rule:nonzero;"/>
                    </g>
                    <g transform="matrix(0.0930454,0,0,0.0930454,268.709,81.1889)">
                        <path d="M1988.94,2574.95C1961.84,2574.96 1928.76,2551.64 1904.92,2525C1900.57,2520.16 1895.25,2517.33 1889.73,2516.16C1902.79,2518.87 1914.69,2520.42 1925.51,2520.99C1925.6,2521.08 1925.69,2521.17 1925.78,2521.26C1929.24,2524.85 1932.9,2528.23 1936.61,2531.52C1944.09,2537.96 1951.99,2543.94 1960.1,2548.53C1968.14,2553.19 1976.55,2556.61 1983.67,2557.65C1985.48,2557.93 1987.19,2558.08 1988.76,2558.08C1990.27,2558.08 1991.66,2557.94 1992.87,2557.65C1995.38,2557.1 1997.34,2556.18 1999.33,2554.67C2003.29,2551.84 2007.27,2545.31 2009.97,2537.14C2012.58,2529.15 2014.18,2519.9 2015.09,2510.34C2015.04,2502.7 2015.07,2494.94 2015.38,2487.07C2026.19,2473.23 2031.73,2457.55 2034.99,2444.86C2041.99,2417.69 2061.83,2400.23 2070.75,2393.54C2038.82,2418.07 2035.77,2466.21 2036.25,2507.38C2031.98,2556.95 2012.76,2574.95 1988.94,2574.95ZM1889.73,2516.16C1889.64,2516.15 1889.56,2516.13 1889.48,2516.11C1889.56,2516.13 1889.65,2516.15 1889.73,2516.16Z" style="fill:rgb(108,0,0);fill-rule:nonzero;"/>
                    </g>
                    <g transform="matrix(0.0930454,0,0,0.0930454,268.709,81.1889)">
                        <path d="M2071.32,2393.14C2073.02,2391.87 2074.26,2391.01 2074.87,2390.66C2073.64,2391.46 2072.45,2392.27 2071.32,2393.14Z" style="fill:rgb(128,37,54);fill-rule:nonzero;"/>
                    </g>
                    <g transform="matrix(0.0930454,0,0,0.0930454,268.709,81.1889)">
                        <path d="M2072.86,2395.21L2069.75,2391.08C2070.19,2390.74 2070.65,2390.41 2071.1,2390.08C2072.25,2389.26 2073.1,2388.69 2073.59,2388.42L2076.28,2392.84C2075.48,2393.35 2074.7,2393.87 2073.95,2394.41C2073.61,2394.66 2073.25,2394.92 2072.86,2395.21Z" style="fill:rgb(108,0,0);fill-rule:nonzero;"/>
                    </g>
                    <g transform="matrix(0.0930454,0,0,0.0930454,268.709,81.1889)">
                        <path d="M2160.57,2044.61C2163.58,1982.61 2183.53,1954.73 2210.86,1911.35C2234.65,1873.58 2267.12,1881.21 2302.11,1878.17L2160.57,2044.61Z" style="fill:rgb(214,134,0);fill-rule:nonzero;"/>
                    </g>
                    <g transform="matrix(0.0930454,0,0,0.0930454,268.709,81.1889)">
                        <path d="M2106.12,2361.36C2138.33,2325.19 2182.31,2255.89 2168.26,2156.82C2161.48,2108.91 2159.21,2073.12 2160.57,2044.61L2302.11,1878.17C2325.84,1876.09 2350.78,1869.14 2375.05,1839.91C2401.43,1808.09 2427.29,1799.17 2448.01,1799.17C2455.25,1799.17 2461.87,1800.26 2467.65,1801.85C2464.62,1802.94 2461.63,1804.21 2458.69,1805.66C2452.24,1808.93 2446.07,1813.1 2440.52,1818.29C2437.78,1820.96 2435.17,1823.77 2432.85,1826.92C2431.56,1828.5 2430.74,1829.87 2429.77,1831.32C2428.8,1832.75 2427.9,1834.21 2427.08,1835.68C2420.2,1847.49 2416.39,1859.74 2413.54,1871.11C2410.72,1882.54 2408.89,1893.26 2406.69,1903.14C2405.59,1908.15 2404.49,1912.42 2403.08,1916.79C2401.7,1921.12 2400.08,1925.26 2398.2,1929.07C2394.5,1936.73 2389.81,1943.12 2384.75,1946.85C2379.72,1950.71 2374.55,1952.21 2367.46,1952.27C2360.26,1952.13 2351.33,1950.05 2341.18,1947.14C2331.1,1944.35 2319.59,1940.84 2306.2,1939.45C2303.38,1939.2 2300.48,1939.06 2297.53,1939.06C2293.39,1939.06 2289.14,1939.34 2284.86,1940.02C2277.65,1941.29 2270.58,1943.35 2264.13,1946.4C2251.18,1952.45 2240.38,1961.32 2231.83,1971.42C2223.17,1981.51 2216.67,1992.95 2211.97,2005.17C2207.39,2017.46 2204.99,2029.56 2203.68,2041.66C2201.22,2065.81 2203.29,2088.44 2205.13,2110C2207.24,2132.65 2210.89,2153.88 2213.86,2174.95C2216.88,2195.93 2219.46,2216.63 2219.95,2236.5C2220.1,2246.45 2219.67,2255.8 2218.2,2264.93C2216.73,2274.14 2214.32,2283.24 2211.04,2291.95C2204.55,2309.39 2194.27,2325.22 2181.21,2336.66C2174.68,2342.38 2167.46,2346.96 2159.75,2350.17C2152.21,2353.48 2143.32,2355.39 2133.29,2357.03C2124.92,2358.43 2115.82,2359.52 2106.12,2361.36Z" style="fill:rgb(214,134,0);fill-rule:nonzero;"/>
                    </g>
                    <g transform="matrix(0.0930454,0,0,0.0930454,268.709,81.1889)">
                        <path d="M2075.26,2390.39C2076.26,2389.67 2089.65,2379.84 2106.12,2361.36C2115.82,2359.52 2124.92,2358.43 2133.29,2357.03C2143.32,2355.39 2152.21,2353.48 2159.75,2350.17C2167.46,2346.96 2174.68,2342.38 2181.21,2336.66C2194.27,2325.22 2204.55,2309.39 2211.04,2291.95C2214.32,2283.24 2216.73,2274.14 2218.2,2264.93C2219.67,2255.8 2220.1,2246.45 2219.95,2236.5C2219.46,2216.63 2216.88,2195.93 2213.86,2174.95C2210.89,2153.88 2207.24,2132.65 2205.13,2110C2203.29,2088.44 2201.22,2065.81 2203.68,2041.66C2204.99,2029.56 2207.39,2017.46 2211.97,2005.17C2216.67,1992.95 2223.17,1981.51 2231.83,1971.42C2240.38,1961.32 2251.18,1952.45 2264.13,1946.4C2270.58,1943.35 2277.65,1941.29 2284.86,1940.02C2289.14,1939.34 2293.39,1939.06 2297.53,1939.06C2300.48,1939.06 2303.38,1939.2 2306.2,1939.45C2319.59,1940.84 2331.1,1944.35 2341.18,1947.14C2351.33,1950.05 2360.26,1952.13 2367.46,1952.27C2374.55,1952.21 2379.72,1950.71 2384.75,1946.85C2389.81,1943.12 2394.5,1936.73 2398.2,1929.07C2400.08,1925.26 2401.7,1921.12 2403.08,1916.79C2404.49,1912.42 2405.59,1908.15 2406.69,1903.14C2408.89,1893.26 2410.72,1882.54 2413.54,1871.11C2416.39,1859.74 2420.2,1847.49 2427.08,1835.68C2427.9,1834.21 2428.8,1832.75 2429.77,1831.32C2430.74,1829.87 2431.56,1828.5 2432.85,1826.92C2435.17,1823.77 2437.78,1820.96 2440.52,1818.29C2446.07,1813.1 2452.24,1808.93 2458.69,1805.66C2461.63,1804.21 2464.62,1802.94 2467.65,1801.85C2483,1806.05 2492.52,1813.73 2492.52,1813.73C2475.39,1815.03 2458.63,1822.93 2449.01,1836.52C2434.37,1857.32 2432.17,1883.97 2426.23,1908.64C2420.37,1933.01 2407.76,1959.09 2383.94,1966.79C2378.79,1968.45 2373.61,1969.13 2368.4,1969.13C2356.86,1969.13 2345.17,1965.81 2333.37,1962.49C2321.58,1959.17 2309.7,1955.84 2297.78,1955.84C2296.39,1955.84 2295,1955.89 2293.61,1955.98C2263.52,1958.1 2239.48,1984.28 2230.23,2012.97C2220.98,2041.65 2223.47,2072.67 2226.05,2102.72C2229.95,2148.85 2245.78,2213.91 2239.81,2259.79C2233.82,2305.72 2207.07,2351.87 2163.47,2367.36C2134.62,2377.58 2100.95,2373.88 2075.26,2390.39Z" style="fill:rgb(108,0,0);fill-rule:nonzero;"/>
                    </g>
                    <g transform="matrix(1.09587,0,0,1.09587,-42.1443,-10.8537)">
                        <g transform="matrix(0.0849054,0,0,0.0849054,283.659,83.9903)">
                            <path d="M1490.33,1945.94C1472.85,2032.62 1504.81,2089.22 1549.28,2108.23C1586.72,2124.35 1632.99,2113.71 1665.89,2071.94C1681.92,2051.65 1694.73,2024.06 1701.88,1988.62C1705.16,1890.46 1510.95,1885.21 1490.33,1945.94Z" style="fill:rgb(108,0,0);fill-rule:nonzero;"/>
                        </g>
                        <g transform="matrix(0.0849054,0,0,0.0849054,283.659,83.9903)">
                            <path d="M1550.51,2083.74C1548.97,2092.46 1549.36,2101.05 1551.41,2109.09C1589.24,2124.27 1635.24,2112.48 1667.08,2069.9C1659.19,2051.68 1642.56,2037.66 1621.49,2033.95C1588.18,2028.09 1556.38,2050.37 1550.51,2083.74Z" style="fill:rgb(253,0,23);fill-rule:nonzero;"/>
                        </g>
                        <g transform="matrix(0.0849054,0,0,0.0849054,283.659,83.9903)">
                            <path d="M1504.13,1956.72C1490.68,2035.88 1522.86,2080.03 1555.39,2093.94C1588.69,2108.28 1627.27,2095.86 1653.68,2062.32C1668.03,2044.17 1678.57,2020.83 1685.07,1992.83C1643.68,1947.16 1564.23,1931.31 1504.13,1956.72ZM1584.09,2131.02C1570.29,2131.02 1556.46,2128.24 1543.14,2122.51C1498.87,2103.58 1454.46,2045.17 1475.1,1942.87C1476.06,1938.13 1479.16,1934.11 1483.49,1931.98C1574.89,1864.69 1671.92,1885.74 1714.02,1978.92C1716.89,1982.51 1718.02,1987.19 1717.12,1991.69C1709.83,2027.78 1696.71,2058.02 1678.08,2081.57C1652.82,2113.65 1618.58,2131.02 1584.09,2131.02Z" style="fill:rgb(108,0,0);fill-rule:nonzero;"/>
                        </g>
                    </g>
                    <g transform="matrix(0.0930454,0,0,0.0930454,268.709,81.1889)">
                        <path d="M1897.08,2140.96C1890.93,2159.07 1859.04,2164.61 1825.84,2153.34C1792.65,2142.07 1770.72,2118.26 1776.87,2100.16C1783.01,2082.05 1814.91,2076.51 1848.1,2087.77C1881.29,2099.04 1903.22,2122.85 1897.08,2140.96Z" style="fill:rgb(253,0,23);fill-rule:nonzero;"/>
                    </g>
                    <g transform="matrix(0.0930454,0,0,0.0930454,268.709,81.1889)">
                        <path d="M1368.6,1977.01C1362.45,1995.12 1330.56,2000.66 1297.36,1989.39C1264.17,1978.13 1242.24,1954.31 1248.39,1936.21C1254.53,1918.1 1286.42,1912.56 1319.62,1923.82C1352.81,1935.09 1374.74,1958.9 1368.6,1977.01Z" style="fill:rgb(253,0,23);fill-rule:nonzero;"/>
                    </g>
                    <g transform="matrix(0.0930454,0,0,0.0930454,268.709,81.1889)">
                        <path d="M1798.49,831.496C1792.83,831.496 1787.16,831.015 1781.92,830.285C1716.23,821.139 1650.53,811.993 1584.84,802.848C1538.51,796.398 1492.19,789.948 1445.86,783.499C1433.01,781.709 1418.58,778.966 1411.46,768.123C1403.43,755.912 1409.19,738.535 1420.23,728.964C1446.75,705.971 1487.58,699.723 1527.82,699.723C1556.46,699.723 1584.79,702.889 1607.43,705.436C1676.4,713.194 1743.99,733.635 1805.43,765.998C1823.4,775.464 1843.61,792.39 1837.52,811.763C1832.7,827.076 1815.64,831.497 1798.49,831.496Z" style="fill:rgb(237,153,86);fill-rule:nonzero;"/>
                    </g>
                    <g transform="matrix(0.0930454,0,0,0.0930454,268.709,81.1889)">
                        <path d="M2059.57,909.222C2041.1,909.222 2016.58,903.602 1989.88,895.692C1938.45,880.451 1898.42,862.484 1906,836.901C1911.02,819.969 1933.68,810.569 1963.33,810.569C1978.49,810.569 1995.46,813.021 2012.85,818.174C2064.28,833.413 2099.83,866.506 2092.25,892.089C2088.61,904.394 2076.68,909.222 2059.57,909.222Z" style="fill:rgb(237,153,86);fill-rule:nonzero;"/>
                    </g>
                    <g transform="matrix(0.0930454,0,0,0.0930454,268.709,81.1889)">
                        <path d="M1597.96,1598.9C1591.16,1598.9 1584.43,1597.45 1578.25,1594.31C1554.01,1581.98 1545.01,1550.22 1521.27,1536.97C1511.88,1531.73 1501.42,1530.02 1490.64,1530.02C1479.3,1530.02 1467.6,1531.91 1456.41,1533.54C1448.78,1534.65 1440.78,1535.5 1432.9,1535.5C1418.2,1535.5 1403.93,1532.55 1393.32,1522.85C1377.18,1508.1 1376.1,1481.36 1387.26,1462.56C1398.42,1443.76 1419.26,1432.34 1440.62,1427.66C1449.92,1425.62 1459.63,1424.72 1469.54,1424.72C1508.2,1424.72 1549.99,1438.5 1583.55,1452.52C1607.07,1462.35 1628.99,1477.88 1641.91,1499.85C1654.83,1521.81 1657.36,1550.79 1644.25,1572.65C1634.71,1588.55 1616.12,1598.9 1597.96,1598.9Z" style="fill:rgb(255,212,60);fill-rule:nonzero;"/>
                    </g>
                    <g transform="matrix(0.0930454,0,0,0.0930454,268.709,81.1889)">
                        <path d="M1659.85,1751C1655.49,1751 1651.05,1750.17 1646.97,1748.74C1632.22,1743.56 1620.1,1731.36 1615.02,1716.57C1609.95,1701.78 1612.02,1684.71 1620.48,1671.56C1626.89,1661.62 1640.33,1652.53 1652.98,1652.53C1657.68,1652.53 1662.26,1653.79 1666.34,1656.71C1681.22,1667.41 1684.09,1699.69 1685,1715.97C1685.57,1726.26 1684.58,1737.74 1677.1,1744.84C1672.5,1749.2 1666.27,1751 1659.85,1751Z" style="fill:rgb(255,212,60);fill-rule:nonzero;"/>
                    </g>
                    <g transform="matrix(0.0930454,0,0,0.0930454,268.709,81.1889)">
                        <path d="M2696.23,1770.27C2694.35,1757.44 2693.37,1744.71 2693.72,1732.29C2694.42,1713 2699.17,1694.87 2710.75,1680.14L2711.03,1679.79C2713.99,1676.03 2714.04,1670.59 2710.87,1666.75C2708.81,1664.26 2705.84,1662.97 2702.85,1662.97C2701.34,1662.97 2699.82,1663.3 2698.42,1663.97C2707.73,1650.18 2722.33,1636.45 2745.17,1627.67C2781.59,1647.22 2822,1658.65 2863.58,1660.89C2807.18,1694.47 2751.26,1731.04 2696.23,1770.27Z" style="fill:rgb(183,93,0);fill-rule:nonzero;"/>
                    </g>
                    <g transform="matrix(0.0930454,0,0,0.0930454,268.709,81.1889)">
                        <path d="M2700.63,1794.31C2700.45,1793.45 2700.28,1792.6 2700.11,1791.74C2698.59,1784.58 2697.27,1777.41 2696.23,1770.27C2751.26,1731.04 2807.18,1694.47 2863.58,1660.89C2868.62,1661.16 2873.67,1661.3 2878.74,1661.3C2884.35,1661.3 2889.99,1661.13 2895.63,1660.8C2896.52,1660.74 2897.42,1660.68 2898.31,1660.62L2895.98,1665.83L2838.64,1710.78L2743.41,1776.81L2700.63,1794.31Z" style="fill:rgb(108,0,0);fill-rule:nonzero;"/>
                    </g>
                    <g transform="matrix(0.0930454,0,0,0.0930454,268.709,81.1889)">
                        <path d="M2684.7,1800.82C2681.96,1787.41 2679.39,1773.45 2677.95,1759.76L2681.99,1710.78C2681.99,1710.78 2682.11,1706.64 2683.41,1700.11C2686.36,1693.14 2690.44,1686.86 2695.91,1681.5C2693.55,1681.5 2691.22,1681.61 2688.91,1681.82C2691.23,1676.14 2694.31,1670.04 2698.42,1663.97C2699.82,1663.3 2701.34,1662.97 2702.85,1662.97C2705.84,1662.97 2708.81,1664.26 2710.87,1666.75C2714.04,1670.59 2713.99,1676.03 2711.03,1679.79L2710.75,1680.14C2699.17,1694.87 2694.42,1713 2693.72,1732.29C2693.37,1744.71 2694.35,1757.44 2696.23,1770.27C2697.27,1777.41 2698.59,1784.58 2700.11,1791.74C2700.28,1792.6 2700.45,1793.45 2700.63,1794.31L2684.7,1800.82Z" style="fill:rgb(108,0,0);fill-rule:nonzero;"/>
                    </g>
                    <g transform="matrix(0.0930454,0,0,0.0930454,268.709,81.1889)">
                        <path d="M2878.74,1661.3C2873.67,1661.3 2868.62,1661.16 2863.58,1660.89C2822,1658.65 2781.59,1647.22 2745.17,1627.67C2752.55,1624.83 2760.79,1622.51 2769.99,1620.88L2835.44,1622.18L2907.28,1640.58L2898.31,1660.62C2897.42,1660.68 2896.52,1660.74 2895.63,1660.8C2889.99,1661.13 2884.35,1661.3 2878.74,1661.3Z" style="fill:rgb(108,0,0);fill-rule:nonzero;"/>
                    </g>
                    <g transform="matrix(0.0930454,0,0,0.0930454,268.709,81.1889)">
                        <path d="M2674.21,1805.1L2677.95,1759.76C2679.39,1773.45 2681.96,1787.41 2684.7,1800.82L2674.21,1805.1ZM2683.41,1700.11C2684.4,1695.14 2686.08,1688.79 2688.91,1681.82C2691.22,1681.61 2693.55,1681.5 2695.91,1681.5C2690.44,1686.86 2686.36,1693.14 2683.41,1700.11Z" style="fill:rgb(108,0,0);fill-rule:nonzero;"/>
                    </g>
                    <g transform="matrix(-0.311297,-0.357236,-0.386261,0.336589,1323.62,540.728)">
                        <path d="M1722,944C1721.83,944.962 1717.93,942.128 1716,941C1713.33,939.443 1708.59,937.64 1706,934.657C1703.11,931.323 1701,925.443 1698.67,921C1696.4,916.689 1694.28,911.5 1692,908C1690.07,905.03 1685.17,901.333 1685,900C1684.83,898.667 1689.17,899.196 1691,900C1693.28,901 1696.93,903.256 1698.67,906C1701.72,910.833 1706.25,924.129 1709.31,929C1711.06,931.794 1714.88,932.726 1717,935.226C1719.12,937.726 1722.17,943.038 1722,944Z" style="fill:rgb(106,11,13);"/>
                    </g>
                    <g transform="matrix(0.473839,0,0,0.512337,-398.488,-241.692)">
                        <path d="M1722,944C1721.83,944.962 1717.93,942.128 1716,941C1713.33,939.443 1708.59,937.64 1706,934.657C1703.11,931.323 1701,925.443 1698.67,921C1696.4,916.689 1694.28,911.5 1692,908C1690.07,905.03 1685.17,901.333 1685,900C1684.83,898.667 1689.17,899.196 1691,900C1693.28,901 1696.93,903.256 1698.67,906C1701.72,910.833 1706.25,924.129 1709.31,929C1711.06,931.794 1714.88,932.726 1717,935.226C1719.12,937.726 1722.17,943.038 1722,944Z" style="fill:rgb(106,11,13);"/>
                    </g>
                </g>
            </g>
        </g>
    </g>
</svg>
