<svg clip-rule="evenodd" fill-rule="evenodd" stroke-linejoin="round" stroke-miterlimit="2" viewBox="0 0 12 12"
     xmlns="http://www.w3.org/2000/svg">
    <g fill-rule="nonzero">
        <path d="m1.769 3.398c.297.246.586.515.867.808.227.239.45.493.661.754v.004c1.148 1.43 2.035 3.219 2.336 5.012.058.336.093.676.109 1.008.023.597.691.933 1.176.59.722-.504 1.355-1.258 1.847-2.184.059-.109.114-.223.168-.34.774-1.64 1.114-3.754.735-5.984-.028-.16-.055-.324-.09-.485-2.602-1.511-5.207-.843-7.809.817z"
              fill="#ffc100"/>
        <path d="m9.566 2.589c.035.156.063.317.09.481.355 2.093.094 4.218-.734 5.976-.055.114-.11.231-.168.34-.489.922-1.125 1.676-1.84 2.18-.227.156-.504.179-.75.054-.246-.121-.403-.359-.41-.636-.016-.328-.051-.668-.11-1.008-.289-1.715-1.117-3.496-2.336-5.016v-.004c-.215-.265-.437-.523-.664-.757-.277-.289-.562-.559-.855-.797 2.984-1.899 5.457-2.157 7.777-.813zm-3.238 9.117c.203.047.418.004.598-.121.718-.504 1.359-1.261 1.847-2.191.059-.109.117-.223.172-.34.828-1.762 1.09-3.887.734-5.988-.027-.168-.058-.332-.089-.489l-.008-.007c-1.246-.723-2.524-.977-3.91-.782-1.215.176-2.493.7-3.911 1.602l-.011.008.011.012c.297.242.586.511.868.804.222.235.445.488.656.75l.004.004c1.215 1.52 2.047 3.297 2.332 5.012.058.336.094.676.109 1.008.012.281.168.527.422.656.059.027.117.047.176.062z"
              fill="#6c0000"/>
        <path d="m6.488 11.617c.133.003.262-.04.379-.118.664-.468 1.277-1.179 1.766-2.078-.043.012-.086.016-.133.02h-.078c-.485.886-1.102 1.609-1.797 2.101-.047.032-.09.055-.137.075zm2.813-3.786c.429-1.39.574-3.031.269-4.789-.035-.007-.07-.019-.109-.027-.032-.008-.063-.012-.094-.02.004.012.004.024.008.04.281 1.667.16 3.273-.242 4.664.062.039.117.082.168.132z"
              fill="#ffe793"/>
        <path d="m3.172 4.081c.039-.019.078-.043.113-.066.406-.262.883-.484 1.391-.656.011-.012.027-.016.046-.016.532-.18 1.094-.308 1.664-.391.004-.031.008-.062.016-.093-.008-.032-.012-.067-.012-.102-.004-.066 0-.137.016-.203-1.129.152-2.266.496-3.141 1.059-.109.07-.226.125-.351.16.094.058.144.137.172.207 0 0 .004.004.007.008.02.027.036.054.047.086zm5.187-1.214c.356.019.695.062 1.008.128-.02-.128-.047-.257-.074-.386-.285-.059-.602-.102-.938-.125.016.051.024.101.028.152.003.078-.004.156-.024.231z"
              fill="#d68600"/>
        <path d="m9.57 3.042c-.019-.129-.047-.257-.074-.386-.039-.008-.078-.02-.117-.028-.028-.008-.055-.011-.086-.019.027.129.054.258.074.386.031.008.062.012.094.02.039.008.074.02.109.027z"
              fill="#d5a167"/>
        <path d="m5.691 9.769c.02-.012.035-.024.055-.035.035-.028.07-.055.101-.086.032-.031.055-.063.075-.098.043-.074.054-.148.035-.215-.012-.031-.031-.07-.059-.109-.027-.043-.055-.086-.082-.145-.012-.027-.019-.058-.027-.093-.004-.032-.008-.067-.004-.098.004-.059.019-.113.031-.16l.004-.02v-.015c0-.008-.004-.012-.008-.016-.004-.008-.011-.012-.019-.012h-.02c0 .004 0 .004-.004.004s0 0-.004.004h-.004c-.011.008-.023.016-.035.024-.019.015-.043.031-.07.043-.047.027-.098.05-.152.066-.016.004-.032.008-.047.012.097.316.176.636.234.949zm-1.156-3.125c.035-.086.07-.176.094-.258.031-.09.058-.18.066-.266.008-.039.008-.082.004-.121-.008-.039-.02-.074-.035-.105-.016-.035-.039-.063-.067-.082-.011-.012-.027-.02-.039-.024-.007-.003-.019-.007-.027-.007-.008-.004-.016-.004-.02-.004-.039-.008-.082-.004-.128 0-.051 0-.106.004-.168-.008h-.004c-.032-.008-.063-.02-.094-.039-.031-.016-.059-.039-.078-.067-.047-.05-.067-.113-.082-.168-.004-.031-.012-.058-.012-.085-.004-.028-.004-.059-.004-.083 0-.05.004-.101.004-.144-.004-.043-.008-.082-.019-.117 0-.004 0-.008-.004-.012 0-.004 0-.012-.004-.012 0-.007-.004-.011-.008-.019-.008-.012-.02-.024-.031-.031-.024-.02-.051-.036-.082-.043h-.008c-.016-.004-.031-.004-.047-.004-.004 0-.008 0-.012.004h-.012c-.007.003-.015.003-.027.007-.066.02-.125.071-.172.137.375.488.719 1.012 1.016 1.551z"
              fill="#b75d00"/>
        <path d="m6.308 11.785c.231.054.465.007.664-.133 1.086-.762 1.961-2.059 2.469-3.645.547-1.707.625-3.59.227-5.445-.012-.051-.059-.086-.11-.074-.05.011-.086.062-.074.113.863 4.027-.664 7.523-2.617 8.898-.199.141-.449.157-.668.051-.219-.109-.356-.324-.363-.57-.059-1.367-.489-2.836-1.254-4.25-.715-1.32-1.692-2.528-2.754-3.403-.039-.035-.098-.027-.129.012-.035.039-.027.098.012.133 2.25 1.855 3.832 4.875 3.937 7.516.012.316.188.589.469.73.062.031.129.055.191.067z"
              fill="#6c0000"/>
        <path d="m2.445 6.101c.051.125.156.223.285.254.274.066.465-.176.524-.418.004-.008.007-.02.007-.031.043-.192.028-.395.067-.59.039-.211.164-.434.379-.477.043-.008.09-.008.133.008.074.023.14.074.168.145.043.105.027.226.027.339.004.114.031.243.129.301.066.039.148.035.226.031.063-.003.125-.007.184.012.129.039.207.18.219.317.015.132-.028.269-.071.398-.062.199-.195.473-.214.68-.02.211.05.441.226.554.117.075.27.09.367.188v.004c.004.004.008.008.012.015h.004c.117.141.082.356.039.539-.066.477.312.387.559.207.023-.015.05-.023.078-.023.074.004.14.07.121.152v.004c-.02.082-.047.164-.031.246.023.129.136.227.171.352.039.16-.054.324-.179.43-.121.105-.27.175-.395.277-.144.117-.25.277-.301.453-.043.149-.046.317.043.442.098.136.289.148.411.039.078-.071.156-.137.246-.176.066-.031.136-.043.214-.031l.426-1.754-1.449-2.789-.457-.875-.523-1.008-.442-.125-.25-.059-.32-.074c.121.187-.051.488-.141.695-.09.203-.23.379-.347.571-.145.23-.25.507-.145.777z"
              fill="#ffc100"/>
        <path d="m6.097 10.714c-.054-.015-.113-.015-.168-.004-.054.008-.109.032-.156.059-.051.023-.094.055-.137.086-.019.015-.039.035-.058.051-.016.007-.027.019-.047.027-.031.016-.066.019-.102.016-.035 0-.066-.016-.093-.032-.012-.011-.024-.023-.035-.035l-.004-.008-.008-.011c-.008-.008-.012-.02-.016-.028-.015-.031-.023-.07-.027-.109s-.004-.082.004-.125.019-.082.035-.125c.031-.086.074-.164.129-.234.027-.036.054-.071.09-.102.031-.027.066-.055.105-.082.074-.055.164-.106.25-.168.043-.031.086-.066.125-.109.039-.039.074-.086.106-.137.027-.051.05-.109.058-.172.012-.062.008-.133-.012-.195-.023-.063-.054-.11-.082-.153-.027-.043-.05-.082-.066-.117s-.02-.062-.016-.101c0-.039.012-.082.024-.133l.004-.02.004-.004v-.007l.004-.016v-.031c0-.012 0-.024-.004-.035-.008-.043-.028-.086-.059-.114-.031-.031-.07-.051-.109-.062-.043-.008-.09-.008-.129.011-.012.004-.02.008-.028.012l-.015.008-.008.008c-.012.008-.02.012-.031.019-.016.012-.035.024-.055.035-.039.02-.082.04-.121.051-.039.012-.082.02-.113.016-.016 0-.032-.004-.039-.008-.012-.004-.02-.012-.028-.019-.015-.016-.023-.051-.027-.09s-.004-.082.004-.125l-.004.008c.023-.098.047-.2.043-.313 0-.055-.004-.113-.024-.172-.019-.058-.054-.113-.097-.16-.047-.047-.098-.078-.149-.102-.047-.023-.093-.039-.136-.054-.043-.02-.082-.035-.11-.059-.031-.019-.058-.047-.082-.082-.047-.062-.074-.141-.086-.226-.008-.04-.008-.082-.004-.125 0-.043.008-.086.02-.129.023-.086.055-.176.09-.266.031-.09.07-.18.101-.277.028-.094.063-.192.075-.301.007-.055.007-.109 0-.172-.008-.059-.028-.113-.055-.168-.027-.051-.067-.102-.117-.141-.024-.023-.055-.039-.082-.05-.032-.012-.067-.02-.094-.024-.063-.008-.117-.004-.164 0-.047 0-.086 0-.121-.004-.028-.008-.051-.019-.071-.043-.015-.019-.031-.054-.039-.09-.004-.019-.007-.039-.011-.062v-.063c0-.046.004-.093 0-.148 0-.051-.004-.109-.024-.168 0-.008-.004-.016-.008-.023-.004-.008-.004-.016-.007-.024-.008-.015-.016-.031-.028-.047-.019-.027-.039-.05-.066-.074-.051-.039-.11-.066-.172-.078-.031-.008-.063-.008-.098-.008-.008 0-.015.004-.023.004s-.016.004-.024.004c-.015.004-.031.008-.043.012-.058.019-.113.05-.156.086-.047.039-.086.082-.117.129-.062.093-.102.195-.125.3-.023.106-.027.207-.035.305s-.012.191-.027.277c-.004.024-.012.047-.016.067l-.008.031-.012.027c-.015.043-.031.082-.054.114-.024.035-.047.07-.078.093-.028.028-.059.047-.09.063-.035.016-.071.019-.106.019h-.027l-.027-.007c-.016 0-.036-.008-.051-.016-.067-.027-.121-.086-.156-.152-.012-.016-.016-.036-.024-.055-.008-.02-.012-.039-.016-.059-.007-.039-.015-.082-.011-.121 0-.086.019-.168.051-.25.015-.043.035-.086.058-.125.02-.039.043-.078.067-.121.05-.078.101-.16.152-.242.105-.168.207-.344.277-.535.016-.047.031-.098.043-.149.016-.046.024-.101.028-.156.003-.051 0-.109-.012-.16-.016-.055-.039-.109-.071-.152-.015-.02-.046-.024-.066-.008-.019.012-.023.035-.016.055l.004.003c.036.075.039.161.02.247-.016.085-.047.171-.086.257-.02.043-.039.082-.063.125-.019.043-.043.082-.066.125-.047.082-.098.16-.152.243-.051.078-.106.16-.16.246-.055.082-.102.175-.141.273-.035.102-.063.207-.066.32 0 .055.007.114.019.168.008.028.012.055.023.082.008.024.02.051.036.078.05.106.14.192.254.239.027.011.058.023.085.027l.047.008c.012.004.028.004.043.004.063 0 .125-.012.18-.035.059-.024.105-.059.148-.098s.079-.086.11-.133c.027-.047.051-.097.07-.148l.024-.078c.007-.028.011-.051.019-.078.035-.208.024-.403.063-.579.019-.082.05-.164.097-.234.043-.066.106-.117.172-.141.012-.004.02-.004.027-.007h.012c.004-.004.008-.004.012-.004.016 0 .031 0 .047.004.031.007.066.023.09.043.011.007.023.019.031.031.004.008.008.012.008.019.004 0 .004.008.004.012.004.004.004.008.004.012.011.035.015.074.019.117 0 .043-.004.094-.004.144 0 .024 0 .055.004.083 0 .027.008.054.012.085.015.055.035.118.082.168.019.028.047.051.078.067.031.019.062.031.098.039.062.012.117.008.168.008.046-.004.089-.008.128 0 .016 0 .032.004.047.011.012.004.028.012.039.024.028.019.051.047.067.082.015.031.027.066.035.105.004.039.004.082-.004.121-.008.086-.035.176-.066.266-.028.086-.063.176-.098.27-.035.089-.07.187-.094.289-.015.05-.023.105-.027.16s0 .109.008.164c.011.109.05.219.117.312.035.047.078.09.125.121.051.04.101.059.148.079.047.019.09.035.129.054.039.02.071.039.094.063.047.047.066.117.07.203 0 .082-.015.172-.039.266v.007c-.008.055-.011.11-.008.172.004.031.008.063.02.094s.027.066.051.094c.027.031.058.058.093.074.036.016.071.019.106.023.066.004.125-.007.18-.023.054-.016.105-.039.152-.066.027-.012.051-.028.07-.043.012-.008.024-.016.035-.024h.004c.004-.004 0-.004.004-.004s.004 0 .004-.004h.02c.008 0 .015.004.019.012.004.004.008.008.008.016v.015l-.004.02c-.012.047-.027.101-.031.16-.004.031 0 .066.004.098.008.035.015.066.027.093.027.059.055.102.082.145.028.039.047.078.059.109.019.067.008.141-.035.215-.02.035-.043.067-.075.098-.031.031-.066.058-.101.086-.074.051-.164.101-.25.16-.043.031-.086.066-.129.101-.039.04-.078.079-.109.125-.071.086-.122.184-.161.29-.035.101-.058.218-.043.335.004.059.024.122.051.176.008.016.016.031.024.043l.031.039c.019.028.047.047.074.067.059.035.121.058.188.058.066 0 .129-.015.187-.047.027-.015.055-.035.078-.054.016-.02.035-.035.051-.051.035-.031.07-.063.105-.09.075-.051.153-.082.243-.082.027.004.047-.019.05-.043 0-.023-.015-.043-.039-.047z"
              fill="#6c0000"/>
        <path d="m6.472 2.753c.024.434.454.758.961.727.504-.031.891-.406.868-.836-.028-.434-.458-.758-.961-.727-.508.032-.895.407-.868.836z"
              fill="#fd0017"/>
        <path d="m8.191 2.863c.024-.067.031-.141.027-.215-.003-.063-.015-.117-.039-.172-.035-.004-.07-.004-.105-.008.066.102.109.219.117.344z"
              fill="#ff959a"/>
        <path d="m7.047 3.765c.093.02.195.027.296.023.403-.023.727-.265.833-.578-.172.2-.434.332-.739.352-.109.004-.219-.004-.32-.027-.332-.075-.598-.297-.691-.586-.012 0-.028.003-.04.003-.003.036-.003.075-.003.11.019.344.296.617.664.703z"
              fill="#d68600"/>
        <path d="m6.386 2.952c.012 0 .028-.003.04-.003-.012-.032-.016-.059-.024-.09-.008.031-.012.062-.016.093z"
              fill="#b75d00"/>
        <path d="m7.152 3.374c.086.02.18.028.274.024.367-.024.664-.238.761-.52-.16.168-.394.282-.66.297-.105.004-.207-.004-.301-.023-.332-.078-.59-.309-.648-.61-.02.067-.031.137-.024.207.016.305.266.551.598.625z"
              fill="#d2000e"/>
        <path d="m7.621 2.023c.328.074.578.32.597.625.024.387-.332.722-.792.75-.458.027-.852-.266-.872-.649-.023-.386.329-.722.789-.75.094-.007.188.004.278.024zm-.504 1.512c.101.023.211.031.32.027.551-.035.973-.449.946-.926-.032-.473-.5-.836-1.051-.801-.547.035-.973.45-.942.922.024.383.325.688.727.778z"
              fill="#6c0000"/>
        <path d="m7.668 8.39c.027.43.457.754.961.723.507-.032.894-.403.871-.836-.028-.43-.457-.754-.965-.727-.504.031-.891.406-.867.84z"
              fill="#fd0017"/>
        <path d="m8.199 9.417c.074.016.148.024.223.024.058-.106.113-.215.168-.324-.09 0-.176-.008-.258-.028-.031-.008-.063-.015-.094-.023-.289-.098-.504-.317-.559-.59-.003-.027-.007-.059-.011-.086 0-.043 0-.086.004-.129-.094.133-.145.289-.133.453.019.344.297.617.66.703z"
              fill="#d68600"/>
        <path d="m8.422 9.441h.078c.047-.004.09-.008.133-.02.062-.105.117-.219.175-.332-.058.012-.117.02-.179.024-.012 0-.024.004-.039.004-.055.109-.11.218-.168.324z"
              fill="#d5a167"/>
        <path d="m8.633 9.421c.046-.008.089-.019.132-.031.059-.109.114-.223.168-.34-.039.016-.082.027-.125.039-.058.113-.113.227-.175.332z"
              fill="#6c0000"/>
        <path d="m8.332 9.089c.082.02.168.028.258.028.015 0 .027-.004.039-.004.062-.004.121-.012.179-.024.043-.012.086-.023.125-.039-.011.004-.023.008-.031.012-.086.027-.176.047-.273.051-.102.007-.203 0-.297-.024-.031-.008-.063-.015-.094-.023.031.008.063.015.094.023zm-.653-.613c-.003-.027-.007-.055-.011-.082v-.082c.004-.016.004-.035.004-.051-.004.043-.004.086-.004.129.004.027.008.059.011.086z"
              fill="#d2000e"/>
        <path d="m8.23 9.062c-.281-.098-.496-.313-.551-.582.055.269.27.484.551.582zm-.469-1.059v-.004zm0-.004c.036-.054.075-.109.122-.156.027-.031.054-.055.085-.082-.085.07-.156.149-.207.238z"
              fill="#d68600"/>
        <path d="m8.332 9.089c.094.024.195.031.297.024.097-.004.187-.024.273-.051.012-.004.02-.008.031-.012.184-.066.336-.187.438-.332.015-.039.023-.078.031-.121-.144.098-.32.16-.512.172-.105.004-.207-.004-.3-.027-.368-.082-.641-.356-.661-.7-.003-.047-.003-.093.004-.14-.09.062-.168.136-.226.222.035-.101.094-.199.176-.281-.047.047-.086.102-.122.156v.004c-.046.078-.074.168-.089.258h.004c-.004.016-.004.035-.008.051v.082c.004.027.008.058.011.086.055.269.27.484.551.582.035.012.067.019.102.027z"
              fill="#d2000e"/>
        <path d="m8.332 9.089c.094.024.195.031.297.024-.102.007-.203 0-.297-.024zm.57-.027c.008-.004.02-.008.031-.012-.011.004-.019.008-.031.012zm-1.234-.75c.004-.016.004-.035.008-.051h-.004c0 .016 0 .035-.004.051z"
              fill="#b30007"/>
        <path d="m9.371 8.718c.09-.129.137-.281.129-.441v-.004.004c.008.16-.039.312-.129.441z" fill="#82f9fe"/>
        <path d="m7.968 7.761c.153-.117.348-.195.567-.211.078-.004.148 0 .223.012-.075-.012-.145-.016-.223-.012-.219.016-.414.094-.567.211z"
              fill="#ffe793"/>
        <path d="m9.371 8.718c.09-.129.137-.281.129-.441v-.004c-.024-.34-.301-.613-.664-.696-.028-.007-.055-.011-.078-.015-.075-.012-.145-.016-.223-.012-.219.016-.414.094-.567.211-.015.047-.027.094-.035.141.145-.098.321-.16.512-.172.106-.004.207.004.301.023.363.086.64.36.66.703.004.047.004.094-.004.141.02-.012.035-.027.055-.039-.024.055-.051.109-.086.16z"
              fill="#ffa1a6"/>
        <path d="m9.371 8.718c.035-.051.062-.105.086-.16-.02.012-.035.027-.055.039-.008.043-.016.082-.031.121z"
              fill="#f19ea2"/>
        <path d="m7.883 7.843c.027-.031.054-.055.085-.082-.031.027-.058.051-.085.082z" fill="#efcf95"/>
        <path d="m7.707 8.124c.058-.086.136-.16.226-.222.008-.047.02-.094.035-.141-.031.027-.058.051-.085.082-.082.082-.141.18-.176.281z"
              fill="#f19ea2"/>
        <path d="m8.82 7.656c.121.027.231.078.328.152.16.121.258.289.27.473.011.187-.067.363-.211.504-.149.144-.356.234-.582.246-.223.015-.442-.047-.606-.172-.164-.121-.258-.293-.269-.477-.012-.183.062-.363.211-.504.148-.144.355-.23.582-.246.093-.004.187.004.277.024zm-.508 1.515c.106.024.211.031.324.024.262-.016.504-.118.684-.289.18-.176.273-.399.258-.633-.012-.235-.129-.446-.332-.598-.195-.148-.449-.223-.715-.207-.262.02-.508.121-.684.293-.179.176-.273.399-.257.633.011.234.128.445.332.598.113.085.246.144.39.179z"
              fill="#6c0000"/>
        <path d="m4.754 4.382c.023.356.379.625.793.598.418-.024.738-.332.718-.688-.023-.359-.379-.625-.797-.601-.414.027-.734.336-.714.691z"
              fill="#fd0017"/>
        <path d="m5.207 5.347c.078.02.164.027.25.02.414-.024.734-.332.715-.692 0-.012-.004-.019-.004-.031-.117.176-.328.308-.578.336h-.043c-.02.004-.036.004-.051.004-.07 0-.133-.008-.195-.024-.157-.035-.29-.109-.387-.215-.086-.089-.141-.203-.156-.328-.071.106-.106.223-.098.352.019.281.246.512.547.578z"
              fill="#d68600"/>
        <path d="m5.301 4.96c.062.016.125.024.195.024-.07 0-.133-.008-.195-.024-.02-.004-.036-.008-.055-.011l-.004-.004h-.008c-.004 0-.004 0-.004-.004h-.008c-.004 0-.004 0-.004-.004h-.007s-.004 0-.004-.004h-.008c0-.004-.004-.004-.004-.004h-.008c-.019-.008-.039-.019-.058-.027h-.004v-.004h-.008v-.004h-.008v-.004h-.008v-.004h-.008v-.004c-.07-.035-.128-.082-.179-.137.097.106.23.18.387.215zm.289.02c.25-.028.461-.16.578-.336-.09.137-.239.246-.414.301-.051.015-.106.027-.164.035z"
              fill="#d2000e"/>
        <path d="m5.504 4.984c.015 0 .027 0 .043-.004h.011-.011c-.012.004-.028.004-.043.004zm.054-.004h.004zm-.8-.563c0-.011-.004-.023-.004-.035v-.039.039c0 .012.004.024.004.035z"
              fill="#d68600"/>
        <path d="m5.301 4.96c.066.016.132.024.203.024.015 0 .031 0 .043-.004h.015c.067-.004.129-.016.192-.035.175-.055.324-.164.414-.301.019-.027.035-.059.047-.086.003-.027.003-.051 0-.074-.129.14-.329.238-.555.254-.086.004-.168-.004-.246-.02-.301-.07-.531-.297-.547-.578v-.008c-.047.055-.086.11-.113.172v.078c0 .012.004.024.004.035.023.2.152.368.335.465v.004h.008v.004h.008v.004h.008v.004h.008v.004h.004c.019.008.039.019.058.027h.008s.004 0 .004.004h.008c0 .004.004.004.004.004h.007c0 .004 0 .004.004.004h.008c0 .004 0 .004.004.004h.008l.004.004c.019.003.035.007.055.011z"
              fill="#d2000e"/>
        <path d="m5.496 4.984c.015 0 .031 0 .051-.004-.016.004-.028.004-.043.004zm.051-.004h.004zm-.633-.235c-.086-.089-.141-.203-.156-.328.015.125.07.239.156.328z"
              fill="#b75d00"/>
        <path d="m5.301 4.96c.062.016.125.024.195.024h.008c-.071 0-.137-.008-.203-.024-.02-.004-.036-.008-.055-.011.019.003.035.007.055.011zm-.055-.011-.004-.004zm-.004-.004h-.004zm-.008 0c-.004 0-.004 0-.004-.004 0 .004 0 .004.004.004zm-.004-.004h-.004zm-.008 0c-.004 0-.004 0-.004-.004 0 .004 0 .004.004.004zm-.007-.004h-.004zm-.008-.004h-.004zm-.012-.004h-.004zm-.078-.035h-.004zm-.008-.004h-.004zm-.004 0h-.004zm-.004-.004h-.004zm-.008 0v-.004zm0-.004c-.183-.097-.312-.265-.335-.465.015.125.07.239.156.328.051.055.109.102.179.137zm.661.063c.175-.055.324-.164.414-.301-.09.137-.239.246-.414.301z"
              fill="#b30007"/>
        <path d="m4.754 4.304c.007-.098.043-.191.097-.273.008-.012.016-.028.028-.039.054-.071.121-.133.203-.18-.188.109-.313.289-.328.492zm1.476.215c.028-.074.039-.149.035-.227-.007-.136-.066-.257-.156-.359.09.102.149.223.156.359.004.078-.007.153-.035.227zm-1.148-.707v-.004z"
              fill="#ffe485"/>
        <path d="m4.754 4.304c.007-.098.043-.191.097-.273-.054.082-.09.175-.097.273zm1.461.254c.007-.016.011-.027.015-.039.028-.074.039-.149.035-.227-.007-.136-.066-.257-.156-.359-.098-.106-.234-.184-.391-.223-.078-.015-.164-.023-.25-.019-.14.011-.273.051-.386.117v.004c-.082.047-.149.109-.203.18-.012.046-.016.093-.012.14.129-.14.328-.238.555-.254.086-.004.168.004.246.02.304.07.531.297.547.582v.004c.015-.016.027-.032.039-.047-.008.043-.024.082-.039.121z"
              fill="#ff959a"/>
        <path d="m4.851 4.031c.008-.012.016-.028.028-.039-.012.011-.02.027-.028.039z" fill="#eec988"/>
        <path d="m4.754 4.304c.027-.062.066-.117.113-.172-.004-.047 0-.094.012-.14-.012.011-.02.027-.028.039-.054.082-.09.175-.097.273zm1.461.254c.015-.039.031-.078.039-.121-.012.015-.024.031-.039.047.003.023.003.047 0 .074z"
              fill="#ee9296"/>
        <path d="m5.699 3.792c.098.024.191.063.269.121.129.098.208.235.215.383.008.149-.05.293-.168.406-.121.118-.289.188-.472.196-.184.012-.356-.035-.492-.137-.129-.101-.208-.234-.215-.383-.008-.148.05-.293.168-.406.121-.117.289-.187.472-.199.075-.004.153.004.223.019zm-.418 1.25c.09.02.18.028.273.02.219-.012.422-.098.575-.242.152-.149.23-.336.218-.535-.011-.196-.113-.375-.281-.504-.168-.121-.379-.184-.601-.172-.219.015-.426.101-.575.246-.152.144-.23.336-.218.531.011.199.113.379.281.504.098.074.207.125.328.152z"
              fill="#6c0000"/>
        <path d="m1.429 2.663c.008.137.047.274.106.403.297.64 1.094.847 1.68.469 1.707-1.106 4.578-1.43 6.363-.954.879.204 1.43-1.285.562-1.937-1.55-.777-6.945-.254-8.445 1.301-.187.191-.289.449-.266.718z"
              fill="#e77e26"/>
        <path d="m2.336 3.605c.285.062.582.012.828-.149.816-.527 1.949-.914 3.191-1.086 1.094-.152 2.196-.125 3.059.075.062.011.125.027.183.043l.004.004c.375.082.645-.184.774-.461.082-.18.125-.399.101-.618-.179.27-.465.438-.793.36h-.015c-.09-.028-.176-.051-.27-.071-1.785-.406-4.465-.101-6.105.922-.278.176-.598.219-.887.153-.309-.071-.586-.266-.746-.563-.039.039-.07.078-.098.121-.035.102-.051.211-.043.321.012.125.047.25.102.371.125.273.359.472.652.558.02.008.043.012.063.02z"
              fill="#c3581a"/>
        <path d="m1.66 2.214s0-.004.004-.004c1.347-1.394 5.832-1.957 7.859-1.496.231.051.43.117.586.196.18.132.297.304.363.488-.027-.25-.144-.492-.382-.672-.149-.074-.336-.137-.555-.188-.859-.195-2.211-.211-3.625-.023-1.938.254-3.492.812-4.149 1.492-.05.051-.089.106-.125.164.008.016.016.028.024.043z"
              fill="#f6c5a0"/>
        <path d="m1.562 2.335c.028-.043.059-.082.098-.121-.008-.015-.016-.027-.024-.043-.031.051-.058.106-.074.164z"
              fill="#e5b49a"/>
        <path d="m9.414 2.445c-.863-.2-1.965-.227-3.059-.075-1.242.172-2.375.559-3.191 1.086-.266.172-.59.219-.891.129-.293-.086-.527-.285-.652-.558-.055-.121-.09-.246-.102-.371l-.09.007.09-.007c-.019-.235.071-.469.242-.649.657-.68 2.211-1.238 4.149-1.492 1.773-.234 3.453-.148 4.18.211.453.344.464.914.285 1.305-.129.277-.399.543-.774.461l-.004-.004c-.058-.016-.121-.032-.183-.043zm-7.121 1.343c.332.075.683.012.972-.175 1.774-1.145 4.645-1.383 6.289-.942h.004c.399.094.785-.129.985-.562.211-.457.191-1.133-.348-1.539-.004-.004-.008-.008-.016-.008-.765-.387-2.449-.477-4.293-.235-.914.122-1.773.313-2.488.559-.808.281-1.406.613-1.773.992-.207.215-.313.504-.289.793.011.145.05.293.113.434.148.32.43.562.773.664.024.004.047.012.071.019z"
              fill="#6c0000"/>
        <path d="m1.668 2.12c.07-.07.152-.132.242-.175.086-.043.183-.071.281-.075.195-.007.395.063.551.192.074.062.141.14.191.226.051.086.082.184.098.278.02.097.02.199.012.301-.012.101-.039.203-.071.308-.004.02.008.035.024.039.012.004.023 0 .031-.008.082-.086.141-.191.176-.308.035-.113.043-.242.023-.363-.019-.122-.066-.239-.129-.344-.066-.106-.144-.196-.238-.274s-.199-.14-.316-.179c-.114-.039-.239-.059-.36-.055-.125.008-.246.039-.355.094-.11.05-.211.125-.293.211-.039.039-.039.097 0 .132.035.04.094.04.133 0z"
              fill="#6c0000"/>
        <path d="m6.656 10.535c.004.003.012.003.016.003.062.008.113-.019.117-.062.004-.035-.031-.07-.082-.082-.004 0-.012-.004-.016-.004-.062-.008-.113.023-.117.062-.004.036.031.071.082.083z"
              fill="#d68600"/>
        <path d="m6.957 7.863c.011.004.023.004.035.004.082.007.152-.036.156-.094.004-.047-.043-.09-.109-.106-.012-.004-.024-.004-.035-.007-.082-.004-.153.039-.157.093-.004.051.043.094.11.11z"
              fill="#d68600"/>
        <path d="m6.578 7.952c.004.004.008.004.015.004.036.004.071-.015.071-.043 0-.023-.02-.043-.051-.05h-.016c-.039-.004-.07.015-.07.043-.004.019.02.043.051.046z"
              fill="#d68600"/>
        <path d="m4.715 3.433c.003.004.007.004.011.004.039.004.071-.016.075-.039.003-.024-.02-.047-.051-.055h-.028c-.015.004-.031.008-.046.016-.008.004-.012.011-.012.023-.004.024.019.043.051.051z"
              fill="#d68600"/>
        <path d="m4.676 3.359c.015-.008.031-.012.046-.016-.019 0-.035.004-.046.016z" fill="#b75d00"/>
        <path d="m7.179 10.519c.008.004.016.004.028.004.094.012.176-.031.183-.094.004-.059-.05-.113-.132-.133-.008-.004-.016-.004-.028-.004-.094-.011-.176.032-.183.098-.004.055.05.113.132.129z"
              fill="#d68600"/>
        <path d="m4.367 3.722c.008.004.016.004.027.008.094.008.176-.035.184-.098.004-.058-.051-.113-.133-.133-.008 0-.016-.004-.027-.004-.094-.011-.176.032-.184.098-.004.059.051.113.133.129z"
              fill="#d68600"/>
        <path d="m7.383 9.179c-.075-.18-.145-.207-.207-.184-.059.028-.083.098-.008.278.078.179.187.301.25.277.058-.027.043-.191-.035-.371z"
              fill="#00a15b"/>
        <path d="m5.617 6.699c-.07-.161-.133-.188-.188-.164-.05.023-.074.085-.003.246.066.16.167.273.218.25.055-.024.043-.172-.027-.332z"
              fill="#00a15b"/>
        <path d="m8.781 3.671c.184-.058.223-.125.203-.187-.019-.063-.09-.094-.273-.035-.184.058-.317.156-.297.218.019.063.183.063.367.004z"
              fill="#00a15b"/>
        <path d="m7.008 4.503c-.129-.144-.204-.148-.254-.105-.047.043-.047.121.082.262.129.144.273.226.32.183s-.02-.195-.148-.34z"
              fill="#00a15b"/>
        <path d="m2.75 6.281h.008l.027.007h.027c.035 0 .071-.003.106-.019.031-.016.062-.035.09-.063.031-.023.054-.058.078-.093.023-.032.039-.071.054-.114l.012-.027.008-.031c0-.004.004-.008.004-.012-.074.016-.133.016-.184.004-.262-.059-.195-.477.137-.973.105-.16.176-.312.219-.449.054-.176-.032-.359-.192-.43.008.02.016.039.02.059.012.051.015.109.012.16-.004.055-.012.11-.028.156-.012.051-.027.102-.043.149-.07.191-.172.367-.277.535-.051.082-.102.164-.152.242-.024.043-.047.082-.067.121-.023.039-.043.082-.058.125-.032.082-.051.164-.051.25-.004.039.004.082.011.121.004.02.008.039.016.059.008.019.012.039.024.055.035.066.089.125.156.152.015.008.027.012.043.016z"
              fill="#d68600"/>
    </g>
    <path d="m9.035 5.781c.039-.079.113-.25.094-.329-.043-.167-.114-.226-.203-.246-.09-.015-.379-.007-.504.028-.098.035-.227.164-.239.207-.011.047-.054.191-.019.269.043.09.148.223.265.258.122.035.356-.012.457-.043.067-.019.118-.082.149-.144z"
          fill="#fff"/>
    <path d="m8.742 5.952c-.086 0-.231.004-.281-.089-.051-.098-.067-.176-.043-.262.019-.086.066-.145.109-.172.043-.031.094-.078.199-.082.106-.004.164.031.219.074.066.055.106.172.109.219.004.07-.035.152-.082.223-.043.07-.148.089-.23.089z"
          fill="#231f20"/>
    <path d="m9.129 5.761c-.039.063-.106.156-.219.215-.102.051-.363.082-.496.043s-.278-.129-.309-.277c-.027-.141.004-.231.074-.356.086-.152.164-.191.344-.246.137-.043.278-.016.375.004.141.031.238.101.285.297.039.16-.031.281-.054.32zm-.094-.059c.016-.031.066-.117.039-.234-.035-.141-.098-.191-.195-.215-.086-.015-.207-.043-.321-.008-.144.047-.211.075-.281.196-.059.097-.082.168-.062.277.023.109.132.164.234.195.109.032.324.004.41-.039.094-.043.145-.121.176-.172z"
          fill="#6a0b0d"/>
    <path d="m7.047 5.972c.039-.078.109-.242.089-.32-.039-.16-.105-.219-.195-.235-.086-.019-.363-.011-.484.028-.098.027-.223.156-.231.199-.011.043-.054.18-.019.258.043.086.144.215.258.246.117.035.343-.008.437-.039.066-.02.117-.078.145-.137z"
          fill="#fff"/>
    <path d="m6.765 6.136c-.082 0-.222.004-.273-.09-.051-.09-.063-.168-.043-.25.023-.082.07-.14.109-.168.039-.027.09-.074.192-.078.101-.004.156.031.211.07.066.055.101.168.105.211.004.071-.035.149-.078.219-.043.067-.141.086-.223.086z"
          fill="#231f20"/>
    <path d="m7.117 5.988c-.074.109-.133.136-.254.187-.148.067-.281.059-.41.027-.106-.019-.172-.05-.219-.097-.035-.035-.058-.074-.078-.133-.047-.125-.035-.277.023-.379.094-.16.164-.18.336-.234.129-.043.344-.016.438.004.055.011.109.031.152.078.043.043.078.109.086.207.02.156-.019.258-.074.34zm-.09-.067c.043-.058.07-.14.055-.261-.008-.067-.028-.11-.055-.141-.027-.027-.062-.039-.098-.047-.082-.016-.269-.043-.378-.008-.141.043-.2.055-.278.188-.039.074-.047.187-.015.281.039.102.089.133.218.16.11.024.219.035.344-.019.098-.043.145-.063.207-.153z"
          fill="#6a0b0d"/>
    <path d="m2.734 6.359c.27.058.461-.18.52-.422.004-.008.007-.02.007-.031-.019.004-.039.007-.058.015-.016.004-.027.004-.039.008 0 .004-.004.008-.004.012l-.008.031-.012.027c-.015.043-.031.082-.054.114-.024.035-.047.07-.078.093-.028.028-.059.047-.09.063-.035.016-.071.019-.106.019h-.027l-.027-.007h-.008c-.016-.004-.028-.008-.043-.016-.067-.027-.121-.086-.156-.152-.012-.016-.016-.036-.024-.055-.008-.02-.012-.039-.016-.059-.007-.039-.015-.082-.011-.121 0-.086.019-.168.051-.25.015-.043.035-.086.058-.125.02-.039.043-.078.067-.121.05-.078.101-.16.152-.242.105-.168.207-.344.277-.535.016-.047.031-.098.043-.149.016-.046.024-.101.028-.156.003-.051 0-.109-.012-.16-.004-.02-.012-.039-.02-.059-.011-.004-.023-.011-.035-.015.004.035.004.066.004.086.016.082-.004.175-.035.269l-.027.207-.043-.031c-.024.055-.051.109-.071.156-.09.203-.23.379-.347.571-.145.23-.25.507-.145.777.051.125.156.223.285.254z"
          fill="#6c0000" fill-rule="nonzero"/>
    <path d="m5.402 10.945c.008.004.02.004.027.004.036.003.071 0 .102-.016.02-.008.031-.02.047-.027.019-.016.039-.036.058-.051.036-.028.075-.051.114-.074-.039 0-.071-.004-.102-.012-.258-.059-.211-.379.024-.539.281-.184.382-.305.586-.676.199-.375-.125-.574-.125-.574s.121-.305-.161-.399c.016.024.028.051.032.079.004.011.004.023.004.035v.031l-.004.016v.007l-.004.004-.004.02c-.012.051-.024.094-.024.133-.004.039 0 .066.016.101s.039.074.066.117c.028.043.059.09.082.153.02.062.024.133.012.195-.008.063-.031.121-.058.172-.032.051-.067.098-.106.137-.039.043-.082.078-.125.109-.086.062-.176.113-.25.168-.039.027-.074.055-.105.082-.036.031-.063.066-.09.102-.055.07-.098.148-.129.234-.016.043-.027.082-.035.125s-.008.086-.004.125.012.078.027.109c.004.008.008.02.016.028l.008.011.004.008c.011.012.023.024.035.035.019.012.043.024.066.028z"
          fill="#d68600" fill-rule="nonzero"/>
    <path d="m5.379 11.015c.086.02.183-.004.254-.066.078-.071.156-.137.246-.176-.016-.004-.036-.004-.059 0-.027.004-.047.004-.07.008-.039.023-.078.046-.114.074-.019.015-.039.035-.058.051-.016.007-.027.019-.047.027-.031.016-.066.019-.102.016-.007 0-.019 0-.027-.004-.023-.004-.047-.016-.066-.028-.012-.011-.024-.023-.035-.035l-.004-.008-.008-.011c-.008-.008-.012-.02-.016-.028-.015-.031-.023-.07-.027-.109s-.004-.082.004-.125.019-.082.035-.125c.031-.086.074-.164.129-.234.027-.036.054-.071.09-.102.031-.027.066-.055.105-.082.074-.055.164-.106.25-.168.043-.031.086-.066.125-.109.039-.039.074-.086.106-.137.027-.051.05-.109.058-.172.012-.062.008-.133-.012-.195-.023-.063-.054-.11-.082-.153-.027-.043-.05-.082-.066-.117s-.02-.062-.016-.101c0-.039.012-.082.024-.133l.004-.02.004-.004v-.007l.004-.016v-.031c0-.012 0-.024-.004-.035-.004-.028-.016-.055-.032-.079-.011-.004-.027-.007-.039-.011-.039-.008-.086-.016-.14-.016.008 0 .015.004.023.004.063.016.113.074.098.148v.004c-.02.082-.047.164-.031.246.023.129.136.227.171.352.039.16-.054.324-.179.43-.121.105-.27.175-.395.277-.144.117-.25.277-.301.453-.043.149-.046.317.043.442.039.054.094.089.157.105z"
          fill="#6c0000" fill-rule="nonzero"/>
    <path d="m5.312 8.64c.008.004.016.004.024.004.031.004.074-.004.113-.016.039-.011.082-.031.121-.051.02-.011.039-.023.055-.035h.004c-.016-.004-.028-.007-.043-.011-.18-.039-.274-.133-.321-.231-.004.035-.011.07-.019.106-.008.043-.008.082-.004.121s.012.074.027.09c.008.007.016.015.028.019.004 0 .011.004.015.004z"
          fill="#d68600" fill-rule="nonzero"/>
    <path d="m5.297 8.714c.117.028.285-.043.418-.137.023-.015.05-.023.074-.023-.059 0-.113-.004-.16-.012h-.004c-.016.012-.035.024-.055.035-.039.02-.082.04-.121.051-.039.012-.082.02-.113.016-.008 0-.016 0-.024-.004-.004 0-.011-.004-.015-.004-.012-.004-.02-.012-.028-.019-.015-.016-.023-.051-.027-.09s-.004-.078.004-.121c.008-.036.015-.071.019-.106-.031-.07-.039-.144-.043-.207-.004-.125-.074-.223-.105-.262.117.141.082.356.039.539-.031.223.035.321.141.344zm.492-.16h.004z"
          fill="#6c0000" fill-rule="nonzero"/>
    <path d="m5.113 7.831c-.004-.007-.008-.015-.012-.015.004.004.008.008.012.015z" fill="#802536" fill-rule="nonzero"/>
    <path d="m5.105 7.835.02-.011c-.004-.004-.016-.016-.016-.016l-.016.016c.004.003.004.003.008.007 0 .004.004.004.004.004z"
          fill="#6c0000" fill-rule="nonzero"/>
    <path d="m5.07 6.199c.047-.278-.012-.418-.09-.637-.066-.192-.219-.192-.367-.238z" fill="#d68600"
          fill-rule="nonzero"/>
    <path d="m4.992 7.656c-.106-.196-.231-.543-.07-.969.078-.203.125-.36.148-.488l-.457-.875c-.102-.036-.207-.09-.281-.243-.086-.168-.192-.234-.281-.254-.032-.007-.063-.007-.09-.007.011.007.023.015.035.023.027.024.047.047.066.074.012.016.02.032.028.047.003.008.003.016.007.024.004.007.008.015.008.023.02.059.024.117.024.168.004.055 0 .102 0 .148v.063c.004.023.007.043.011.062.008.036.024.071.039.09.02.024.043.035.071.043.035.004.074.004.121.004.047-.004.101-.008.164 0 .012 0 .023.004.039.008s.035.008.055.016c.027.011.058.027.082.05.05.039.09.09.117.141.027.055.047.109.055.168.007.063.007.117 0 .172-.012.109-.047.207-.075.301-.031.097-.07.187-.101.277-.035.09-.067.18-.09.266-.012.043-.02.086-.02.129-.004.043-.004.085.004.125.012.085.039.164.086.226.024.035.051.063.082.082.028.024.067.039.11.059.035.015.074.027.113.047z"
          fill="#d68600" fill-rule="nonzero"/>
    <path d="m5.101 7.812c-.004-.004-.054-.059-.109-.156-.039-.02-.078-.032-.113-.047-.043-.02-.082-.035-.11-.059-.031-.019-.058-.047-.082-.082-.047-.062-.074-.141-.086-.226-.008-.04-.008-.082-.004-.125 0-.043.008-.086.02-.129.023-.086.055-.176.09-.266.031-.09.07-.18.101-.277.028-.094.063-.192.075-.301.007-.055.007-.109 0-.172-.008-.059-.028-.113-.055-.168-.027-.051-.067-.102-.117-.141-.024-.023-.055-.039-.082-.05-.02-.008-.039-.012-.055-.016s-.027-.008-.039-.008c-.063-.008-.117-.004-.164 0-.047 0-.086 0-.121-.004-.028-.008-.051-.019-.071-.043-.015-.019-.031-.054-.039-.09-.004-.019-.007-.039-.011-.062v-.063c0-.046.004-.093 0-.148 0-.051-.004-.109-.024-.168 0-.008-.004-.016-.008-.023-.004-.008-.004-.016-.007-.024-.008-.015-.016-.031-.028-.047-.019-.027-.039-.05-.066-.074-.012-.008-.024-.016-.035-.023-.071.004-.121.027-.121.027.074.023.14.074.168.145.043.105.027.226.027.339.004.114.031.243.129.301.023.012.043.02.066.028.051.011.106.007.16.003.055-.003.114-.003.164.008.008 0 .012 0 .02.004.129.039.207.18.219.317.015.132-.028.269-.071.398-.062.199-.195.473-.214.68-.02.211.05.441.226.554.117.075.27.09.367.188z"
          fill="#6c0000" fill-rule="nonzero"/>
    <path d="m8.113 6.433c-.012.402-.207.621-.422.66-.18.031-.371-.058-.476-.277-.051-.106-.079-.242-.075-.406.082-.438.942-.266.973.023z"
          fill="#6c0000" fill-rule="nonzero"/>
    <path d="m7.711 6.984c0 .039-.012.078-.028.109-.183.031-.375-.066-.472-.289.054-.07.14-.117.238-.113.152.008.269.14.262.293z"
          fill="#fd0017" fill-rule="nonzero"/>
    <path d="m8.043 6.468c-.02.363-.207.527-.364.555-.16.031-.316-.063-.402-.238-.043-.094-.066-.208-.066-.34.226-.16.59-.149.832.023zm-.528.692c.063.011.125.015.188.003.215-.043.469-.253.48-.726 0-.024-.011-.043-.027-.059-.336-.386-.781-.39-1.059-.023-.015.015-.027.035-.027.055-.004.167.023.312.082.437.078.164.211.277.363.313z"
          fill="#6c0000" fill-rule="nonzero"/>
    <path d="m6.133 6.89c.007.086.14.141.3.125.157-.016.278-.102.266-.188-.008-.085-.145-.14-.301-.125-.156.016-.277.102-.265.188z"
          fill="#fd0017" fill-rule="nonzero"/>
    <path d="m8.617 6.695c.008.086.144.14.301.125.156-.016.277-.102.265-.188-.007-.086-.14-.14-.3-.125-.157.016-.274.102-.266.188z"
          fill="#fd0017" fill-rule="nonzero"/>
    <path d="m7.867 1.199c.023.007.051.007.074.011.297.024.594.051.895.075.207.019.418.039.629.054.058.004.125.008.164-.031.05-.047.043-.129.004-.184-.094-.129-.27-.195-.446-.238-.125-.027-.254-.043-.355-.055-.313-.031-.629-.011-.93.071-.09.023-.195.078-.187.172.007.07.078.109.152.125z"
          fill="#ed9956" fill-rule="nonzero"/>
    <path d="m6.64 1.281c.082.019.196.019.321.011.242-.015.437-.054.429-.175-.007-.082-.097-.145-.226-.176-.067-.016-.145-.02-.227-.016-.242.016-.429.129-.422.246.004.059.051.094.125.11z"
          fill="#ed9956" fill-rule="nonzero"/>
    <path d="m7.984 4.792c.031.008.063.008.09 0 .121-.031.191-.164.309-.195.046-.016.093-.012.14-.004.051.012.102.035.149.051.031.012.066.023.101.031.063.016.129.02.188-.015.086-.047.117-.165.086-.258-.032-.098-.11-.168-.2-.211-.039-.016-.082-.031-.125-.039-.171-.039-.367-.02-.527.008-.113.019-.227.066-.305.152-.078.082-.117.207-.082.316.024.082.098.145.176.164z"
          fill="#ffd43c" fill-rule="nonzero"/>
    <path d="m7.562 5.402c.02.004.039.008.059.004.07-.008.133-.051.172-.11.035-.062.043-.14.019-.207-.015-.047-.066-.101-.121-.113-.023-.008-.043-.004-.066.004-.074.031-.117.172-.141.242-.012.047-.019.098.008.137.016.023.043.039.07.043z"
          fill="#ffd43c" fill-rule="nonzero"/>
    <path d="m2.988 4.452c.02-.054.039-.113.047-.167.019-.086.016-.172-.02-.247l-.004-.003c-.007-.02-.003-.043.016-.055.012-.012.024-.012.039-.012.008.004.012.008.02.012-.028-.07-.078-.149-.172-.207-.18.047-.367.058-.551.027.211.203.422.422.625.652z"
          fill="#b75d00" fill-rule="nonzero"/>
    <path d="m2.945 4.554c0-.004.004-.008.004-.012.016-.031.027-.062.039-.09-.203-.23-.414-.449-.625-.652-.023-.004-.047-.008-.07-.012-.024-.007-.047-.015-.071-.019-.004-.004-.007-.004-.011-.004l.004.023.207.258.351.387z"
          fill="#6c0000" fill-rule="nonzero"/>
    <path d="m3.008 4.597c.027-.055.05-.117.07-.176l.031-.219s.004-.019.004-.05c-.004-.032-.016-.063-.035-.094.012.004.019.008.031.008-.004-.028-.012-.055-.023-.086-.008-.004-.012-.008-.02-.012-.015 0-.027 0-.039.012-.019.012-.023.035-.016.055l.004.003c.036.075.039.161.02.247-.008.054-.027.113-.047.167-.012.028-.023.059-.039.09 0 .004-.004.008-.004.012z"
          fill="#6c0000" fill-rule="nonzero"/>
    <path d="m2.293 3.788c.023.004.047.008.07.012.184.031.371.02.551-.027-.028-.02-.063-.039-.102-.055l-.289-.062-.332.011.02.098c.004 0 .007 0 .011.004.024.004.047.012.071.019z"
          fill="#6c0000" fill-rule="nonzero"/>
    <path d="m3.051 4.628.027-.207c-.02.059-.043.121-.07.176zm.062-.476c0-.02 0-.051-.004-.086-.012 0-.019-.004-.031-.008.019.031.031.062.035.094z"
          fill="#6c0000" fill-rule="nonzero"/>
    <path d="m7.582 5.367c.008.023-.106.019-.156.019-.075.008-.188.035-.278.012-.105-.028-.23-.117-.336-.176-.105-.059-.222-.133-.316-.172-.078-.035-.223-.043-.246-.066-.024-.024.066-.074.113-.082.055-.012.156-.016.227.015.128.059.406.262.535.321.074.031.16 0 .234.019.074.024.211.086.223.11z"
          fill="#6a0b0d"/>
    <path d="m7.851 5.363c0 .023.102-.028.153-.043.066-.024.183-.043.257-.106.082-.066.165-.199.239-.293s.152-.211.222-.285c.059-.062.188-.125.2-.156.011-.031-.09-.043-.133-.031-.059.011-.153.046-.207.105-.094.102-.27.402-.364.508-.054.058-.144.062-.207.109-.058.051-.156.164-.16.192z"
          fill="#6a0b0d"/>
</svg>
