<svg clip-rule="evenodd" fill-rule="evenodd" stroke-linejoin="round" stroke-miterlimit="2" viewBox="0 0 20 20"
     xmlns="http://www.w3.org/2000/svg">
    <g fill-rule="nonzero">
        <path d="m2.95 5.664c.492.407.976.86 1.441 1.344.383.399.75.82 1.106 1.262 1.914 2.39 3.39 5.371 3.894 8.359.094.559.153 1.121.176 1.68.039.992 1.156 1.555 1.965.984 1.199-.843 2.258-2.097 3.074-3.644.098-.184.191-.371.281-.567 1.289-2.734 1.856-6.257 1.227-9.972-.043-.27-.094-.539-.153-.809-4.335-2.516-8.675-1.402-13.011 1.363z"
              fill="#ffc100"/>
        <path d="m15.942 4.313c.059.262.109.531.152.801.59 3.496.157 7.031-1.222 9.961-.094.195-.188.382-.286.566-.812 1.539-1.875 2.797-3.066 3.637-.371.261-.84.297-1.25.093-.41-.207-.664-.601-.684-1.062-.023-.551-.082-1.117-.179-1.684-.481-2.859-1.863-5.828-3.891-8.359l-.004-.008c-.355-.441-.726-.867-1.105-1.262-.461-.48-.942-.929-1.426-1.328 4.973-3.164 9.094-3.593 12.961-1.355zm-5.398 15.195c.343.078.699.012 1-.199 1.195-.844 2.261-2.106 3.078-3.649.097-.183.191-.375.285-.566 1.383-2.937 1.816-6.484 1.226-9.984-.047-.278-.097-.551-.152-.813l-.004-.008-.008-.004c-2.074-1.207-4.207-1.632-6.515-1.3-2.024.289-4.157 1.16-6.516 2.664l-.023.015.023.016c.488.406.973.855 1.441 1.344.375.39.747.812 1.098 1.254l.004.004c2.027 2.531 3.41 5.496 3.891 8.347.093.567.152 1.133.175 1.68.02.476.286.887.707 1.098.094.046.192.082.29.101z"
              fill="#6c0000"/>
        <path d="m10.813 19.364c.219.004.438-.067.629-.2 1.109-.777 2.133-1.968 2.949-3.461-.074.016-.148.024-.226.032-.043 0-.086.004-.129 0-.805 1.48-1.832 2.683-2.996 3.5-.075.054-.149.097-.227.129zm4.688-6.309c.714-2.32.957-5.059.449-7.984-.059-.016-.121-.032-.18-.043-.055-.012-.105-.024-.156-.035 0 .019.004.042.008.062.468 2.781.269 5.457-.399 7.773.102.067.196.141.278.227z"
              fill="#ffe793"/>
        <path d="m5.286 6.801c.062-.031.129-.07.191-.109.676-.438 1.465-.805 2.317-1.094.019-.02.046-.027.078-.027.882-.297 1.824-.512 2.769-.649.008-.054.016-.105.028-.156-.008-.055-.016-.113-.02-.168-.008-.117 0-.23.027-.34-1.882.25-3.777.824-5.23 1.762-.184.121-.383.207-.59.265.152.102.238.231.285.348l.012.012c.035.043.062.094.082.144zm8.648-2.027c.594.039 1.156.109 1.68.219-.039-.215-.078-.43-.125-.645-.477-.098-1.004-.168-1.563-.207.024.082.035.168.043.254.008.133-.004.258-.035.379z"
              fill="#d68600"/>
        <path d="m15.95 5.071c-.035-.215-.078-.426-.121-.645-.067-.016-.129-.031-.196-.047-.047-.008-.093-.019-.144-.031.047.215.086.43.125.645.051.011.101.023.156.035.059.011.121.027.18.043z"
              fill="#d5a167"/>
        <path d="m9.485 16.282c.031-.02.062-.039.09-.063.062-.043.121-.09.168-.141.051-.05.093-.105.129-.164.066-.117.089-.246.054-.351-.019-.059-.054-.121-.097-.188-.043-.07-.094-.144-.133-.238-.02-.047-.039-.102-.047-.156-.012-.055-.012-.11-.008-.16.008-.106.031-.192.051-.274l.008-.031v-.012c0-.004.004-.008 0-.008v-.007c0-.008-.004-.016-.012-.028-.008-.008-.019-.011-.031-.015s-.024 0-.031.004c-.004 0-.008 0-.008.003h-.004c-.004 0 0 0-.004.004l-.008.004c-.019.012-.035.028-.055.039-.039.024-.078.047-.117.071-.082.043-.168.082-.258.109-.023.008-.05.012-.078.02.16.531.293 1.058.391 1.582zm-1.926-5.207c.055-.149.113-.293.156-.43.051-.152.098-.301.114-.442.007-.07.007-.14 0-.203-.008-.062-.028-.125-.059-.179-.027-.055-.066-.102-.109-.137-.02-.016-.043-.027-.067-.039-.011-.004-.027-.008-.043-.012-.011-.004-.023-.004-.035-.008-.058-.007-.133-.004-.215 0s-.175.008-.281-.011h-.004c-.051-.012-.105-.032-.152-.063-.051-.027-.098-.066-.133-.109-.074-.09-.113-.192-.137-.285-.008-.047-.015-.094-.019-.141s-.008-.094-.008-.137c.004-.086.008-.168.004-.242 0-.07-.008-.137-.027-.195 0-.008-.004-.016-.004-.02-.004-.008-.008-.015-.008-.019-.004-.012-.012-.02-.02-.032-.011-.019-.027-.039-.051-.054-.035-.032-.085-.055-.132-.067-.004 0-.008 0-.012-.004-.027-.003-.055-.003-.082-.003-.004 0-.012 0-.02.003-.004 0-.011 0-.019.004-.012.004-.027.004-.043.012-.113.035-.211.117-.285.231.621.808 1.191 1.679 1.691 2.582z"
              fill="#b75d00"/>
        <path d="m10.516 19.645c.379.086.774.008 1.106-.223 1.808-1.273 3.269-3.429 4.117-6.078.906-2.844 1.035-5.984.375-9.078-.02-.082-.102-.137-.188-.117-.082.015-.136.101-.117.183 1.438 6.711-1.109 12.543-4.367 14.832-.332.235-.746.266-1.109.082-.368-.179-.594-.535-.61-.945-.094-2.281-.812-4.73-2.09-7.086-1.187-2.199-2.816-4.211-4.586-5.672-.066-.054-.164-.043-.218.024-.055.066-.043.164.023.218 3.746 3.09 6.383 8.125 6.559 12.532.023.523.316.976.785 1.211.101.05.211.09.32.117z"
              fill="#6c0000"/>
        <path d="m4.079 10.168c.082.207.254.371.472.426.453.109.774-.293.875-.695.004-.02.008-.035.012-.055.066-.32.047-.656.106-.984.066-.352.277-.727.636-.797.071-.012.149-.008.219.015.125.04.234.125.281.239.074.179.043.379.047.57s.051.402.215.5c.109.066.242.059.375.051.105-.004.207-.008.305.019.214.067.347.301.367.528.023.226-.047.449-.117.668-.106.332-.328.785-.36 1.132-.035.348.086.735.379.922.195.121.449.153.61.317.007.008.015.015.023.027l.004.004c.191.23.137.594.062.895-.109.796.524.644.934.347.039-.027.086-.039.129-.039.121.004.234.117.203.254v.004c-.035.137-.074.273-.051.41.035.215.227.379.285.59.067.262-.093.535-.296.711-.204.18-.454.293-.665.465-.234.195-.41.461-.5.758-.07.242-.078.527.075.734.16.223.48.246.687.062.129-.117.258-.226.406-.293.11-.046.227-.07.36-.05l.707-2.926-2.414-4.645-.762-1.461-.875-1.679-.734-.211-.414-.094-.536-.121c.2.312-.085.812-.234 1.152-.148.344-.387.637-.582.953-.238.387-.418.848-.234 1.297z"
              fill="#ffc100"/>
        <path d="m10.165 17.856c-.09-.024-.188-.028-.282-.008-.093.016-.183.051-.265.098-.078.043-.153.093-.223.148-.031.027-.066.055-.098.078-.027.02-.05.035-.078.047-.05.027-.113.035-.168.031-.058-.004-.113-.027-.156-.058-.023-.016-.043-.032-.059-.055l-.011-.016-.012-.019c-.012-.012-.016-.027-.023-.039-.028-.059-.043-.117-.047-.188-.008-.066-.004-.136.008-.207.011-.07.031-.14.054-.211.051-.136.125-.273.215-.39.047-.059.098-.114.149-.164.054-.051.113-.098.179-.141.125-.09.27-.172.414-.277.071-.055.145-.11.211-.18.067-.07.125-.148.172-.234.051-.086.086-.18.106-.286.015-.105.007-.218-.028-.324-.031-.101-.086-.183-.129-.254-.047-.074-.09-.136-.113-.195-.027-.059-.035-.105-.031-.172.004-.062.023-.137.043-.219l.008-.031.003-.008v-.011l.004-.028c.004-.015.004-.035.004-.054 0-.016 0-.036-.004-.055-.015-.074-.05-.141-.101-.191-.051-.051-.113-.086-.184-.102-.07-.016-.144-.012-.211.016-.019.007-.035.015-.051.023l-.023.016-.016.007c-.015.012-.027.024-.046.032-.032.023-.063.039-.094.058-.067.035-.133.067-.199.086-.071.02-.137.031-.192.028-.023 0-.047-.008-.066-.016-.016-.008-.031-.016-.043-.031-.024-.028-.043-.082-.047-.149-.008-.062-.004-.136.008-.211l-.004.016c.039-.164.074-.336.07-.52 0-.093-.012-.191-.043-.289-.031-.093-.086-.191-.16-.265-.074-.078-.164-.129-.246-.168s-.16-.067-.231-.094c-.07-.027-.132-.059-.183-.094-.051-.039-.094-.082-.133-.136-.078-.106-.125-.239-.144-.379-.012-.071-.012-.141-.008-.211.004-.071.015-.141.035-.211.035-.149.09-.297.144-.446.059-.148.121-.3.172-.464.051-.153.102-.317.125-.5.012-.09.012-.184 0-.282-.015-.097-.043-.195-.09-.281-.046-.09-.109-.172-.195-.238-.043-.035-.09-.063-.141-.082-.05-.024-.105-.035-.156-.039-.101-.016-.191-.008-.269-.004s-.149.004-.2-.004c-.05-.016-.089-.035-.117-.07-.031-.036-.054-.09-.07-.153-.008-.031-.012-.066-.016-.101-.004-.032-.004-.067-.004-.106 0-.074.004-.156.004-.246-.004-.09-.011-.187-.043-.285 0-.012-.004-.023-.011-.035-.004-.012-.008-.024-.016-.039-.012-.028-.023-.051-.039-.074-.035-.047-.07-.09-.113-.125-.086-.067-.184-.114-.285-.133-.055-.012-.106-.016-.165-.012-.011 0-.027.004-.039.004-.015.004-.027.004-.039.008-.027.008-.05.011-.074.019-.098.032-.187.082-.262.145-.074.062-.14.137-.191.215-.105.152-.172.324-.207.5-.039.175-.051.343-.063.507-.007.161-.019.317-.046.465-.008.035-.016.075-.024.11l-.015.05-.016.047c-.024.067-.055.133-.094.192-.035.058-.078.109-.125.156-.051.043-.101.078-.156.102-.055.023-.113.031-.172.031-.016 0-.031 0-.047-.004l-.043-.008c-.031-.004-.058-.016-.086-.027-.113-.047-.207-.141-.265-.254-.012-.028-.024-.059-.036-.09-.011-.035-.019-.066-.027-.102-.012-.066-.023-.132-.019-.203.004-.136.035-.277.089-.414.024-.07.055-.14.09-.207.035-.066.075-.133.114-.199.082-.137.171-.27.257-.41.176-.274.344-.57.457-.887.032-.078.055-.16.079-.246.019-.082.035-.172.039-.262.007-.086 0-.179-.02-.269-.019-.094-.059-.18-.117-.254-.027-.035-.074-.039-.109-.016-.028.024-.04.067-.024.098l.004.004c.059.125.062.269.035.41-.027.144-.078.289-.144.43-.032.07-.067.14-.102.211-.035.066-.074.136-.113.203-.078.136-.164.269-.254.406-.086.133-.176.266-.266.406-.09.145-.172.297-.234.461-.063.164-.106.344-.11.531-.003.094.008.188.028.282.012.043.023.089.039.132s.035.09.058.133c.09.176.239.324.426.403.047.019.094.035.145.043l.074.011c.023.004.051.004.074.004.102.004.207-.015.301-.054.094-.043.176-.098.246-.165.07-.066.129-.14.18-.218s.086-.164.121-.25l.019-.063.02-.066c.012-.047.019-.086.031-.133.059-.344.039-.672.102-.961.031-.141.086-.277.164-.391.074-.113.176-.199.289-.234.016-.008.031-.008.043-.012.008-.004.015-.004.019-.004.008-.003.016-.003.02-.003.027 0 .055 0 .082.003.051.012.105.039.144.071.024.015.04.035.051.054.008.012.016.02.02.032 0 .004.004.011.008.019 0 .004.004.012.004.02.019.058.027.125.027.195.004.074 0 .156-.004.242 0 .043.004.09.008.137s.011.094.019.141c.024.093.063.195.137.285.035.043.082.082.133.109.051.031.105.051.156.063.106.019.199.015.281.011s.157-.007.215 0c.031.004.055.012.078.02.024.012.047.023.067.039.043.035.082.082.109.137.031.054.051.117.059.179.007.063.007.133 0 .203-.016.141-.063.29-.114.442-.046.144-.105.293-.164.449-.058.152-.117.309-.16.477-.019.086-.035.175-.043.269-.004.09 0 .184.012.274.023.183.09.363.199.519.059.078.129.149.207.207.082.059.168.098.246.129s.153.059.219.09c.063.031.113.062.152.101.082.079.114.2.118.34 0 .141-.028.289-.063.442-.004.008-.004.011-.004.015-.012.09-.019.184-.008.286.004.05.012.105.032.156.015.054.046.109.086.16.042.051.093.094.152.117.058.027.117.039.176.043.109.008.211-.012.3-.039.09-.027.176-.066.258-.109.039-.024.078-.047.117-.071.02-.011.036-.027.055-.039l.008-.004c.004-.004 0-.004.004-.004h.004c0-.003.004-.003.008-.003.007-.004.019-.008.031-.004s.023.007.031.015c.008.012.012.02.012.028v.007c.004 0 0 .004 0 .008v.012l-.008.031c-.02.082-.043.168-.051.274-.004.05-.004.105.008.16.008.054.027.109.047.156.039.094.09.168.133.238.043.067.078.129.097.188.035.105.012.234-.054.351-.036.059-.078.114-.129.164-.047.051-.106.098-.168.141-.125.09-.27.172-.414.274-.075.046-.145.105-.215.167-.067.063-.129.133-.184.204-.113.144-.203.308-.265.484-.059.172-.098.363-.075.562.012.098.039.2.086.293.016.024.028.047.043.071l.02.031.027.031c.035.047.078.082.125.114.094.058.203.093.313.097.109 0 .218-.023.312-.078.047-.023.09-.055.129-.094.027-.027.059-.054.086-.082.059-.054.117-.105.176-.148.121-.09.254-.141.402-.137h.004c.043.004.078-.031.078-.074 0-.039-.023-.07-.058-.078z"
              fill="#6c0000"/>
        <path d="m10.786 4.59c.043.719.758 1.258 1.601 1.207.84-.051 1.489-.676 1.446-1.394-.043-.719-.762-1.258-1.602-1.207-.844.05-1.488.675-1.445 1.394z"
              fill="#fd0017"/>
        <path d="m13.653 4.774c.035-.117.051-.239.043-.364-.004-.097-.027-.195-.063-.285-.058-.004-.117-.007-.175-.007.113.167.179.359.191.566.004.031.004.059.004.09z"
              fill="#ff959a"/>
        <path d="m11.743 6.274c.156.035.324.051.496.039.668-.039 1.211-.442 1.39-.961-.289.328-.73.551-1.234.582-.184.012-.363-.004-.535-.043-.551-.125-.996-.496-1.152-.981-.02.004-.043.008-.067.012-.004.059-.008.121-.004.184.035.57.496 1.027 1.106 1.168z"
              fill="#d68600"/>
        <path d="m10.641 4.922c.024-.004.047-.008.067-.012-.016-.046-.028-.097-.039-.144-.012.051-.02.102-.028.156z"
              fill="#b75d00"/>
        <path d="m11.919 5.625c.144.032.3.047.46.035.606-.035 1.106-.394 1.266-.863-.266.278-.656.465-1.101.492-.176.012-.344-.004-.5-.039-.555-.125-.985-.515-1.083-1.011-.035.109-.046.226-.039.343.028.508.446.918.997 1.043z"
              fill="#d2000e"/>
        <path d="m12.7 3.368c.551.128.965.535.996 1.042.039.645-.551 1.204-1.317 1.25-.765.047-1.421-.437-1.457-1.078-.039-.644.551-1.203 1.317-1.25.16-.011.312.004.461.036zm-.84 2.523c.172.039.351.055.535.043.914-.055 1.621-.746 1.574-1.539s-.832-1.391-1.746-1.336c-.918.055-1.621.746-1.574 1.539.039.633.543 1.141 1.211 1.293z"
              fill="#6c0000"/>
        <path d="m12.782 13.981c.043.719.762 1.262 1.601 1.207.844-.051 1.489-.672 1.446-1.391s-.758-1.262-1.602-1.211c-.84.051-1.488.676-1.445 1.395z"
              fill="#fd0017"/>
        <path d="m13.669 15.692c.117.027.242.043.367.043.097-.176.191-.356.281-.543-.148.004-.293-.012-.43-.043-.054-.012-.105-.024-.156-.043-.48-.156-.844-.524-.93-.977-.011-.051-.015-.097-.019-.148-.004-.071 0-.141.008-.211-.157.219-.243.48-.227.754.035.57.496 1.031 1.106 1.168z"
              fill="#d68600"/>
        <path d="m14.036 15.735c.043.004.086 0 .129 0 .078-.008.152-.016.226-.032.098-.179.195-.367.285-.554-.093.019-.191.035-.293.039-.023.004-.043.004-.066.004-.09.187-.184.367-.281.543z"
              fill="#d5a167"/>
        <path d="m14.391 15.703c.074-.011.145-.031.215-.054.098-.184.191-.371.281-.563-.066.024-.136.043-.211.063-.09.187-.187.375-.285.554z"
              fill="#6c0000"/>
        <path d="m13.887 15.149c.137.031.282.047.43.043.023 0 .043 0 .066-.004.102-.004.2-.02.293-.039.075-.02.145-.039.211-.063v-.004c-.015.008-.035.016-.051.02-.144.047-.292.078-.453.086-.172.012-.339-.004-.5-.039-.05-.012-.101-.024-.152-.043.051.019.102.031.156.043zm-1.086-1.02c-.011-.047-.015-.094-.019-.14v-.008c-.004-.043-.004-.086 0-.125 0-.031.004-.059.008-.086-.008.07-.012.14-.008.211.004.051.008.097.019.148z"
              fill="#d2000e"/>
        <path d="m13.719 15.102c-.472-.16-.828-.52-.918-.969.09.449.446.809.918.969zm-.785-1.762v-.004zm0-.004h.004zm.004 0c.055-.097.121-.183.199-.265.043-.047.094-.094.145-.133-.141.113-.262.246-.344.398z"
              fill="#d68600"/>
        <path d="m13.883 15.149c.161.035.328.051.5.039.161-.008.309-.039.453-.086.016-.004.036-.012.051-.02.309-.113.563-.308.731-.55.023-.067.039-.133.051-.204-.239.161-.532.266-.856.286-.172.007-.34-.004-.496-.043-.609-.137-1.07-.598-1.106-1.168-.003-.078 0-.157.012-.235-.152.106-.281.231-.383.375.063-.175.164-.336.297-.472-.078.082-.144.168-.199.265h-.004v.004c-.074.133-.125.278-.144.43-.004.027-.008.055-.008.086-.004.039-.004.082 0 .125v.008c.004.05.012.097.019.144.09.449.446.809.918.969.055.019.11.035.164.047z"
              fill="#d2000e"/>
        <path d="m13.883 15.149c.161.035.328.051.5.039-.172.012-.339-.004-.5-.039zm.953-.047c.016-.004.036-.012.051-.02-.015.008-.035.016-.051.02zm-2.054-1.246c0-.031.004-.059.008-.086-.004.027-.008.055-.008.086z"
              fill="#b30007"/>
        <path d="m15.618 14.532c.148-.215.226-.469.211-.735v-.008.008c.015.266-.063.52-.211.735z" fill="#82f9fe"/>
        <path d="m13.282 12.938c.254-.199.582-.328.945-.352.125-.008.246 0 .367.016-.121-.016-.242-.024-.367-.016-.363.024-.691.153-.945.352z"
              fill="#ffe793"/>
        <path d="m15.618 14.532c.148-.215.226-.469.211-.735v-.008c-.035-.566-.496-1.023-1.102-1.164-.047-.007-.09-.015-.133-.023-.121-.016-.242-.024-.367-.016-.363.024-.691.153-.945.352-.028.074-.047.152-.059.23.238-.16.531-.261.852-.281.176-.012.344.004.5.039.609.137 1.07.598 1.105 1.168.004.078 0 .156-.011.234.031-.023.062-.043.089-.066-.035.094-.082.184-.14.27z"
              fill="#ffa1a6"/>
        <path d="m15.618 14.532c.058-.086.105-.176.14-.27-.027.023-.058.043-.089.066-.012.071-.028.137-.051.204z"
              fill="#f19ea2"/>
        <path d="m13.137 13.071c.043-.047.094-.09.145-.133-.051.039-.102.086-.145.133z" fill="#efcf95"/>
        <path d="m12.84 13.543c.102-.144.231-.269.383-.375.012-.078.031-.156.059-.23-.051.043-.102.086-.145.133-.133.136-.234.297-.297.472z"
              fill="#f19ea2"/>
        <path d="m14.696 12.762c.203.043.39.129.551.25.269.203.429.484.445.793.019.305-.106.605-.348.84-.25.238-.593.387-.968.406-.375.024-.735-.078-1.012-.285-.27-.207-.43-.488-.445-.793-.02-.309.105-.605.347-.84.25-.242.594-.387.969-.41.16-.008.316.004.461.039zm-.84 2.52c.172.043.352.054.535.043.442-.024.844-.196 1.141-.485.304-.289.457-.664.433-1.055-.023-.386-.218-.738-.554-.992-.328-.246-.754-.371-1.192-.343-.437.027-.843.199-1.14.484-.301.293-.457.668-.434 1.055.024.39.223.742.555.996.191.144.414.246.656.297z"
              fill="#6c0000"/>
        <path d="m7.922 7.305c.036.594.629 1.039 1.325.996.695-.039 1.23-.555 1.195-1.148-.039-.594-.629-1.043-1.324-1-.696.043-1.231.558-1.196 1.152z"
              fill="#fd0017"/>
        <path d="m8.68 8.914c.129.028.27.039.41.032.696-.043 1.231-.559 1.196-1.153-.004-.019-.004-.035-.008-.054-.192.296-.543.511-.961.558h-.004c-.019.004-.043.004-.066.004h-.004c-.028.004-.059.004-.086.004-.113 0-.219-.012-.324-.035-.258-.059-.481-.188-.645-.36-.141-.152-.234-.339-.262-.546-.113.171-.172.371-.16.586.031.468.41.847.914.964z"
              fill="#d68600"/>
        <path d="m8.833 8.27c.105.023.211.035.324.035-.113 0-.219-.012-.321-.035-.031-.008-.062-.016-.089-.024h-.008v-.003h-.012v-.004h-.012c0-.004 0-.004-.004-.004h-.007v-.004h-.012v-.004h-.012v-.004h-.008c-.003 0-.003 0-.003-.004h-.008l-.004-.004h-.008s0-.004-.004-.004c-.031-.011-.066-.027-.098-.043h-.003c-.004 0-.004 0-.004-.004h-.004c-.004 0-.004 0-.004-.004h-.004s-.004 0-.004-.003h-.004s-.004 0-.004-.004h-.004s-.004 0-.004-.004h-.007v-.004h-.004l-.004-.004h-.004v-.004c-.117-.062-.215-.137-.301-.227.164.172.387.301.645.36zm.48.027h.004zm.004 0c.418-.047.769-.262.961-.558-.149.23-.395.41-.688.5v.004h-.004c-.085.023-.175.042-.269.054z"
              fill="#d2000e"/>
        <path d="m9.176 8.305c.024 0 .043 0 .067-.004h.023-.019c-.024.004-.047.004-.071.004zm-1.25-.941c0-.02-.004-.039-.004-.059v-.066.066c0 .02.004.039.004.059zm-.004-.125v-.004z"
              fill="#d68600"/>
        <path d="m8.836 8.27c.106.023.223.035.34.035.024 0 .047 0 .071-.004h.019c.113-.008.219-.027.32-.058h.004v-.004c.293-.09.539-.27.688-.5.031-.047.058-.094.078-.145.004-.039.004-.082.004-.121-.219.238-.547.398-.926.422-.14.008-.281-.004-.41-.031-.504-.118-.883-.496-.914-.965v-.008c-.078.086-.141.18-.188.281v.133c0 .02.004.039.004.059 0 0 .004 0 .004-.004.039.332.25.613.559.777v.004h.004l.004.004h.004v.004h.007c0 .004.004.004.004.004h.004c0 .004.004.004.004.004h.004c0 .003.004.003.004.003h.004c0 .004 0 .004.004.004h.004c0 .004 0 .004.004.004h.003c.032.016.067.032.098.043.004 0 .004.004.004.004h.008l.004.004h.008c0 .004 0 .004.003.004h.008v.004h.012v.004h.012v.004h.007c.004 0 .004 0 .004.004h.012v.004h.012v.003h.008c.027.008.058.016.089.024z"
              fill="#d2000e"/>
        <path d="m9.157 8.305c.027 0 .058 0 .086-.004-.024.004-.043.004-.067.004zm-.969-.395c-.141-.152-.234-.339-.262-.546.028.207.121.394.262.546z"
              fill="#b75d00"/>
        <path d="m8.836 8.27c.102.023.208.035.321.035h.019c-.117 0-.234-.012-.34-.035-.031-.008-.062-.016-.089-.024.027.008.058.016.089.024zm-.089-.024h-.008zm-.008 0v-.003zm0-.003h-.004zm-.004 0h-.004zm-.008 0v-.004zm0-.004h-.004zm-.004 0h-.004zm-.004 0h-.004zm-.004 0c0-.004 0-.004-.004-.004.004 0 .004 0 .004.004zm-.007-.004h-.004zm-.004 0v-.004zm-.012-.008h-.004zm-.008 0h-.004zm-.008-.004h-.004zm-.019-.008h-.004zm-.133-.058h-.004zm-.008-.004h-.004zm-.008-.004h-.004zm-.004 0h-.003zm-.003-.004h-.004zm-.004 0-.004-.004zm-.004-.004h-.004zm-.004 0v-.004zm0-.004c-.309-.164-.52-.445-.559-.777 0 .004-.004.004-.004.004.028.207.121.394.262.546.086.09.184.165.301.227zm1.097.106h.004zm.004-.004c.293-.09.539-.27.688-.5-.149.23-.395.41-.688.5z"
              fill="#b30007"/>
        <path d="m7.922 7.172c.016-.164.071-.316.161-.453.015-.023.031-.047.046-.066.09-.118.207-.223.34-.301-.308.183-.519.484-.547.82zm2.461.356c.043-.118.067-.246.059-.375-.016-.227-.109-.43-.258-.594.149.164.242.367.258.594.008.129-.016.257-.059.375zm-1.914-1.176.004-.004z"
              fill="#ffe485"/>
        <path d="m7.922 7.172c.016-.164.071-.316.161-.453-.09.137-.145.289-.161.453zm2.434.422c.012-.019.02-.043.027-.066.043-.118.067-.246.059-.375-.016-.227-.109-.43-.258-.594-.164-.18-.39-.313-.656-.371-.129-.031-.27-.043-.41-.035-.242.015-.461.086-.645.195l-.004.004c-.133.078-.25.183-.34.301-.015.078-.023.156-.019.238.219-.238.547-.402.926-.426.144-.008.281.004.41.031.504.118.887.497.914.969v.008c.023-.027.043-.051.062-.078-.015.07-.035.137-.066.199z"
              fill="#ff959a"/>
        <path d="m8.083 6.719c.015-.023.031-.047.046-.066-.015.019-.031.043-.046.066z" fill="#eec988"/>
        <path d="m7.922 7.172c.047-.101.11-.195.188-.281-.004-.082.004-.16.019-.238-.015.019-.031.043-.046.066-.09.137-.145.289-.161.453zm2.434.422c.031-.062.051-.129.066-.199-.019.027-.039.051-.062.078 0 .039 0 .082-.004.121z"
              fill="#ee9296"/>
        <path d="m9.501 6.321c.164.035.312.105.445.203.215.164.344.39.359.636.016.247-.086.485-.281.676-.203.196-.48.313-.785.328-.305.02-.598-.062-.82-.23-.219-.164-.344-.391-.36-.637-.015-.246.086-.488.281-.676.204-.195.481-.312.786-.332.128-.007.253.004.375.032zm-.696 2.082c.145.035.293.047.449.035.368-.02.707-.164.957-.406.254-.247.383-.563.364-.887-.02-.328-.184-.629-.469-.84-.273-.207-.629-.312-.996-.289-.371.023-.711.168-.957.406-.258.246-.387.563-.367.891.019.328.187.625.468.84.161.121.348.203.551.25z"
              fill="#6c0000"/>
        <path d="m2.379 4.438c.02.23.082.461.18.672.492 1.066 1.82 1.414 2.801.781 2.844-1.84 7.629-2.383 10.601-1.59 1.465.34 2.383-2.144.938-3.226-2.582-1.297-11.574-.426-14.078 2.164-.309.32-.477.754-.442 1.199z"
              fill="#e77e26"/>
        <path d="m3.891 6.004c.473.11.973.02 1.383-.246 1.359-.879 3.246-1.519 5.316-1.805 1.825-.253 3.661-.207 5.102.122.105.023.207.046.305.074h.004c.625.144 1.074-.301 1.289-.766.14-.301.207-.664.171-1.023-.304.449-.777.722-1.324.597-.011 0-.019-.004-.027-.004-.145-.043-.293-.082-.445-.113-2.977-.68-7.446-.172-10.18 1.535-.457.289-.992.364-1.477.254-.511-.117-.976-.441-1.242-.937-.062.062-.117.129-.164.199-.058.172-.082.352-.066.531.015.211.07.418.164.621.211.461.597.793 1.086.934.035.012.07.019.105.027z"
              fill="#c3581a"/>
        <path d="m2.766 3.692c0-.004.004-.008.004-.008 2.25-2.324 9.723-3.266 13.098-2.496.386.086.718.195.98.328.297.223.496.508.61.812-.051-.414-.247-.82-.641-1.121-.246-.121-.563-.226-.926-.308-1.433-.328-3.687-.352-6.039-.043-3.234.426-5.82 1.355-6.918 2.492-.082.082-.148.172-.207.27.012.023.024.046.039.074z"
              fill="#f6c5a0"/>
        <path d="m2.602 3.891c.047-.07.102-.137.164-.199-.015-.028-.027-.051-.039-.074-.051.085-.094.179-.125.273z"
              fill="#e5b49a"/>
        <path d="m15.692 4.075c-1.441-.329-3.277-.375-5.102-.122-2.07.286-3.957.926-5.316 1.805-.441.285-.984.367-1.488.219-.489-.141-.875-.473-1.086-.934-.094-.203-.149-.41-.164-.621l-.157.016.157-.016c-.035-.387.113-.777.398-1.074 1.098-1.137 3.684-2.066 6.918-2.492 2.953-.391 5.75-.246 6.965.351.75.575.773 1.528.473 2.176-.215.465-.664.91-1.289.766h-.004c-.098-.028-.2-.051-.305-.074zm-11.867 2.238c.551.125 1.136.019 1.621-.293 2.949-1.91 7.734-2.301 10.476-1.567h.012c.66.153 1.305-.214 1.641-.937.351-.766.316-1.891-.582-2.566-.008-.008-.016-.012-.024-.016-1.277-.641-4.09-.793-7.16-.391-1.519.203-2.953.524-4.144.934-1.352.465-2.344 1.023-2.954 1.652-.347.36-.527.84-.488 1.321.02.246.086.492.196.726.246.535.714.938 1.281 1.102.043.011.082.023.125.035z"
              fill="#6c0000"/>
        <path d="m2.778 3.535c.121-.121.254-.222.402-.292.149-.075.309-.118.473-.125.324-.016.656.105.914.32.129.105.238.234.32.379.086.144.137.301.164.461.032.164.035.328.016.496-.016.172-.059.34-.109.519-.008.028.007.059.035.067.019.008.039 0 .054-.016.133-.141.231-.316.289-.512.059-.191.075-.406.043-.609-.031-.203-.113-.398-.218-.57-.106-.176-.242-.328-.399-.457-.152-.129-.332-.235-.523-.301-.192-.067-.399-.098-.602-.09-.207.012-.41.063-.593.152-.184.09-.348.215-.489.36-.058.058-.058.16 0 .218.063.063.16.063.223 0z"
              fill="#6c0000"/>
        <path d="m11.094 17.559c.008.004.016.004.028.004.097.012.187-.031.195-.102.004-.058-.055-.117-.141-.136-.007-.004-.015-.004-.027-.008-.098-.012-.188.035-.195.105-.004.059.054.117.14.137z"
              fill="#d68600"/>
        <path d="m11.594 13.106c.02.004.039.008.059.008.137.007.258-.059.262-.157.007-.082-.075-.156-.184-.179-.02-.004-.035-.008-.059-.008-.136-.012-.253.058-.261.156-.004.082.074.152.183.18z"
              fill="#d68600"/>
        <path d="m10.961 13.258h.024c.066.008.117-.027.121-.07.004-.035-.031-.07-.082-.082-.008 0-.02-.004-.027-.004-.063-.004-.118.027-.121.07 0 .039.035.074.085.086z"
              fill="#d68600"/>
        <path d="m7.86 5.723c.004.004.012.004.016.004.066.008.121-.024.125-.067.003-.039-.036-.074-.086-.085-.008-.004-.016-.004-.02-.004h-.023c-.028.007-.051.015-.078.027-.012.008-.02.023-.024.039-.004.039.035.074.09.086z"
              fill="#d68600"/>
        <path d="m7.794 5.598c.027-.012.05-.02.078-.027-.032 0-.059.007-.078.027z" fill="#b75d00"/>
        <path d="m11.961 17.535c.016 0 .032.004.047.004.157.02.297-.05.309-.16.008-.097-.086-.187-.219-.219-.015-.003-.031-.007-.047-.007-.156-.02-.293.054-.304.16-.012.097.082.191.214.222z"
              fill="#d68600"/>
        <path d="m7.274 6.207c.016.004.031.004.047.008.156.016.293-.055.308-.164.008-.094-.085-.187-.218-.219-.016-.004-.032-.004-.047-.007-.156-.016-.293.054-.305.164-.012.093.082.187.215.218z"
              fill="#d68600"/>
        <path d="m12.305 15.301c-.129-.301-.246-.351-.344-.308-.097.042-.14.164-.011.46.129.301.312.504.41.461s.074-.316-.055-.613z"
              fill="#00a15b"/>
        <path d="m9.36 11.164c-.113-.269-.219-.312-.309-.273s-.125.144-.011.414c.117.266.281.453.371.414.086-.039.066-.289-.051-.555z"
              fill="#00a15b"/>
        <path d="m14.637 6.118c.305-.098.367-.211.332-.313-.031-.102-.144-.156-.453-.059-.305.098-.527.262-.496.368.035.101.309.105.617.004z"
              fill="#00a15b"/>
        <path d="m11.68 7.508c-.215-.242-.344-.254-.422-.18-.078.071-.082.2.133.442.215.238.457.375.535.305.082-.075-.031-.329-.246-.567z"
              fill="#00a15b"/>
        <path d="m4.583 10.465c.003.004.007.004.015.004l.043.008c.016.004.031.004.047.004.059 0 .117-.008.172-.031.055-.024.105-.059.156-.102.047-.047.09-.098.125-.156.039-.059.07-.125.094-.192l.016-.047.015-.05c.004-.008.004-.016.004-.02-.117.024-.219.027-.301.008-.441-.102-.328-.801.223-1.625.18-.27.293-.523.367-.75.09-.289-.055-.594-.316-.715.011.031.019.063.027.098.02.09.027.183.02.269-.004.09-.02.18-.039.262-.024.086-.047.168-.079.246-.113.317-.281.613-.457.887-.086.14-.175.273-.257.41-.039.066-.079.133-.114.199-.035.067-.066.137-.09.207-.054.137-.085.278-.089.414-.004.071.007.137.019.203.008.036.016.067.027.102.012.031.024.062.036.09.058.113.152.207.265.254.024.011.047.019.071.023z"
              fill="#d68600"/>
    </g>
    <path d="m15.059 9.637c.067-.133.188-.418.152-.547-.07-.285-.183-.379-.335-.41-.153-.031-.629-.02-.836.047-.168.051-.383.269-.403.344-.019.074-.093.312-.027.449.066.144.246.367.441.426.2.058.59-.02.758-.071.11-.031.195-.136.25-.238z"
          fill="#fff"/>
    <path d="m14.571 9.922c-.141 0-.383.004-.469-.152-.086-.16-.113-.293-.074-.434.035-.144.113-.242.183-.289.071-.051.157-.129.333-.133.171-.007.269.047.363.121.113.09.176.29.179.364.008.121-.054.254-.132.371-.075.117-.246.152-.383.152z"
          fill="#231f20"/>
    <path d="m15.215 9.598c-.066.109-.175.266-.363.363-.172.086-.609.137-.828.074-.227-.07-.461-.218-.512-.464-.051-.235 0-.387.121-.598.145-.25.274-.313.575-.406.222-.071.461-.028.625.008.234.05.39.168.468.492.067.269-.047.468-.086.531zm-.156-.098c.027-.047.11-.191.063-.39-.055-.227-.161-.317-.328-.352-.141-.031-.34-.074-.532-.012-.242.075-.351.118-.468.321-.094.164-.137.281-.102.465.039.179.223.273.387.324.183.054.547.008.687-.063.153-.078.238-.203.293-.293z"
          fill="#6a0b0d"/>
    <path d="m11.747 9.953c.066-.128.179-.402.148-.531-.066-.273-.176-.363-.324-.394-.149-.032-.61-.02-.809.043-.164.05-.371.261-.386.332-.02.074-.09.304-.028.437.067.141.238.352.426.41.195.055.57-.015.73-.066.11-.031.192-.133.243-.231z"
          fill="#fff"/>
    <path d="m11.278 10.231c-.141-.004-.371 0-.457-.153-.082-.152-.106-.281-.07-.418.035-.136.113-.23.179-.281.067-.047.149-.121.321-.125.164-.008.261.047.347.117.11.086.172.278.176.348.008.121-.055.25-.125.363-.074.114-.238.149-.371.149z"
          fill="#231f20"/>
    <path d="m11.864 9.977c-.129.183-.223.226-.426.316-.246.114-.469.094-.684.047-.175-.035-.285-.086-.367-.168-.054-.054-.093-.125-.129-.219-.078-.207-.054-.464.039-.628.161-.274.274-.305.563-.395.215-.066.57-.027.73.008.09.015.18.055.254.129.071.074.125.179.145.343.027.262-.035.434-.125.567zm-.153-.106c.071-.101.114-.238.094-.437-.015-.113-.047-.188-.094-.234-.046-.047-.101-.071-.16-.082-.136-.028-.449-.067-.636-.008-.231.07-.329.09-.457.308-.071.125-.082.317-.028.469.063.168.153.227.364.27.179.039.363.058.57-.032.164-.074.242-.105.347-.254z"
          fill="#6a0b0d"/>
    <path d="m4.559 10.594c.449.106.766-.297.867-.695.004-.02.008-.035.012-.055-.031.008-.066.012-.102.024-.023.003-.042.011-.066.015 0 .004 0 .012-.004.02l-.015.05-.016.047c-.024.067-.055.133-.094.192-.035.058-.078.109-.125.156-.051.043-.101.078-.156.102-.055.023-.113.031-.172.031-.016 0-.031 0-.047-.004l-.043-.008c-.008 0-.012 0-.015-.004-.024-.004-.047-.012-.071-.023-.113-.047-.207-.141-.265-.254-.012-.028-.024-.059-.036-.09-.011-.035-.019-.066-.027-.102-.012-.066-.023-.132-.019-.203.004-.136.035-.277.089-.414.024-.07.055-.14.09-.207.035-.066.075-.133.114-.199.082-.137.171-.27.257-.41.176-.274.344-.57.457-.887.032-.078.055-.16.079-.246.019-.082.035-.172.039-.262.007-.086 0-.179-.02-.269-.008-.035-.016-.067-.027-.098-.02-.008-.043-.016-.063-.023.008.058.012.105.008.144.027.137-.004.293-.059.449l-.046.34-.071-.047c-.039.09-.082.176-.117.254-.148.344-.387.637-.582.953-.238.387-.418.848-.234 1.297.082.207.254.371.472.426z"
          fill="#6c0000" fill-rule="nonzero"/>
    <path d="m9.004 18.243c.016.003.032.003.047.007.055.004.118-.004.168-.031.028-.012.051-.027.078-.047.032-.023.067-.051.098-.078.059-.047.121-.09.188-.129-.063 0-.118-.004-.168-.015-.434-.098-.356-.633.039-.899.465-.308.636-.508.972-1.129s-.207-.957-.207-.957.203-.508-.261-.66c.023.039.043.082.05.129.004.019.004.039.004.055 0 .019 0 .039-.004.054l-.004.028v.011l-.003.008-.008.031c-.02.082-.039.157-.043.219-.004.067.004.113.031.172.023.059.066.121.113.195.043.071.098.153.129.254.035.106.043.219.028.324-.02.106-.055.2-.106.286-.047.086-.105.164-.172.234-.066.07-.14.125-.211.18-.144.105-.289.187-.414.277-.066.043-.125.09-.179.141-.051.05-.102.105-.149.164-.09.117-.164.254-.215.39-.023.071-.043.141-.054.211-.012.071-.016.141-.008.207.004.071.019.129.047.188.007.012.011.027.023.039l.012.019.011.016c.016.023.036.039.059.055.031.023.07.043.109.051z"
          fill="#d68600" fill-rule="nonzero"/>
    <path d="m8.965 18.356c.145.035.305-.004.426-.11.129-.117.258-.226.406-.293-.023-.003-.058-.003-.101.004-.039.004-.078.008-.113.008-.067.039-.129.082-.188.129-.031.027-.066.055-.098.078-.027.02-.05.035-.078.047-.05.027-.113.035-.168.031-.015-.004-.031-.004-.047-.007-.039-.008-.078-.028-.109-.051-.023-.016-.043-.032-.059-.055l-.011-.016-.012-.019c-.012-.012-.016-.027-.023-.039-.028-.059-.043-.117-.047-.188-.008-.066-.004-.136.008-.207.011-.07.031-.14.054-.211.051-.136.125-.273.215-.39.047-.059.098-.114.149-.164.054-.051.113-.098.179-.141.125-.09.27-.172.414-.277.071-.055.145-.11.211-.18.067-.07.125-.148.172-.234.051-.086.086-.18.106-.286.015-.105.007-.218-.028-.324-.031-.101-.086-.183-.129-.254-.047-.074-.09-.136-.113-.195-.027-.059-.035-.105-.031-.172.004-.062.023-.137.043-.219l.008-.031.003-.008v-.011l.004-.028c.004-.015.004-.035.004-.054 0-.016 0-.036-.004-.055-.007-.047-.027-.09-.05-.129-.024-.008-.047-.016-.071-.02-.066-.015-.144-.027-.23-.027h-.004c.012 0 .027.004.039.004.105.027.191.129.164.25v.004c-.035.137-.074.273-.051.41.035.215.227.379.285.59.067.262-.093.535-.296.711-.204.18-.454.293-.665.465-.234.195-.41.461-.5.758-.07.242-.078.527.075.734.066.094.16.148.261.172z"
          fill="#6c0000" fill-rule="nonzero"/>
    <path d="m8.856 14.403c.012.004.023.004.035.004.055.003.121-.008.192-.028.066-.019.132-.051.199-.086.031-.019.062-.035.094-.058h.003c-.023-.004-.046-.008-.07-.016-.301-.066-.453-.223-.531-.383-.012.059-.024.114-.035.172-.012.07-.016.141-.008.203.004.067.023.121.047.149.012.015.027.023.043.031.008.004.019.008.031.012z"
          fill="#d68600" fill-rule="nonzero"/>
    <path d="m8.825 14.528c.199.043.48-.075.699-.231.039-.027.082-.039.125-.039-.098 0-.188-.012-.27-.023h-.003c-.032.023-.063.039-.094.058-.067.035-.133.067-.199.086-.071.02-.137.031-.192.028-.012 0-.023 0-.035-.004s-.023-.008-.031-.012c-.016-.008-.031-.016-.043-.031-.024-.028-.043-.082-.047-.149-.008-.062-.004-.133.008-.203.011-.058.023-.113.035-.172-.055-.121-.07-.246-.074-.343-.004-.215-.121-.375-.176-.438.191.23.137.594.062.895-.05.371.063.535.235.578zm.824-.27h.004z"
          fill="#6c0000" fill-rule="nonzero"/>
    <path d="m8.524 13.051c-.012-.016-.02-.023-.023-.027.007.008.015.015.023.027z" fill="#802536" fill-rule="nonzero"/>
    <path d="m8.508 13.063.032-.028c-.004-.003-.008-.003-.008-.007-.008-.008-.016-.016-.016-.016l-.027.027c.004.004.008.008.012.016.003 0 .007.004.007.008z"
          fill="#6c0000" fill-rule="nonzero"/>
    <path d="m8.45 10.332c.078-.461-.02-.699-.149-1.066-.113-.316-.363-.316-.613-.395z" fill="#d68600"
          fill-rule="nonzero"/>
    <path d="m8.321 12.758c-.176-.32-.383-.906-.117-1.613.132-.34.207-.602.246-.813l-.762-1.461c-.172-.054-.344-.148-.473-.406-.14-.277-.312-.387-.464-.422-.055-.011-.106-.011-.149-.011.02.011.039.027.059.043.043.035.078.078.113.125.016.023.027.046.039.074.008.015.012.027.016.039.007.012.011.023.011.035.032.098.039.195.043.285 0 .09-.004.172-.004.246 0 .039 0 .074.004.106.004.035.008.07.016.101.016.063.039.117.07.153.028.035.067.054.117.07.051.008.122.008.2.004s.168-.012.269.004c.02 0 .043.004.067.011.027.004.058.016.089.028.051.019.098.047.141.082.086.066.149.148.195.238.047.086.075.184.09.281.012.098.012.192 0 .282-.023.183-.074.347-.125.5-.051.164-.113.316-.172.464-.054.149-.109.297-.144.446-.02.07-.031.14-.035.211-.004.07-.004.14.008.211.019.14.066.273.144.379.039.054.082.097.133.136.051.035.113.067.183.094.059.023.125.047.192.078z"
          fill="#d68600" fill-rule="nonzero"/>
    <path d="m8.501 13.024c-.008-.008-.09-.102-.18-.266-.067-.031-.133-.055-.192-.078-.07-.027-.132-.059-.183-.094-.051-.039-.094-.082-.133-.136-.078-.106-.125-.239-.144-.379-.012-.071-.012-.141-.008-.211.004-.071.015-.141.035-.211.035-.149.09-.297.144-.446.059-.148.121-.3.172-.464.051-.153.102-.317.125-.5.012-.09.012-.184 0-.282-.015-.097-.043-.195-.09-.281-.046-.09-.109-.172-.195-.238-.043-.035-.09-.063-.141-.082-.031-.012-.062-.024-.089-.028-.024-.007-.047-.011-.067-.011-.101-.016-.191-.008-.269-.004s-.149.004-.2-.004c-.05-.016-.089-.035-.117-.07-.031-.036-.054-.09-.07-.153-.008-.031-.012-.066-.016-.101-.004-.032-.004-.067-.004-.106 0-.074.004-.156.004-.246-.004-.09-.011-.187-.043-.285 0-.012-.004-.023-.011-.035-.004-.012-.008-.024-.016-.039-.012-.028-.023-.051-.039-.074-.035-.047-.07-.09-.113-.125-.02-.016-.039-.032-.059-.043-.121.003-.203.046-.203.046.125.04.234.125.281.239.074.179.043.379.047.57s.051.402.215.5c.035.02.07.035.109.043.086.02.176.016.266.008.094-.004.187-.008.273.012.012.003.02.003.032.007.214.067.347.301.367.528.023.226-.047.449-.117.668-.106.332-.328.785-.36 1.132-.035.348.086.735.379.922.195.121.449.153.61.317z"
          fill="#6c0000" fill-rule="nonzero"/>
    <path d="m13.52 10.723c-.016.668-.344 1.031-.699 1.098-.301.054-.625-.098-.797-.461-.082-.176-.129-.403-.125-.676.141-.727 1.57-.441 1.621.039z"
          fill="#6c0000" fill-rule="nonzero"/>
    <path d="m12.852 11.637c-.004.066-.019.129-.051.188-.3.046-.617-.118-.781-.485.09-.121.234-.195.395-.187.254.011.449.23.437.484z"
          fill="#fd0017" fill-rule="nonzero"/>
    <path d="m13.403 10.782c-.035.605-.344.875-.606.921-.265.051-.527-.105-.668-.394-.074-.16-.113-.348-.113-.566.379-.266.988-.25 1.387.039zm-.875 1.148c.101.023.207.027.312.008.356-.067.778-.422.797-1.211 0-.039-.015-.07-.043-.094-.558-.648-1.304-.656-1.765-.039-.028.02-.043.055-.047.09-.004.277.043.519.137.726.132.278.355.461.609.52z"
          fill="#6c0000" fill-rule="nonzero"/>
    <path d="m10.219 11.481c.012.144.239.238.5.211.262-.028.461-.168.446-.309-.012-.144-.239-.238-.5-.211-.262.028-.461.168-.446.309z"
          fill="#fd0017" fill-rule="nonzero"/>
    <path d="m14.36 11.157c.016.14.238.238.5.207.262-.028.465-.164.449-.309-.015-.145-.242-.238-.504-.211-.261.027-.461.168-.445.313z"
          fill="#fd0017" fill-rule="nonzero"/>
    <path d="m13.11 2c.043.008.086.012.125.016.496.043.992.086 1.488.129.348.027.699.058 1.051.09.098.008.207.011.277-.059.078-.074.067-.215 0-.301-.156-.215-.445-.328-.738-.394-.211-.051-.426-.074-.594-.094-.519-.055-1.047-.019-1.55.117-.149.039-.325.133-.313.285.012.121.129.18.254.211z"
          fill="#ed9956" fill-rule="nonzero"/>
    <path d="m11.071 2.137c.133.031.324.027.531.016.402-.028.727-.094.711-.293-.008-.133-.156-.242-.375-.289-.109-.028-.238-.036-.375-.028-.402.028-.719.211-.703.41.004.098.086.153.211.184z"
          fill="#ed9956" fill-rule="nonzero"/>
    <path d="m13.305 7.989c.051.007.102.011.153-.004.199-.051.316-.27.515-.325.074-.023.156-.019.235-.003.082.019.164.054.246.086.05.019.109.039.168.05.105.028.214.028.308-.027.145-.078.196-.273.145-.434-.051-.156-.184-.273-.332-.343-.063-.032-.133-.055-.207-.071-.282-.066-.614-.031-.879.016-.192.031-.375.109-.508.25-.129.141-.195.348-.137.531.043.133.16.242.293.274z"
          fill="#ffd43c" fill-rule="nonzero"/>
    <path d="m12.602 9.004c.031.008.067.008.098.004.117-.012.226-.082.289-.183.058-.098.074-.231.031-.34-.027-.082-.113-.172-.203-.196-.035-.007-.07-.004-.106.008-.128.055-.203.289-.234.406-.023.075-.035.161.008.227.027.039.07.063.117.074z"
          fill="#ffd43c" fill-rule="nonzero"/>
    <path d="m4.981 7.418c.035-.09.063-.183.078-.277.027-.141.024-.285-.035-.41l-.004-.004c-.016-.031-.004-.074.024-.098.019-.011.042-.019.066-.011.012 0 .019.007.031.015-.047-.117-.133-.246-.285-.348-.297.083-.613.102-.922.047.36.344.707.703 1.047 1.086z"
          fill="#b75d00" fill-rule="nonzero"/>
    <path d="m4.907 7.586c.004-.004.008-.011.008-.015.023-.051.046-.102.066-.153-.34-.383-.687-.742-1.047-1.086-.035-.004-.074-.011-.109-.019-.043-.012-.082-.024-.125-.035-.004 0-.012-.004-.02-.004l.008.043.348.426.586.644z"
          fill="#6c0000" fill-rule="nonzero"/>
    <path d="m5.012 7.664c.043-.097.086-.195.117-.293l.055-.367s.004-.031.004-.082c-.008-.054-.027-.109-.059-.156.016.004.036.008.051.012-.008-.043-.019-.094-.039-.145-.012-.008-.019-.015-.031-.015-.024-.008-.047 0-.066.011-.028.024-.04.067-.024.098l.004.004c.059.125.062.269.035.41-.015.094-.043.187-.078.277-.02.051-.043.102-.066.153 0 .004-.004.011-.008.015z"
          fill="#6c0000" fill-rule="nonzero"/>
    <path d="m3.825 6.313c.035.008.074.015.109.019.309.055.625.036.922-.047-.047-.031-.105-.062-.168-.089l-.484-.102-.555.016.031.164c.008 0 .016.004.02.004.043.011.082.023.125.035z"
          fill="#6c0000" fill-rule="nonzero"/>
    <path d="m5.083 7.711.046-.34c-.031.098-.074.196-.117.293zm.105-.789c.004-.039 0-.086-.008-.144-.015-.004-.035-.008-.051-.012.032.047.051.102.059.156z"
          fill="#6c0000" fill-rule="nonzero"/>
    <path d="m12.633 8.946c.02.035-.172.027-.257.035-.122.008-.313.054-.465.012-.172-.043-.379-.196-.559-.29-.176-.093-.367-.218-.523-.285-.133-.058-.375-.07-.41-.109-.04-.043.109-.125.183-.137.094-.019.262-.027.383.028.211.093.676.433.891.531.121.051.261-.004.39.031.125.039.348.145.367.184z"
          fill="#6a0b0d"/>
    <path d="m13.086 8.934c0 .043.172-.039.254-.07.114-.039.305-.071.43-.172.137-.11.27-.332.399-.492.125-.157.25-.348.367-.469.097-.106.316-.215.332-.266.019-.055-.149-.07-.223-.051-.094.02-.25.082-.34.176-.16.172-.449.672-.605.844-.094.098-.242.105-.344.187-.102.086-.266.274-.27.313z"
          fill="#6a0b0d"/>
</svg>
