<svg clip-rule="evenodd" fill-rule="evenodd" stroke-linejoin="round" stroke-miterlimit="2" viewBox="0 0 32 32"
     xmlns="http://www.w3.org/2000/svg">
    <g fill-rule="nonzero">
        <path d="m27.281 9.067c-.789.648-1.562 1.371-2.308 2.148-.61.637-1.199 1.313-1.766 2.02-3.066 3.82-5.426 8.59-6.23 13.371-.153.899-.25 1.797-.285 2.688-.063 1.589-1.848 2.488-3.145 1.574-1.918-1.348-3.609-3.356-4.914-5.828-.16-.293-.309-.598-.453-.903-2.063-4.379-2.965-10.015-1.965-15.957.074-.433.156-.863.25-1.297 6.934-4.023 13.875-2.242 20.816 2.184z"
              fill="#ffc100"/>
        <path d="m6.492 6.903c-.089.414-.172.844-.246 1.281-.941 5.59-.246 11.25 1.961 15.938.145.308.297.613.453.906 1.305 2.465 3 4.473 4.907 5.816.597.418 1.343.477 2 .149.656-.328 1.066-.961 1.093-1.699.035-.879.133-1.786.285-2.696.77-4.574 2.985-9.32 6.231-13.375l.008-.011c.566-.704 1.16-1.383 1.765-2.02.739-.766 1.504-1.48 2.282-2.125-7.957-5.062-14.551-5.75-20.739-2.164zm8.637 24.312c-.547.125-1.121.016-1.598-.32-1.914-1.347-3.617-3.367-4.925-5.84-.157-.293-.309-.597-.453-.906-2.215-4.699-2.911-10.371-1.969-15.976.074-.442.16-.879.25-1.297l.004-.016.011-.004c3.321-1.93 6.735-2.609 10.426-2.082 3.238.461 6.649 1.859 10.422 4.266l.039.023-.035.027c-.785.645-1.559 1.368-2.305 2.145-.601.633-1.195 1.305-1.758 2.008l-.007.012c-3.243 4.043-5.453 8.789-6.223 13.355-.152.906-.25 1.809-.285 2.688-.031.757-.453 1.414-1.129 1.753-.152.075-.309.129-.465.164z"
              fill="#6c0000"/>
        <path d="m14.703 30.985c-.355 0-.707-.105-1.011-.32-1.774-1.246-3.414-3.149-4.715-5.535.117.023.234.035.359.043.07.003.137.007.207.007 1.289 2.364 2.934 4.289 4.793 5.598.117.082.242.152.367.207zm-7.504-10.098c-1.14-3.711-1.531-8.089-.718-12.773.093-.024.191-.047.289-.07.082-.02.168-.036.25-.055-.004.035-.012.066-.016.098-.75 4.453-.43 8.734.641 12.441-.164.102-.313.227-.446.359z"
              fill="#ffe793"/>
        <path d="m23.543 10.883c-.101-.054-.203-.109-.305-.175-1.085-.703-2.347-1.285-3.707-1.754-.027-.024-.074-.043-.128-.043-1.407-.473-2.915-.817-4.43-1.035-.008-.086-.024-.168-.043-.254.015-.086.027-.176.031-.266.012-.183-.004-.367-.039-.543 3.004.402 6.043 1.317 8.367 2.824.293.188.61.328.938.422-.242.164-.379.364-.449.551-.008.008-.016.016-.024.023-.055.071-.098.149-.133.231zm-13.836-3.242c-.949.059-1.851.172-2.687.348.058-.34.125-.684.195-1.027.766-.164 1.609-.274 2.504-.336-.039.132-.059.269-.07.41-.012.207.007.41.058.605z"
              fill="#d68600"/>
        <path d="m6.481 8.114c.058-.34.121-.684.195-1.027.102-.028.207-.051.312-.079.075-.015.153-.031.227-.046-.07.343-.137.687-.195 1.027-.082.019-.168.035-.25.055-.098.023-.196.046-.289.07z"
              fill="#d5a167"/>
        <path d="m16.824 26.051c-.05-.031-.097-.066-.144-.097-.102-.071-.192-.145-.27-.227-.082-.078-.148-.168-.203-.265-.109-.188-.148-.391-.09-.563.032-.09.086-.187.157-.297.066-.109.148-.234.214-.383.032-.078.059-.16.075-.25.015-.086.019-.175.011-.257-.011-.164-.046-.309-.078-.434l-.011-.047-.004-.012v-.011c-.004-.008-.004-.012-.004-.016s0-.008.004-.008c0-.015.007-.027.019-.043.016-.011.031-.023.051-.027.019-.004.035-.004.051.004.004 0 .008.004.011.008.004 0 .004 0 .008.004h.004l.012.007c.027.02.058.043.09.063.058.039.125.074.187.113.129.067.262.129.41.176.039.012.082.023.121.031-.253.848-.46 1.692-.621 2.531zm3.082-8.332c-.089-.234-.179-.464-.253-.687-.079-.246-.153-.481-.176-.707-.016-.113-.016-.223-.004-.324.015-.102.047-.2.094-.289.043-.086.105-.161.171-.215.036-.028.075-.047.11-.063.023-.008.047-.015.07-.023.02-.004.035-.008.055-.008.097-.012.211-.008.344 0 .132.004.281.012.449-.02l.008-.003c.082-.016.168-.047.246-.094.082-.047.156-.11.215-.18.117-.144.175-.305.21-.453.02-.078.032-.152.036-.227.007-.074.011-.152.011-.218-.004-.141-.007-.266-.007-.383.003-.117.015-.227.043-.317.003-.011.007-.023.011-.035.004-.008.008-.023.012-.027.008-.016.016-.031.027-.051.02-.031.047-.058.082-.086.059-.051.137-.09.215-.105.008-.004.016-.004.02-.004.043-.012.086-.016.129-.012.007 0 .019.004.027.004.012.004.019.004.035.008.02.004.043.012.067.019.183.055.339.192.46.368-.996 1.296-1.91 2.687-2.707 4.132z"
              fill="#b75d00"/>
        <path d="m15.176 31.43c-.606.137-1.238.016-1.77-.355-2.894-2.035-5.234-5.488-6.586-9.727-1.453-4.547-1.66-9.57-.601-14.519.031-.137.164-.223.297-.192.133.028.219.161.191.297-2.301 10.739 1.774 20.067 6.985 23.731.531.371 1.195.422 1.777.133.586-.293.949-.856.976-1.512.145-3.649 1.301-7.574 3.34-11.344 1.903-3.516 4.508-6.734 7.34-9.07.106-.09.262-.074.348.035.09.105.074.266-.031.351-5.997 4.946-10.219 13-10.5 20.047-.036.84-.5 1.567-1.25 1.942-.168.082-.34.144-.516.183z"
              fill="#6c0000"/>
        <path d="m25.477 16.27c-.137.332-.41.598-.754.68-.731.176-1.242-.469-1.403-1.113-.007-.028-.011-.055-.019-.082-.109-.516-.074-1.055-.172-1.575-.109-.57-.441-1.164-1.016-1.277-.113-.023-.238-.012-.351.023-.199.059-.375.2-.449.383-.118.285-.075.606-.078.914-.004.301-.082.641-.34.797-.18.106-.391.094-.606.082-.164-.008-.328-.015-.48.031-.348.106-.559.477-.594.84-.031.364.082.723.191 1.071.168.531.524 1.257.579 1.816.05.555-.141 1.172-.61 1.469-.312.199-.719.246-.972.508l-.004.003c-.012.012-.028.028-.036.04-.003.003-.003.003-.007.007-.309.371-.215.95-.102 1.434.176 1.273-.836 1.027-1.492.559-.067-.047-.137-.067-.203-.067-.199.008-.375.184-.328.406 0 .004 0 .008.004.008.05.215.117.438.078.656-.059.348-.368.602-.453.942-.11.422.144.855.472 1.14.324.286.727.469 1.059.743.379.312.66.738.801 1.211.117.39.125.847-.114 1.179-.258.356-.777.391-1.101.094-.207-.187-.418-.359-.649-.465-.175-.078-.367-.113-.578-.082l-1.133-4.68 3.868-7.433 1.214-2.34 1.403-2.687 1.172-.332.664-.153.855-.195c-.32.5.137 1.301.371 1.848.239.546.621 1.015.934 1.523.383.617.668 1.355.379 2.074z"
              fill="#ffc100"/>
        <path d="m15.738 28.567c.145-.035.301-.039.45-.012.152.032.297.086.422.157.128.07.246.152.355.238.055.043.109.086.16.129.039.027.078.054.125.074.082.039.18.055.27.047.093-.008.179-.043.25-.09.035-.027.066-.055.09-.09l.023-.027.02-.028c.011-.019.023-.042.035-.066.039-.09.066-.187.078-.297.008-.105.004-.219-.016-.332-.019-.113-.047-.222-.09-.336-.082-.222-.195-.437-.343-.625-.071-.094-.153-.183-.239-.261-.086-.083-.179-.157-.281-.227-.203-.145-.437-.277-.668-.445-.113-.086-.23-.176-.336-.289-.105-.11-.199-.235-.277-.372-.078-.136-.137-.292-.164-.46-.032-.165-.016-.348.039-.516.054-.16.137-.293.211-.406.074-.118.14-.219.179-.313s.055-.172.047-.273c-.008-.102-.035-.219-.066-.352l-.012-.051-.004-.011c0-.004-.004-.012-.004-.02l-.007-.043c-.004-.027-.004-.055-.004-.086s0-.058.007-.09c.02-.117.079-.226.161-.304.082-.082.183-.141.293-.164.113-.028.234-.016.339.027.028.008.055.02.079.035l.035.024.019.011.008.004c.023.02.051.035.074.051.051.035.102.062.157.094.101.054.21.105.32.136.105.036.211.051.297.043.043 0 .082-.007.109-.023.027-.012.047-.027.066-.051.04-.047.071-.133.079-.234.011-.106.004-.223-.012-.344l.004.027c-.059-.261-.113-.535-.113-.832.003-.148.019-.304.07-.461.051-.152.137-.304.258-.425s.261-.207.39-.266c.133-.062.258-.105.371-.152.114-.047.211-.094.293-.153.082-.058.153-.132.215-.214.121-.172.199-.387.231-.61.015-.109.019-.223.011-.336-.007-.113-.027-.222-.054-.34-.059-.234-.145-.468-.235-.711-.09-.238-.187-.48-.273-.742-.078-.25-.164-.508-.199-.801-.016-.144-.02-.296 0-.453.023-.156.07-.308.144-.449.074-.144.176-.277.313-.383.066-.05.144-.093.226-.129.082-.035.168-.054.246-.066.16-.016.305-.008.43 0 .129.008.238.008.324-.012.082-.019.137-.051.188-.109.051-.059.086-.145.109-.246.012-.047.02-.102.024-.156.007-.055.007-.11.007-.172 0-.121-.007-.254-.004-.395.004-.14.016-.297.063-.453.008-.02.016-.039.023-.059.004-.019.012-.039.024-.062.019-.043.043-.082.066-.121.051-.074.114-.141.18-.195.133-.11.289-.184.457-.215.082-.02.172-.024.258-.016.023 0 .043.004.066.004.024.004.047.008.063.012.039.011.078.019.117.031.156.051.297.133.418.234.125.098.222.215.308.34.168.246.274.524.332.801.059.281.079.551.098.809.016.261.031.511.074.746.012.058.024.117.039.175l.024.079.027.082c.039.105.086.207.149.3.058.094.125.18.203.25.078.071.16.125.246.164.09.039.183.051.277.051.024-.004.047 0 .07-.004l.075-.011c.047-.012.093-.028.136-.047.18-.075.329-.227.422-.407.024-.046.043-.093.059-.148.019-.051.031-.102.047-.156.015-.106.031-.215.027-.324-.004-.223-.055-.45-.141-.668-.042-.11-.093-.219-.148-.329-.055-.105-.117-.211-.18-.32-.132-.215-.273-.433-.414-.652-.277-.442-.547-.914-.73-1.422-.051-.125-.09-.258-.121-.391-.035-.136-.059-.277-.067-.418-.011-.144 0-.293.032-.437.035-.145.097-.285.187-.403.043-.054.121-.066.176-.023.047.039.062.102.035.152v.008c-.098.203-.105.43-.062.66.046.227.128.457.234.684.047.113.105.223.164.336.059.109.117.223.18.328.125.215.261.43.402.645.145.214.289.429.43.656.14.226.273.472.375.738.101.262.168.547.172.848.007.148-.012.3-.043.445-.02.074-.036.148-.063.219-.027.07-.055.144-.094.211-.144.277-.382.515-.679.64-.075.032-.153.059-.231.071l-.121.019c-.039.008-.078.008-.121.008-.16.004-.328-.027-.477-.09-.152-.066-.281-.156-.398-.262-.109-.105-.203-.226-.281-.351-.082-.125-.145-.262-.196-.399l-.035-.101-.031-.106c-.016-.07-.031-.14-.043-.207-.098-.554-.07-1.078-.168-1.543-.051-.222-.137-.445-.258-.625-.125-.179-.285-.32-.468-.375-.024-.007-.047-.015-.067-.019-.016-.004-.023-.004-.035-.008-.008 0-.02-.004-.027-.004-.043-.004-.086 0-.129.012-.086.015-.172.055-.235.109-.035.028-.062.055-.082.086-.011.02-.019.035-.027.051-.004.004-.008.019-.012.027-.004.012-.008.024-.011.035-.028.09-.04.2-.043.317 0 .117.003.242.007.383 0 .066-.004.144-.011.218-.004.075-.016.149-.036.227-.035.148-.093.309-.21.453-.059.07-.133.133-.215.18s-.168.078-.254.097c-.168.032-.317.024-.449.02-.133-.008-.247-.012-.344 0-.047.004-.086.016-.125.031-.035.016-.074.035-.11.063-.066.054-.128.129-.171.215-.047.089-.079.187-.094.289-.012.101-.012.211.004.324.023.226.097.461.176.707.074.23.175.473.265.715.094.246.188.5.254.769.031.137.059.282.066.43.012.144.004.293-.015.437-.039.29-.141.582-.32.832-.09.125-.2.239-.329.333-.132.093-.269.152-.394.207-.125.05-.246.093-.348.14-.101.047-.183.102-.246.164-.129.125-.183.317-.183.543-.004.223.042.461.097.707.004.008.004.016.008.024.016.144.027.297.012.457-.008.082-.02.164-.051.254-.027.082-.074.171-.141.254-.062.078-.152.144-.242.187-.094.043-.191.063-.277.066-.18.012-.34-.019-.485-.062-.148-.047-.281-.109-.41-.176-.062-.039-.129-.074-.187-.113-.032-.02-.063-.043-.09-.063l-.012-.007h-.004c-.004-.004-.004-.004-.008-.004-.003-.004-.007-.008-.011-.008-.016-.008-.032-.008-.051-.004-.02.004-.035.016-.051.027-.012.016-.019.028-.019.043-.004 0-.004.004-.004.008s0 .008.004.016v.011l.004.012.011.047c.032.125.067.27.078.434.008.082.004.171-.011.257-.016.09-.043.172-.075.25-.066.149-.148.274-.214.383-.071.11-.125.207-.157.297-.058.172-.019.375.09.563.055.097.121.187.203.265.078.082.168.156.27.227.203.144.433.273.664.433.117.078.234.172.34.27.109.101.207.211.301.328.179.23.324.492.421.773.094.278.153.582.118.899-.016.16-.063.32-.137.473-.024.035-.039.074-.067.109l-.035.051-.043.05c-.058.071-.125.129-.199.18-.152.094-.328.153-.5.156-.176.004-.348-.039-.496-.121-.078-.039-.144-.093-.207-.152-.047-.047-.094-.09-.141-.133-.093-.086-.187-.168-.285-.238-.191-.141-.402-.223-.64-.215h-.004c-.071 0-.125-.055-.129-.125 0-.059.039-.109.097-.125z"
              fill="#6c0000"/>
        <path d="m14.746 7.344c-.07 1.149-1.218 2.016-2.566 1.934-1.344-.082-2.383-1.082-2.313-2.23.071-1.149 1.219-2.016 2.563-1.934 1.348.082 2.383 1.082 2.316 2.23z"
              fill="#fd0017"/>
        <path d="m10.156 7.637c-.058-.183-.082-.379-.07-.578.008-.16.043-.312.098-.461.094-.004.187-.008.285-.011-.18.269-.289.578-.309.906-.004.051-.004.097-.004.144z"
              fill="#ff959a"/>
        <path d="m13.211 10.036c-.25.058-.519.082-.797.066-1.062-.066-1.933-.703-2.219-1.539.458.527 1.165.883 1.973.934.297.019.582-.008.856-.071.882-.199 1.589-.793 1.843-1.566.036.004.071.012.106.016.008.093.012.191.004.293-.055.914-.789 1.648-1.766 1.867z"
              fill="#d68600"/>
        <path d="m14.973 7.876c-.035-.004-.07-.012-.106-.016.024-.078.047-.156.063-.238.019.086.035.168.043.254z"
              fill="#b75d00"/>
        <path d="m12.93 9.001c-.235.054-.481.074-.735.058-.972-.058-1.769-.636-2.027-1.383.422.446 1.051.747 1.766.789.277.02.543-.003.797-.062.882-.203 1.57-.824 1.734-1.621.051.176.074.359.063.551-.051.812-.715 1.468-1.598 1.668z"
              fill="#d2000e"/>
        <path d="m11.684 5.391c-.883.199-1.551.856-1.598 1.668-.062 1.028.883 1.926 2.109 2 1.223.074 2.27-.699 2.333-1.726.062-1.028-.883-1.926-2.11-2-.254-.016-.504.004-.734.058zm1.34 4.035c-.274.063-.559.09-.856.071-1.465-.09-2.594-1.196-2.519-2.461.078-1.27 1.332-2.231 2.796-2.141 1.465.09 2.594 1.195 2.516 2.461-.058 1.012-.871 1.828-1.937 2.07z"
              fill="#6c0000"/>
        <path d="m11.551 22.372c-.07 1.148-1.219 2.015-2.566 1.933-1.344-.082-2.383-1.082-2.313-2.23.07-1.152 1.219-2.016 2.563-1.934 1.347.082 2.382 1.078 2.316 2.231z"
              fill="#fd0017"/>
        <path d="m10.133 25.11c-.188.043-.387.066-.59.07-.156-.285-.305-.574-.449-.871.238.004.469-.019.687-.07.086-.016.168-.039.25-.066.77-.254 1.348-.84 1.489-1.567.015-.078.023-.156.031-.234.004-.117 0-.231-.012-.34.25.351.387.769.36 1.207-.055.914-.789 1.648-1.766 1.871z"
              fill="#d68600"/>
        <path d="m9.543 25.18c-.07 0-.137-.004-.207-.007-.125-.008-.242-.02-.359-.043-.16-.29-.313-.59-.461-.895.152.035.308.059.469.07.039 0 .074.004.109.004.144.297.293.586.449.871z"
              fill="#d5a167"/>
        <path d="m8.977 25.13c-.117-.024-.235-.051-.344-.09-.156-.293-.309-.594-.453-.903.109.039.219.075.336.098.148.305.301.605.461.895z"
              fill="#6c0000"/>
        <path d="m9.781 24.239c-.218.051-.449.074-.687.07-.035 0-.07-.004-.109-.004-.161-.011-.317-.035-.469-.07-.117-.023-.227-.059-.336-.098.027.008.055.02.086.028.226.078.469.125.719.14.277.016.546-.007.8-.066.082-.02.164-.039.246-.066-.082.027-.164.05-.25.066zm1.739-1.633c.015-.074.023-.148.027-.223 0-.003.004-.007.004-.011.004-.071.004-.137 0-.203-.004-.047-.008-.094-.012-.137.012.109.016.223.012.34-.008.078-.016.156-.031.234z"
              fill="#d2000e"/>
        <path d="m10.047 24.165c.758-.254 1.328-.832 1.473-1.551-.145.719-.715 1.297-1.473 1.551zm1.258-2.821v-.004zm0-.004-.004-.003zm-.004-.003c-.086-.153-.195-.293-.32-.426-.071-.074-.149-.145-.231-.211.227.183.414.398.551.637z"
              fill="#d68600"/>
        <path d="m9.785 24.239c-.254.059-.523.082-.8.066-.25-.015-.493-.066-.719-.14-.031-.008-.059-.02-.086-.028-.492-.183-.902-.496-1.168-.886-.039-.106-.063-.215-.082-.325.383.258.851.422 1.367.454.277.019.547-.004.797-.063.976-.223 1.711-.957 1.766-1.871.007-.125.003-.25-.016-.375.246.168.453.371.609.602-.097-.282-.258-.54-.472-.762.125.133.234.273.32.426l.004.003v.004c.121.211.203.446.234.688.004.043.008.09.012.137.004.066.004.132 0 .203 0 .004-.004.008-.004.011-.004.079-.016.157-.027.231-.145.719-.715 1.297-1.473 1.551-.086.031-.172.054-.262.074z"
              fill="#d2000e"/>
        <path d="m9.785 24.239c-.254.059-.523.082-.8.066.277.016.546-.007.8-.066zm-1.519-.074c-.031-.008-.059-.02-.086-.028.027.008.055.02.086.028zm3.285-1.996c-.004-.047-.008-.094-.012-.137.004.043.008.09.012.137z"
              fill="#b30007"/>
        <path d="m7.012 23.251c-.238-.348-.363-.75-.34-1.176v-.008.008c-.023.426.102.832.34 1.176z" fill="#82f9fe"/>
        <path d="m10.75 20.7c-.402-.317-.93-.524-1.515-.559-.2-.011-.395-.004-.582.024.187-.028.382-.035.582-.024.585.035 1.113.242 1.515.559z"
              fill="#ffe793"/>
        <path d="m7.012 23.251c-.238-.344-.363-.75-.34-1.176v-.008c.059-.91.793-1.641 1.766-1.863.07-.016.14-.028.215-.039.187-.028.382-.035.582-.024.585.035 1.113.242 1.515.559.043.121.074.246.094.371-.379-.258-.852-.422-1.367-.453-.274-.016-.543.008-.797.062-.973.223-1.711.957-1.766 1.871-.008.129 0 .254.016.375-.051-.035-.098-.07-.145-.109.055.152.133.297.227.434z"
              fill="#ffa1a6"/>
        <path d="m7.012 23.251c-.094-.137-.172-.282-.227-.434.047.039.094.074.145.109.019.11.043.219.082.325z"
              fill="#f19ea2"/>
        <path d="m10.981 20.911c-.071-.074-.149-.145-.231-.211.082.066.16.137.231.211z" fill="#efcf95"/>
        <path d="m11.453 21.673c-.156-.231-.363-.434-.609-.602-.02-.125-.051-.25-.094-.371.082.066.16.137.231.211.214.222.375.48.472.762z"
              fill="#f19ea2"/>
        <path d="m8.485 20.419c-.325.074-.622.207-.879.402-.434.324-.688.773-.715 1.266-.031.492.168.968.558 1.343.399.387.95.618 1.551.657.598.035 1.172-.129 1.617-.461.43-.328.684-.778.715-1.27.031-.488-.168-.969-.558-1.344-.399-.386-.95-.617-1.551-.652-.254-.016-.5.004-.738.059zm1.347 4.035c-.273.062-.566.086-.859.07-.703-.043-1.352-.32-1.824-.777-.485-.465-.731-1.067-.692-1.688.035-.621.352-1.183.887-1.59.527-.394 1.203-.589 1.906-.546.703.042 1.352.316 1.824.773.485.469.731 1.066.692 1.687-.035.622-.352 1.188-.887 1.59-.309.231-.664.395-1.047.481z"
              fill="#6c0000"/>
        <path d="m19.324 11.688c-.058.949-1.004 1.664-2.117 1.598-1.113-.067-1.969-.895-1.91-1.844.055-.949 1.004-1.664 2.117-1.598 1.114.071 1.965.895 1.91 1.844z"
              fill="#fd0017"/>
        <path d="m18.113 14.262c-.207.047-.429.067-.66.051-1.109-.066-1.965-.89-1.91-1.84.004-.031.004-.062.012-.09.308.473.871.821 1.539.891h.004c.035.004.07.008.105.012h.008c.047.004.094.004.141.004.176 0 .347-.02.511-.059.415-.094.774-.297 1.036-.578.226-.242.375-.543.418-.871.179.277.277.598.253.933-.042.758-.652 1.364-1.457 1.547z"
              fill="#d68600"/>
        <path d="m17.863 13.231c-.164.039-.335.059-.511.059.176 0 .347-.02.511-.059.051-.008.098-.023.145-.035.004 0 .004-.004.008-.004h.004c.004 0 .004 0 .004-.004h.011s0-.004.004-.004h.008c0-.004.004-.004.004-.004h.008s0-.004.004-.004h.007l.004-.003h.008c0-.004.004-.004.004-.004h.008s0-.004.004-.004h.008s0-.004.004-.004h.007v-.004h.008c.004 0 .004-.004.004-.004h.008c.004 0 .004-.004.004-.004h.008l.004-.004h.003c.004 0 .004 0 .004-.004h.004c.055-.019.11-.043.16-.07h.004s.004 0 .004-.004h.004c.004 0 .004 0 .004-.004h.004c.004 0 .004 0 .004-.004h.004c.004 0 .004-.004.004-.004h.007v-.004h.008c0-.003 0-.003.004-.003h.004c0-.004 0-.004.004-.004h.004v-.004h.004l.004-.004h.004l.004-.004h.003l.004-.004h.004s0-.004.004-.004h.004c.18-.101.34-.226.477-.371-.262.281-.621.484-1.036.578zm-.769.043c-.668-.07-1.231-.418-1.539-.891.238.368.629.657 1.101.801h.004v.004c.137.039.282.07.434.086z"
              fill="#d2000e"/>
        <path d="m17.32 13.29c-.039 0-.074-.004-.109-.004h-.008c-.008 0-.019-.004-.027-.004.008 0 .019.004.031.004.039 0 .074.004.113.004zm1.997-1.508c.003-.031.003-.063.007-.094 0-.035.004-.07.004-.109 0 .039-.004.074-.004.109-.004.031-.004.063-.007.094z"
              fill="#d68600"/>
        <path d="m17.863 13.231c-.171.039-.355.063-.543.059-.039 0-.074-.004-.113-.004-.012 0-.023-.004-.031-.004h-.004c-.18-.012-.352-.047-.512-.094v-.004h-.004c-.472-.144-.863-.433-1.101-.804v.003c-.051-.074-.094-.152-.129-.23-.004-.066-.004-.133 0-.199.348.383.875.644 1.477.679.23.016.453-.003.66-.05.804-.184 1.414-.793 1.457-1.547.004-.004.004-.008.004-.012.125.137.226.289.296.453.004.035.004.067.008.102 0 .039-.004.074-.004.109-.004.031-.004.063-.007.094v-.004c-.067.531-.407.977-.895 1.246h-.004c-.004 0-.004.004-.004.004h-.004l-.004.004h-.003l-.004.004h-.004l-.004.004h-.004v.004h-.004c-.004 0-.004 0-.004.004h-.004c-.004 0-.004 0-.004.003h-.008v.004h-.007s0 .004-.004.004h-.004c0 .004 0 .004-.004.004h-.004c0 .004 0 .004-.004.004h-.004c0 .004-.004.004-.004.004h-.004c-.05.027-.105.051-.16.07h-.004c0 .004 0 .004-.004.004h-.003l-.004.004h-.008s0 .004-.004.004h-.008s0 .004-.004.004h-.008v.004h-.007c-.004 0-.004.004-.004.004h-.008c-.004 0-.004.004-.004.004h-.008s-.004 0-.004.004h-.008l-.004.003h-.007c-.004 0-.004.004-.004.004h-.008s-.004 0-.004.004h-.008c-.004 0-.004.004-.004.004h-.011c0 .004 0 .004-.004.004h-.004c-.004 0-.004.004-.008.004-.047.012-.094.027-.145.035z"
              fill="#d2000e"/>
        <path d="m17.352 13.29c-.047 0-.094 0-.141-.004.035 0 .07.004.109.004zm-.145-.004h-.004zm1.692-.633c.226-.242.375-.543.418-.871-.043.328-.192.629-.418.871z"
              fill="#b75d00"/>
        <path d="m17.863 13.231c-.164.039-.335.059-.511.059h-.032c.188.004.372-.02.543-.059.051-.008.098-.023.145-.035-.047.012-.094.027-.145.035zm.145-.035c.004 0 .004-.004.008-.004-.004 0-.004.004-.008.004zm.008-.004h.004zm.004 0c.004 0 .004 0 .004-.004 0 .004 0 .004-.004.004zm.004-.004h.004zm.007 0h.004zm.004 0s0-.004.004-.004c-.004 0-.004.004-.004.004zm.004-.004h.004zm.004 0h.004zm.004 0c0-.004.004-.004.004-.004s-.004 0-.004.004zm.004-.004h.004zm.004 0h.004zm.015-.004.004-.003zm.004-.003h.004zm.004 0h.004zm.016-.004s0-.004.004-.004c-.004 0-.004.004-.004.004zm.004-.004h.004zm.004 0h.004zm.015-.004v-.004zm.012-.008h.004zm.004 0h.004zm.004 0c.004 0 .004-.004.004-.004s0 .004-.004.004zm.223-.098h.003zm.003-.004h.004zm.004 0h.004zm.02-.007v-.004zm.012-.008.004-.004zm.004-.004h.003zm.003 0 .004-.004zm.004-.004h.004zm.004 0s0-.004.004-.004c-.004 0-.004.004-.004.004zm.004-.004h.004zm.004 0c.488-.269.828-.715.895-1.246v.004c-.043.328-.192.629-.418.871-.137.145-.297.27-.477.371zm-1.762.164v-.004zm-.004-.004c-.472-.144-.863-.433-1.101-.801v-.003c.238.371.629.66 1.101.804z"
              fill="#b30007"/>
        <path d="m19.32 11.481v-.004c-.019-.262-.109-.508-.253-.726-.024-.039-.047-.071-.075-.106-.144-.187-.328-.351-.543-.484.496.301.829.781.871 1.32zm-3.937.567c-.066-.192-.102-.395-.086-.606.02-.359.172-.684.41-.949-.238.265-.39.59-.41.949-.012.211.02.414.086.606z"
              fill="#ffe485"/>
        <path d="m19.32 11.477c-.019-.262-.109-.508-.253-.726.144.218.234.464.253.726zm-3.894.676c-.016-.035-.027-.07-.043-.105-.066-.192-.098-.395-.086-.606.02-.359.172-.684.41-.949.258-.285.625-.5 1.047-.594.207-.047.43-.066.66-.055.383.024.735.137 1.031.317h.004c.215.133.399.297.543.484.028.125.036.25.032.379-.348-.383-.879-.641-1.481-.68-.23-.011-.449.008-.66.055-.805.184-1.41.789-1.457 1.543v.012c-.035-.039-.07-.078-.102-.121.024.109.059.218.102.32z"
              fill="#ff959a"/>
        <path d="m19.067 10.751c-.024-.036-.047-.071-.075-.106.028.035.051.067.075.106z" fill="#eec988"/>
        <path d="m19.32 11.477c-.07-.164-.171-.316-.296-.453.004-.129-.004-.254-.032-.379.028.035.051.07.075.106.144.218.234.464.253.726zm-3.894.676c-.043-.102-.078-.211-.102-.32.032.043.067.082.102.121-.004.066-.004.133 0 .199z"
              fill="#ee9296"/>
        <path d="m16.801 10.114c-.262.059-.504.168-.711.324-.348.262-.551.625-.578 1.02-.024.394.137.777.453 1.078.324.312.77.5 1.254.531.488.027.953-.105 1.312-.375.348-.262.551-.625.575-1.016.023-.394-.137-.777-.45-1.082-.324-.312-.769-.5-1.257-.531-.204-.012-.407.004-.598.051zm1.113 3.332c-.23.055-.472.074-.722.059-.586-.036-1.133-.27-1.532-.653-.406-.39-.613-.898-.582-1.422.032-.523.297-1 .75-1.343.442-.332 1.008-.497 1.598-.461.59.039 1.133.269 1.531.652.41.395.617.898.582 1.422h.004c-.035.527-.301 1.004-.75 1.344-.258.191-.558.328-.879.402z"
              fill="#6c0000"/>
        <path d="m28.195 7.098c-.031.375-.132.739-.289 1.078-.785 1.704-2.91 2.266-4.48 1.25-4.551-2.945-12.207-3.816-16.961-2.543-2.344.547-3.812-3.429-1.504-5.164 4.133-2.07 18.52-.679 22.524 3.465.496.512.765 1.203.71 1.914z"
              fill="#e77e26"/>
        <path d="m25.774 9.61c-.758.172-1.555.031-2.215-.395-2.168-1.406-5.192-2.433-8.504-2.89-2.918-.406-5.856-.332-8.164.191-.164.039-.328.078-.488.121l-.004.004c-1 .227-1.719-.484-2.063-1.23-.223-.477-.332-1.059-.269-1.637.48.719 1.238 1.16 2.117.961.011-.004.027-.008.039-.012.23-.066.469-.125.715-.179 4.761-1.086 11.914-.274 16.285 2.461.734.46 1.586.578 2.363.402.82-.188 1.563-.707 1.992-1.504.094.102.184.211.262.324.094.274.129.563.105.852-.027.336-.117.668-.265.992-.34.734-.957 1.266-1.738 1.496-.059.016-.114.031-.168.043z"
              fill="#c3581a"/>
        <path d="m27.578 5.903c-.004-.004-.008-.008-.011-.008-3.598-3.722-15.555-5.222-20.957-3.996-.618.141-1.145.316-1.567.531-.476.356-.793.805-.973 1.293.083-.656.391-1.308 1.024-1.789.394-.195.894-.363 1.484-.496 2.293-.523 5.895-.566 9.66-.07 5.176.683 9.313 2.172 11.071 3.992.125.129.238.273.328.43-.02.039-.039.078-.059.113z"
              fill="#f6c5a0"/>
        <path d="m27.84 6.227c-.078-.113-.168-.222-.262-.324.02-.035.039-.074.059-.113.082.136.152.285.203.437z"
              fill="#e5b49a"/>
        <path d="m6.891 6.516c2.308-.523 5.246-.597 8.164-.191 3.312.457 6.336 1.484 8.504 2.89.707.458 1.578.586 2.383.352.781-.23 1.398-.762 1.738-1.496.148-.324.238-.656.265-.992l.25.019-.25-.019c.051-.621-.183-1.25-.636-1.719-1.758-1.82-5.895-3.309-11.071-3.992-4.73-.621-9.203-.395-11.144.566-1.203.914-1.238 2.442-.758 3.477.344.746 1.063 1.457 2.063 1.23l.004-.004c.16-.043.324-.082.488-.121zm18.992 3.582c-.887.203-1.82.039-2.594-.461-4.722-3.058-12.375-3.683-16.761-2.511h-.016l-.004.004c-1.063.242-2.09-.348-2.625-1.508-.563-1.219-.512-3.024.93-4.106.011-.008.023-.015.039-.023 2.043-1.024 6.539-1.266 11.453-.621 2.433.32 4.726.836 6.633 1.496 2.16.742 3.75 1.633 4.726 2.64.559.579.84 1.348.778 2.11-.032.394-.137.789-.309 1.164-.395.855-1.145 1.5-2.055 1.766-.062.019-.129.035-.195.05z"
              fill="#6c0000"/>
        <path d="m27.555 5.657c-.192-.195-.406-.356-.645-.473-.234-.113-.492-.179-.754-.191-.519-.031-1.054.164-1.464.504-.204.172-.383.375-.516.609-.129.231-.211.484-.258.742s-.055.524-.027.793c.027.27.097.543.179.828.012.047-.011.094-.058.11-.031.008-.063-.004-.086-.024-.211-.23-.371-.511-.465-.824-.094-.308-.117-.644-.066-.973.05-.328.179-.636.347-.914.172-.277.387-.527.637-.734.25-.203.531-.371.84-.477.309-.109.637-.16.965-.144.328.019.652.101.945.246s.555.344.781.57c.098.098.098.258 0 .356-.097.097-.254.094-.351-.004z"
              fill="#6c0000"/>
        <path d="m14.254 28.094c-.016.004-.031.008-.047.008-.16.02-.301-.054-.312-.16-.012-.102.086-.191.222-.223.012-.004.028-.007.043-.007.16-.02.301.054.313.164.012.097-.086.191-.219.218z"
              fill="#d68600"/>
        <path d="m13.449 20.969c-.031.008-.058.012-.093.012-.223.016-.411-.094-.422-.246-.008-.133.117-.25.297-.289.027-.008.058-.012.089-.016.223-.015.415.098.422.25.008.129-.117.25-.293.289z"
              fill="#d68600"/>
        <path d="m14.465 21.212c-.016.003-.027.003-.043.003-.102.008-.187-.042-.191-.113-.004-.058.05-.113.132-.129.012-.004.028-.008.043-.008.102-.007.188.043.192.114.004.058-.055.113-.133.133z"
              fill="#d68600"/>
        <path d="m19.426 9.161c-.008 0-.02.004-.027.004-.102.011-.192-.035-.2-.106-.007-.062.055-.121.141-.14.008-.004.02-.004.027-.004.012-.004.024-.004.036-.004.042.015.085.031.128.043.02.019.032.039.036.062.007.063-.055.125-.141.145z"
              fill="#d68600"/>
        <path d="m19.531 8.954c-.043-.012-.086-.028-.128-.043.054 0 .101.019.128.043z" fill="#b75d00"/>
        <path d="m12.86 28.055c-.024.004-.047.008-.075.012-.25.027-.472-.086-.492-.258-.015-.156.137-.304.348-.351.027-.004.051-.012.074-.012.254-.031.473.086.492.258.016.156-.133.301-.347.351z"
              fill="#d68600"/>
        <path d="m20.36 9.93c-.024.008-.047.012-.075.012-.25.031-.468-.086-.488-.258-.019-.156.133-.301.348-.351.023-.004.047-.008.07-.012.254-.027.473.086.492.258.02.156-.133.304-.347.351z"
              fill="#d68600"/>
        <path d="m12.313 24.481c.203-.476.39-.558.547-.488.16.066.226.262.023.734-.207.477-.5.809-.656.738-.16-.07-.121-.511.086-.984z"
              fill="#00a15b"/>
        <path d="m17.024 17.864c.183-.43.351-.5.492-.441.144.062.207.238.019.664-.183.429-.449.726-.59.664-.14-.063-.105-.461.079-.887z"
              fill="#00a15b"/>
        <path d="m8.582 9.79c-.488-.157-.59-.336-.535-.5.051-.164.234-.254.727-.094.492.16.847.422.793.586-.051.164-.493.168-.985.008z"
              fill="#00a15b"/>
        <path d="m13.313 12.012c.343-.386.547-.402.675-.285.125.113.129.321-.214.703-.348.387-.731.606-.856.489-.129-.114.047-.52.395-.907z"
              fill="#00a15b"/>
        <path d="m24.668 16.747c-.008.004-.015.004-.023.008l-.075.011c-.023.004-.046 0-.07.004-.094 0-.187-.012-.277-.051-.086-.039-.168-.093-.246-.164-.078-.07-.145-.156-.203-.25-.063-.093-.11-.195-.149-.3l-.027-.082-.024-.079c-.004-.011-.007-.023-.007-.031.191.039.351.043.48.012.707-.16.527-1.277-.355-2.602-.286-.425-.469-.832-.582-1.195-.145-.465.082-.949.503-1.145-.019.051-.035.102-.046.153-.032.144-.043.293-.032.437.008.141.032.282.067.418.031.133.07.266.121.391.183.508.453.98.73 1.422.141.219.282.437.414.652.063.109.125.215.18.32.055.11.106.219.148.329.086.218.137.445.141.668.004.109-.012.218-.027.324-.016.054-.028.105-.047.156-.016.055-.035.102-.059.148-.093.18-.242.332-.422.407-.035.015-.074.031-.113.039z"
              fill="#d68600"/>
    </g>
    <path d="m7.906 15.419c-.105-.211-.296-.664-.246-.875.114-.454.293-.606.539-.653.243-.051 1.008-.031 1.34.071.27.086.614.433.641.55.031.118.148.504.047.719-.114.234-.399.586-.711.68-.321.097-.942-.024-1.211-.11-.176-.05-.313-.218-.399-.382z"
          fill="#fff"/>
    <path d="m8.684 15.88c.23-.004.617.003.754-.25.14-.254.179-.465.121-.692-.059-.226-.188-.387-.301-.465-.109-.078-.246-.199-.527-.211-.278-.011-.434.078-.578.196-.184.144-.286.461-.293.578-.012.195.089.41.21.601.122.184.395.243.614.243z"
          fill="#231f20"/>
    <path d="m7.656 15.36c.106.176.278.426.582.578.274.137.973.223 1.321.117.363-.109.742-.343.824-.742.078-.375-.004-.617-.195-.953-.231-.402-.438-.504-.918-.652-.36-.114-.739-.043-1 .011-.375.079-.629.27-.754.789-.102.43.074.747.14.852zm.254-.156c-.047-.074-.183-.309-.105-.625.086-.367.262-.512.523-.567.227-.047.547-.113.852-.019.387.121.562.191.75.515.148.262.223.454.16.743-.059.289-.352.441-.613.519-.293.086-.875.016-1.106-.101-.242-.121-.379-.325-.461-.465z"
          fill="#6a0b0d"/>
    <path d="m13.203 15.923c-.101-.204-.285-.641-.234-.844.105-.438.285-.586.519-.633.235-.047.977-.031 1.293.07.262.082.594.418.622.532.027.113.144.484.042.695-.105.226-.382.566-.683.656-.309.094-.91-.023-1.172-.105-.168-.051-.305-.211-.387-.371z"
          fill="#fff"/>
    <path d="m13.957 16.368c.223 0 .594.004.727-.242.136-.243.172-.446.117-.668-.055-.219-.18-.371-.289-.45-.106-.074-.238-.191-.512-.203-.265-.011-.418.078-.558.188-.176.144-.274.449-.282.562-.011.188.086.395.203.578.118.18.383.235.594.235z"
          fill="#231f20"/>
    <path d="m13.02 15.965c.203.297.355.364.675.508.399.176.754.145 1.098.075.281-.063.457-.141.586-.27.086-.086.152-.199.211-.352.121-.332.086-.742-.066-1.003-.254-.438-.438-.489-.899-.633-.344-.11-.914-.043-1.168.008-.144.031-.289.093-.406.21-.113.118-.203.29-.231.551-.046.418.055.696.2.906zm.246-.171c-.113-.164-.188-.379-.153-.7.02-.179.075-.296.149-.375.074-.074.164-.109.258-.129.218-.042.718-.109 1.015-.015.375.117.528.148.731.496.117.195.137.504.043.75-.098.269-.239.359-.578.434-.286.058-.582.093-.914-.055-.262-.117-.387-.164-.551-.406z"
          fill="#6a0b0d"/>
    <path d="m24.703 16.954c-.718.164-1.226-.481-1.383-1.117-.007-.028-.011-.055-.019-.082.051.007.105.019.16.031.035.012.07.019.106.027 0 .008.003.02.007.031l.024.079.027.082c.039.105.086.207.149.3.058.094.125.18.203.25.078.071.16.125.246.164.09.039.183.051.277.051.024-.004.047 0 .07-.004l.075-.011c.008-.004.015-.004.023-.008.039-.008.078-.024.113-.039.18-.075.329-.227.422-.407.024-.046.043-.093.059-.148.019-.051.031-.102.047-.156.015-.106.031-.215.027-.324-.004-.223-.055-.45-.141-.668-.042-.11-.093-.219-.148-.329-.055-.105-.117-.211-.18-.32-.132-.215-.273-.433-.414-.652-.277-.442-.547-.914-.73-1.422-.051-.125-.09-.258-.121-.391-.035-.136-.059-.277-.067-.418-.011-.144 0-.293.032-.437.011-.051.027-.102.046-.153.032-.011.067-.027.098-.035-.012.09-.016.168-.016.231-.039.219.012.465.094.715l.078.546.114-.078c.062.145.129.286.183.411.239.546.621 1.015.934 1.523.383.617.668 1.355.379 2.074-.137.332-.41.598-.754.68-.008 0-.012.004-.02.004z"
          fill="#6c0000" fill-rule="nonzero"/>
    <path d="m17.594 29.188c-.024.004-.047.008-.074.012-.09.008-.188-.008-.27-.047-.047-.02-.086-.047-.125-.074-.051-.043-.105-.086-.16-.129-.094-.07-.191-.141-.301-.207.102.004.196-.004.274-.024.691-.156.566-1.011-.067-1.433-.742-.5-1.015-.813-1.551-1.809-.535-.992.325-1.535.325-1.535s-.321-.805.425-1.055c-.039.063-.07.133-.082.207-.007.032-.007.059-.007.09s0 .059.004.086l.007.043c0 .008.004.016.004.02l.004.011.012.051c.031.133.058.25.066.352.008.101-.008.179-.047.273s-.105.195-.179.313c-.074.113-.157.246-.211.406-.055.168-.071.351-.039.516.027.168.086.324.164.46.078.137.172.262.277.372.106.113.223.203.336.289.231.168.465.3.668.445.102.07.195.144.281.227.086.078.168.167.239.261.148.188.261.403.343.625.043.114.071.223.09.336.02.113.024.227.016.332-.012.11-.039.207-.078.297-.012.024-.024.047-.035.066l-.02.028-.023.027c-.024.035-.055.063-.09.09-.051.035-.114.063-.176.078z"
          fill="#d68600" fill-rule="nonzero"/>
    <path d="m17.656 29.372c-.23.054-.488-.004-.679-.18-.207-.187-.418-.359-.649-.465.035-.004.09-.004.157.004.062.008.125.012.179.012.11.066.207.137.301.207.055.043.109.086.16.129.039.027.078.054.125.074.082.039.18.055.27.047.027-.004.05-.008.074-.012.062-.015.125-.043.176-.078.035-.027.066-.055.09-.09l.023-.027.02-.028c.011-.019.023-.042.035-.066.039-.09.066-.187.078-.297.008-.105.004-.219-.016-.332-.019-.113-.047-.222-.09-.336-.082-.222-.195-.437-.343-.625-.071-.094-.153-.183-.239-.261-.086-.083-.179-.157-.281-.227-.203-.145-.437-.277-.668-.445-.113-.086-.23-.176-.336-.289-.105-.11-.199-.235-.277-.372-.078-.136-.137-.292-.164-.46-.032-.165-.016-.348.039-.516.054-.16.137-.293.211-.406.074-.118.14-.219.179-.313s.055-.172.047-.273c-.008-.102-.035-.219-.066-.352l-.012-.051-.004-.011c0-.004-.004-.012-.004-.02l-.007-.043c-.004-.027-.004-.055-.004-.086s0-.058.007-.09c.012-.074.043-.144.082-.207.036-.011.071-.023.114-.031.105-.023.226-.039.367-.043h.004c-.02.004-.043.004-.063.012-.168.035-.304.199-.261.394 0 .004 0 .008.004.008.05.215.117.438.078.656-.059.348-.368.602-.453.942-.11.422.144.855.472 1.14.324.286.727.469 1.059.743.379.312.66.738.801 1.211.117.39.125.847-.114 1.179-.109.145-.258.239-.422.274zm-1.097-6.559h-.004z"
          fill="#6c0000" fill-rule="nonzero"/>
    <path d="m17.832 23.044c-.019.004-.039.007-.062.007-.086.008-.192-.007-.297-.043-.11-.031-.219-.082-.32-.136-.055-.032-.106-.059-.157-.094 0 0-.004 0-.004-.004.039-.004.075-.012.11-.019.488-.11.73-.36.855-.618.016.094.035.184.059.274.012.117.019.23.008.332-.008.101-.039.187-.079.234-.019.024-.039.039-.066.051-.012.008-.027.012-.047.016z"
          fill="#d68600" fill-rule="nonzero"/>
    <path d="m17.879 23.243c-.316.074-.766-.113-1.117-.363-.063-.047-.133-.067-.203-.067.16 0 .304-.015.433-.039l.004.004c.051.035.102.062.157.094.101.054.21.105.32.136.105.036.211.051.297.043.023 0 .043-.003.062-.007.02-.004.035-.008.047-.016.027-.012.047-.027.066-.051.04-.047.071-.133.079-.234.011-.102.004-.215-.008-.332-.024-.09-.043-.18-.059-.274.09-.191.113-.394.117-.55.008-.34.196-.598.282-.7-.309.371-.215.95-.102 1.434.082.594-.098.859-.375.922z"
          fill="#6c0000" fill-rule="nonzero"/>
    <path d="m18.363 20.88c.016-.02.028-.032.036-.04-.012.012-.028.028-.036.04z" fill="#802536" fill-rule="nonzero"/>
    <path d="m18.387 20.899-.047-.039c.004-.004.008-.012.012-.016.011-.011.019-.023.023-.027l.043.047c-.008.008-.015.016-.023.023 0 .004-.004.008-.008.012z"
          fill="#6c0000" fill-rule="nonzero"/>
    <path d="m18.485 16.532c-.129-.738.031-1.121.234-1.703.18-.508.578-.508.98-.637z" fill="#d68600"
          fill-rule="nonzero"/>
    <path d="m18.688 20.411c.281-.512.609-1.446.183-2.574-.207-.547-.328-.965-.386-1.305l1.214-2.34c.274-.086.547-.234.754-.644.227-.446.504-.622.746-.676.086-.02.168-.024.239-.02-.032.02-.063.043-.094.071-.066.054-.129.121-.18.195-.023.039-.047.078-.066.121-.012.023-.02.043-.024.062-.007.02-.015.039-.023.059-.047.156-.059.313-.063.453-.003.141.004.274.004.395 0 .062 0 .117-.007.172-.004.054-.012.109-.024.156-.023.101-.058.187-.109.246-.051.058-.106.09-.188.109-.086.02-.195.02-.324.012-.125-.008-.27-.016-.43 0-.031.008-.066.012-.101.02-.047.011-.098.027-.145.046-.082.036-.16.079-.226.129-.137.106-.239.239-.313.383-.074.141-.121.293-.144.449-.02.157-.016.309 0 .453.035.293.121.551.199.801.086.262.183.504.273.742.09.243.176.477.235.711.027.118.047.227.054.34.008.113.004.227-.011.336-.032.223-.11.438-.231.61-.062.082-.133.156-.215.214-.082.059-.179.106-.293.153-.093.039-.199.074-.304.121z"
          fill="#d68600" fill-rule="nonzero"/>
    <path d="m18.403 20.837c.007-.012.14-.164.285-.426.105-.047.211-.082.304-.121.114-.047.211-.094.293-.153.082-.058.153-.132.215-.214.121-.172.199-.387.231-.61.015-.109.019-.223.011-.336-.007-.113-.027-.222-.054-.34-.059-.234-.145-.468-.235-.711-.09-.238-.187-.48-.273-.742-.078-.25-.164-.508-.199-.801-.016-.144-.02-.296 0-.453.023-.156.07-.308.144-.449.074-.144.176-.277.313-.383.066-.05.144-.093.226-.129.047-.019.098-.035.145-.046.035-.008.07-.012.101-.02.16-.016.305-.008.43 0 .129.008.238.008.324-.012.082-.019.137-.051.188-.109.051-.059.086-.145.109-.246.012-.047.02-.102.024-.156.007-.055.007-.11.007-.172 0-.121-.007-.254-.004-.395.004-.14.016-.297.063-.453.008-.02.016-.039.023-.059.004-.019.012-.039.024-.062.019-.043.043-.082.066-.121.051-.074.114-.141.18-.195.031-.028.062-.051.094-.071.191.008.324.074.324.074-.199.059-.375.2-.449.383-.118.285-.075.606-.078.914-.004.301-.082.641-.34.797-.055.031-.114.055-.176.07-.137.028-.281.02-.43.012-.144-.008-.293-.012-.433.02-.016.004-.032.008-.047.011-.348.106-.559.477-.594.84-.031.364.082.723.191 1.071.168.531.524 1.257.579 1.816.05.555-.141 1.172-.61 1.469-.312.199-.719.246-.972.508z"
          fill="#6c0000" fill-rule="nonzero"/>
    <path d="m10.367 17.157c.028 1.07.551 1.652 1.121 1.758.481.09.997-.16 1.27-.739.137-.285.211-.644.203-1.078-.223-1.168-2.512-.711-2.594.059z"
          fill="#6c0000" fill-rule="nonzero"/>
    <path d="m11.438 18.622c.007.105.035.207.078.297.484.078.992-.184 1.254-.77-.141-.195-.375-.316-.633-.305-.406.02-.719.368-.699.778z"
          fill="#fd0017" fill-rule="nonzero"/>
    <path d="m10.559 17.247c.051.972.547 1.406.965 1.484.425.078.847-.172 1.066-.637.121-.254.184-.554.184-.902-.606-.43-1.579-.402-2.215.055zm1.398 1.843c-.16.036-.332.04-.504.008-.566-.105-1.242-.675-1.273-1.937 0-.055.027-.113.07-.149.895-1.039 2.086-1.047 2.828-.062.043.035.067.086.071.14.007.446-.067.84-.223 1.165-.211.445-.563.742-.969.835z"
          fill="#6c0000" fill-rule="nonzero"/>
    <path d="m15.653 18.372c-.024.23-.383.379-.805.336-.418-.043-.738-.266-.715-.496.027-.231.387-.379.805-.336s.738.265.715.496z"
          fill="#fd0017" fill-rule="nonzero"/>
    <path d="m9.024 17.848c-.024.231-.383.383-.801.336-.418-.043-.738-.265-.715-.496.023-.23.383-.379.801-.336.418.047.738.266.715.496z"
          fill="#fd0017" fill-rule="nonzero"/>
    <path d="m11.024 3.2c-.067.015-.133.023-.2.027-.793.071-1.586.137-2.379.203-.562.047-1.121.098-1.679.145-.156.012-.332.019-.446-.09-.125-.125-.105-.344 0-.484.25-.344.711-.528 1.184-.633.332-.078.676-.113.945-.145.829-.093 1.676-.031 2.481.184.238.066.519.211.5.453-.016.195-.207.293-.406.34z"
          fill="#ed9956" fill-rule="nonzero"/>
    <path d="m14.289 3.419c-.215.05-.519.046-.851.027-.645-.043-1.16-.148-1.141-.469.016-.215.254-.387.602-.465.179-.039.382-.058.601-.043.645.043 1.149.34 1.125.661-.008.156-.137.242-.336.289z"
          fill="#ed9956" fill-rule="nonzero"/>
    <path d="m10.707 12.782c-.078.016-.16.016-.242-.004-.316-.082-.504-.43-.82-.523-.121-.036-.25-.028-.375 0-.133.031-.266.082-.395.132-.086.036-.176.067-.269.086-.172.039-.348.043-.496-.043-.231-.132-.313-.445-.231-.695s.293-.441.531-.555c.106-.047.215-.086.332-.109.453-.106.981-.055 1.411.023.3.051.597.176.808.403.211.222.317.558.219.851-.067.211-.258.383-.473.434z"
          fill="#ffd43c" fill-rule="nonzero"/>
    <path d="m11.836 14.407c-.051.012-.105.016-.156.008-.188-.02-.36-.133-.457-.293-.102-.16-.121-.367-.059-.547.051-.133.184-.277.332-.309.055-.011.114-.011.168.012.203.086.321.461.375.648.035.122.055.258-.015.364-.043.062-.11.101-.188.117z"
          fill="#ffd43c" fill-rule="nonzero"/>
    <path d="m24.031 11.872c-.054-.149-.101-.297-.128-.442-.043-.23-.036-.457.062-.66v-.008c.027-.05.012-.113-.035-.152-.031-.023-.07-.031-.106-.023-.015.003-.031.011-.046.023.07-.187.207-.387.449-.551.48.133.984.16 1.476.074-.57.547-1.129 1.129-1.672 1.739z"
          fill="#b75d00" fill-rule="nonzero"/>
    <path d="m24.149 12.141c-.004-.008-.008-.019-.012-.027-.039-.082-.074-.164-.106-.242.543-.61 1.102-1.192 1.672-1.739.059-.007.121-.023.18-.035.066-.015.133-.031.195-.05.012-.004.024-.008.032-.008l-.012.066-.555.684-.941 1.031z"
          fill="#6c0000" fill-rule="nonzero"/>
    <path d="m23.981 12.262c-.071-.152-.137-.308-.192-.468l-.082-.586s-.008-.051-.012-.129c.016-.09.047-.176.098-.254-.027.004-.055.012-.082.023.012-.074.035-.156.067-.238.015-.012.031-.02.046-.023.036-.008.075 0 .106.023.047.039.062.102.035.152v.008c-.098.203-.105.43-.062.66.027.145.074.293.128.442.032.078.067.16.106.242.004.008.008.019.012.027z"
          fill="#6c0000" fill-rule="nonzero"/>
    <path d="m25.883 10.098c-.059.012-.121.028-.18.035-.492.086-.996.059-1.476-.074.082-.054.172-.101.273-.148l.77-.156.89.023-.05.262c-.008 0-.02.004-.032.008-.062.019-.129.035-.195.05z"
          fill="#6c0000" fill-rule="nonzero"/>
    <path d="m23.867 12.34-.078-.546c.055.16.121.316.192.468zm-.172-1.261c0-.063.004-.141.016-.231.027-.011.055-.019.082-.023-.051.078-.082.164-.098.254z"
          fill="#6c0000" fill-rule="nonzero"/>
    <path d="m11.789 14.313c-.031.059.274.047.41.055.196.015.5.09.743.023.273-.074.609-.312.894-.468.281-.149.59-.348.84-.454.211-.089.598-.109.656-.175.063-.067-.172-.196-.297-.219-.148-.027-.418-.039-.613.043-.336.148-1.082.699-1.422.851-.195.086-.422-.004-.621.055-.203.055-.562.231-.59.289z"
          fill="#6a0b0d"/>
    <path d="m11.059 14.298c.004.066-.27-.067-.403-.114-.179-.066-.488-.117-.687-.277-.223-.176-.434-.527-.637-.785-.199-.25-.402-.559-.59-.754-.156-.164-.504-.34-.531-.422-.031-.086.234-.109.356-.082.152.031.402.129.546.285.25.27.715 1.074.969 1.348.145.156.387.164.551.301.164.132.422.433.426.5z"
          fill="#6a0b0d"/>
</svg>
